# Blender 4.4.3
# www.blender.org
mtllib mesh.mtl
o Cube
v -2.285133 0.018933 0.000000
v 1.331745 0.371765 0.311276
v 0.490464 0.364077 0.306995
v -0.601999 0.331306 0.307462
v -0.808958 0.300639 0.307462
v -1.693188 0.132571 0.160033
v -1.479352 0.178612 0.205173
v -1.087768 0.255217 0.279504
v 0.488484 0.594348 0.000000
v -0.676966 0.678356 0.000000
v -0.960437 0.678015 0.000000
v -1.735470 0.323455 0.000000
v -1.508730 0.440416 0.000000
v -1.085585 0.627930 0.000000
v -1.511357 0.355597 0.056511
v -1.087768 0.425214 0.125812
v -0.636615 0.525129 0.145725
v -0.536762 0.339897 0.307462
v -0.477292 0.346017 0.307284
v -0.336837 0.353720 0.306779
v -0.547035 0.678326 0.000000
v -0.493090 0.677788 0.000000
v -0.450859 0.680896 0.000000
v -0.551615 0.574127 0.108124
v -0.498333 0.627384 0.058175
v -0.740985 0.488807 0.156838
v 0.488484 0.528705 0.145789
v -0.634122 0.500616 0.168974
v -0.544434 0.512754 0.172217
v -0.483616 0.519431 0.173968
v -0.400633 0.524427 0.171409
v 0.488248 0.456674 0.226134
v -2.140382 0.046721 0.039134
v -2.146966 0.095480 0.000000
v -2.168195 0.013971 0.000000
v -1.672913 0.036401 0.000000
v -0.814428 0.210007 0.274940
v -2.145562 0.032225 0.036708
v -1.688205 0.081127 0.151585
v -1.088775 0.165734 0.266944
v -1.473663 0.110814 0.196987
v 0.674799 0.364731 0.307832
v 0.772279 0.364708 0.308562
v 0.948567 0.364447 0.310053
v 1.157126 0.364138 0.311817
v 0.530599 0.590609 0.000000
v 0.785907 0.563538 0.043443
v 0.992371 0.544150 0.079174
v 1.212037 0.515652 0.111482
v 0.682014 0.518000 0.140814
v 0.792948 0.512929 0.136570
v 0.983937 0.502178 0.131296
v 1.212878 0.498573 0.138542
v 0.680142 0.468123 0.207978
v 0.788440 0.473537 0.195887
v 0.979547 0.482318 0.174020
v 1.208266 0.490524 0.151666
v 0.937272 0.621509 0.000000
v 1.144397 0.670282 0.000000
v 1.377418 0.717976 0.000000
v 1.463435 0.727372 0.000000
v 1.515872 0.728866 0.000000
v 1.545682 0.724021 0.000000
v 1.557073 0.715434 0.000000
v 0.123291 0.280959 0.478291
v 0.433742 0.228076 0.568983
v 1.209586 0.017208 0.846523
v 1.309302 0.003886 0.865492
v 1.500846 -0.000196 0.876499
v 1.525321 0.038045 0.842847
v 1.332999 0.032832 0.836728
v 1.207150 0.055891 0.790838
v 0.457610 0.270045 0.500200
v 0.099667 0.336331 0.408420
v -0.340476 0.313710 0.372618
v 0.278722 0.260603 0.521190
v 0.820840 0.121879 0.709515
v 0.832380 0.173166 0.645519
v 0.278639 0.308287 0.454310
v -0.118757 0.351206 0.357877
v 1.366683 0.313548 0.410456
v 1.492939 0.121901 0.750216
v 1.365117 0.119776 0.750216
v 1.235771 0.300142 0.409977
v 0.644995 0.221606 0.572860
v 0.627795 0.175716 0.638301
v 1.014031 0.067364 0.780783
v 1.019765 0.114529 0.718178
v 0.551303 0.245826 0.536530
v 0.531236 0.202485 0.602680
v -0.061295 0.358650 0.306767
v 0.204760 0.434768 0.249439
v -0.137744 0.652047 0.000000
v 0.175370 0.623198 0.000000
v -0.111565 0.531602 0.156805
v 0.187628 0.533469 0.146276
v 0.076640 0.360528 0.306712
v 0.018813 0.637622 0.000000
v 0.037607 0.533994 0.150105
v -0.528398 0.235783 0.246696
v -0.706900 0.304260 0.316107
v -0.605099 0.307992 0.326645
v -0.538938 0.310630 0.335651
v -0.470208 0.313474 0.347379
v -0.116000 0.300955 0.420629
v 1.329416 0.369995 0.129282
v -0.375407 0.246594 0.247291
v 1.482539 0.093935 0.753200
v 1.237078 0.261162 0.407627
v 1.366647 0.095250 0.751622
v 1.310252 0.313399 0.303328
v 1.192551 0.323709 0.236204
v -0.467269 0.108697 0.202466
v -0.420385 0.036415 0.116219
v -0.406556 0.015450 0.000000
v 1.348559 0.252330 0.109787
v 1.347620 0.213859 0.062125
v 1.347201 0.196645 0.000000
v 0.040486 0.036945 0.000000
v 0.487685 0.080983 0.000000
v 0.934853 0.120951 0.000000
v 0.929342 0.140036 0.084271
v 0.478707 0.101298 0.103405
v 0.028034 0.059158 0.116334
v 0.910782 0.205115 0.149608
v 0.448508 0.170796 0.181679
v -0.014246 0.135398 0.203594
v 1.500543 0.306424 0.085226
v 1.500543 0.271962 0.068266
v 1.500543 0.247909 0.037801
v 1.500543 0.230326 0.000000
v 1.500543 0.345422 0.084128
v 1.500543 0.380195 0.067686
v 1.500543 0.404393 0.037648
v 1.500543 0.413055 0.000000
v 1.074310 0.146672 0.000000
v 1.213754 0.172396 0.000000
v -0.121439 0.051579 0.116298
v -0.270912 0.043997 0.116260
v -0.165252 0.126497 0.203217
v -0.316260 0.117597 0.202842
v -0.222416 0.257404 0.247886
v -0.257542 0.022614 0.000000
v -0.108528 0.029779 0.000000
v 0.189553 0.051624 0.000000
v 0.338620 0.066303 0.000000
v 0.636742 0.094302 0.000000
v 0.785798 0.107625 0.000000
v 1.211116 0.187475 0.071441
v 1.070215 0.163760 0.077874
v 0.779130 0.127134 0.090656
v 0.628918 0.114221 0.097034
v 0.328480 0.087253 0.107719
v 0.178256 0.073206 0.112029
v 1.202261 0.238875 0.127495
v 1.056569 0.222012 0.138459
v 0.756709 0.193678 0.160292
v 0.602618 0.182239 0.170982
v 0.294263 0.159000 0.188984
v 0.140012 0.147200 0.196289
v 0.761757 0.599234 0.000000
v 0.772761 0.584013 0.017691
v 0.962003 0.594384 0.043682
v 1.176748 0.605887 0.065228
v 1.372990 0.613009 0.074409
v 1.421113 0.602429 0.076402
v 1.530993 0.709818 0.009436
v 0.979378 0.565668 0.065804
v 1.194116 0.561005 0.090311
v 1.371989 0.553022 0.105562
v -1.509820 0.357573 0.048943
v -1.086998 0.427359 0.117619
v -1.732296 0.325579 0.000000
v -0.639079 0.525233 0.137235
v -0.547620 0.575569 0.115901
v -0.493237 0.629764 0.064763
v -0.457208 0.677063 0.000000
v -0.739919 0.487579 0.165391
v -0.602887 0.268789 0.298970
v -0.686151 0.231097 0.270225
v -0.282412 0.304514 0.319740
v -0.528713 0.290134 0.302319
v 0.091650 0.279034 0.251510
v -0.405562 0.297324 0.311029
v 0.412634 0.286318 0.275564
v 0.709345 0.298069 0.276436
v 1.259455 0.161235 0.586930
v 0.778499 0.405761 0.237844
v 0.963576 0.410162 0.219650
v 1.185083 0.410321 0.207829
v -0.075220 0.409341 0.268187
v -1.953225 0.082651 0.089732
v -0.752546 0.458894 0.194923
v -0.777666 0.395820 0.248979
v 0.489042 0.497785 0.201660
v 0.488918 0.518100 0.171992
v -0.618890 0.426598 0.249799
v -0.629540 0.480894 0.192946
v -0.541275 0.438413 0.250209
v -0.543454 0.493240 0.195017
v -0.480680 0.446385 0.249001
v -0.482714 0.500734 0.196008
v -0.371338 0.457839 0.242698
v -0.392150 0.506886 0.192436
v -1.727913 0.287099 0.046334
v -1.716650 0.232474 0.101159
v -1.506351 0.325642 0.103350
v -1.497371 0.271304 0.153523
v -1.090077 0.398760 0.162774
v -1.090875 0.342686 0.219146
v 0.681404 0.499192 0.186469
v 0.681749 0.512369 0.160514
v 0.790351 0.498377 0.176259
v 0.791535 0.506739 0.154707
v 0.981078 0.492161 0.150515
v 0.982579 0.497625 0.140720
v 1.211561 0.496859 0.144257
v 0.052926 0.479747 0.218842
v 0.043269 0.523058 0.175125
v -0.090855 0.471539 0.225321
v -0.104348 0.519281 0.180607
v 0.197541 0.485775 0.212215
v 0.191820 0.522600 0.172505
v -0.796950 0.336356 0.285885
v -1.702599 0.178444 0.135507
v -1.486775 0.219029 0.186004
v -1.089307 0.289213 0.257991
v 0.488914 0.472924 0.219058
v -0.608773 0.374370 0.289032
v -0.538520 0.385693 0.288060
v -0.478476 0.394103 0.284948
v -0.353936 0.409880 0.276434
v 0.680518 0.479887 0.201246
v 0.788688 0.482496 0.188158
v 0.979850 0.486975 0.165423
v 0.061273 0.440784 0.248112
v -0.079370 0.429105 0.255214
v 0.202602 0.452006 0.238353
v -1.979247 0.018696 0.000000
v -1.959497 0.051963 0.085204
v -1.976932 0.189681 0.000000
v -1.885371 0.023390 0.000000
v -1.782860 0.115356 0.135790
v -1.873536 0.097949 0.111275
v -1.818736 0.277324 0.000000
v -1.902936 0.230676 0.000000
v -1.803243 0.199696 0.087360
v -1.890237 0.165154 0.072661
v -1.812584 0.246940 0.039516
v -1.897740 0.203801 0.032613
v -1.790512 0.152553 0.116171
v -1.879311 0.125334 0.095103
v -1.782218 0.070942 0.128635
v -1.876878 0.060792 0.105509
v 0.783473 0.441315 0.211230
v 0.972241 0.451476 0.187062
v 1.201045 0.456640 0.167930
v 0.773256 0.379428 0.272747
v 0.954661 0.380575 0.263139
v 1.169318 0.380038 0.258252
v -1.967522 0.137433 0.060152
v -1.973373 0.168360 0.026634
v -1.958177 0.104083 0.077121
v -2.140663 0.076926 0.020752
v -2.144938 0.091072 0.006604
v -2.139262 0.061386 0.031459
v 0.064427 0.423445 0.258540
v 0.214581 0.361928 0.306654
v 0.675073 0.403260 0.247705
v 0.676961 0.435935 0.224160
v 0.674175 0.378551 0.277459
v 0.490135 0.400293 0.259074
v 0.489827 0.427567 0.239892
v 0.489763 0.377527 0.282661
v -0.347685 0.381045 0.284346
v -0.477341 0.362405 0.295253
v -0.536953 0.351728 0.299888
v -0.603230 0.339234 0.303215
v -0.602897 0.336440 0.303370
v -0.602616 0.334414 0.304008
v -0.602315 0.332721 0.305429
v 0.207275 0.414297 0.261147
v 0.209757 0.395230 0.274583
v 0.212215 0.377134 0.290497
v -0.477186 0.347504 0.303049
v -0.477194 0.351407 0.299095
v -0.477264 0.356465 0.296827
v -0.536760 0.341664 0.304525
v -0.536800 0.344304 0.302085
v -0.536868 0.347578 0.300708
v -0.344909 0.371848 0.288440
v -0.342145 0.363340 0.293141
v -0.339393 0.355731 0.299904
v 0.067499 0.406880 0.269403
v 0.070559 0.390820 0.280700
v 0.073606 0.375420 0.293489
v -0.071730 0.395787 0.276572
v -0.068246 0.382767 0.285422
v -0.064768 0.370442 0.295862
v -0.441153 0.066346 0.166086
v -0.409559 0.020433 0.059978
v 1.348014 0.229984 0.088352
v 1.347359 0.203136 0.033288
v 0.009267 0.090924 0.166787
v 0.465245 0.130288 0.148524
v 0.920941 0.167692 0.122134
v 0.037768 0.042239 0.060020
v 0.485731 0.085811 0.053211
v 0.933623 0.125569 0.043572
v 1.500543 0.258216 0.054362
v 1.500543 0.241515 0.019371
v 0.635027 0.099059 0.049996
v 0.784324 0.112312 0.046783
v 0.187090 0.056762 0.057748
v 0.336412 0.071286 0.055478
v -0.260450 0.027701 0.059991
v -0.111341 0.034970 0.060005
v 0.617139 0.142754 0.139722
v 0.769037 0.155222 0.130925
v 0.161258 0.104043 0.160696
v 0.313251 0.117165 0.154609
v -0.291013 0.074538 0.166318
v -0.140873 0.082731 0.166552
v 0.584522 0.240985 0.195982
v -0.194692 0.188849 0.231290
v 1.049107 0.263003 0.155176
v 1.064033 0.188387 0.112823
v 1.207144 0.209079 0.103515
v 1.073404 0.150781 0.040119
v 1.213176 0.175998 0.036671
v -0.498717 0.169081 0.230228
v 0.424810 0.240652 0.210254
v 0.899664 0.254373 0.169077
v -0.346705 0.178965 0.230759
v -0.470287 0.235611 0.226016
v -0.414278 0.119168 0.185491
v -0.371320 0.052939 0.106466
v -0.358649 0.033730 0.000000
v -0.390349 0.080364 0.152157
v -0.361401 0.038296 0.054935
v -0.443092 0.174495 0.210927
v 0.209762 0.243407 0.097615
v 0.233959 0.193100 0.080107
v 0.252518 0.164488 0.045966
v 0.257992 0.156189 0.000000
v 0.244297 0.176336 0.065706
v 0.256804 0.158161 0.023703
v 0.221511 0.217003 0.091096
v 0.209762 0.243407 0.000000
v 1.500543 0.304831 0.094182
v 1.500543 0.266292 0.075286
v 1.500543 0.251132 0.059953
v 1.500543 0.239765 0.041688
v 1.500543 0.232713 0.021363
v 1.500543 0.239350 0.000000
v 1.500543 0.347369 0.092964
v 1.500543 0.385795 0.074795
v 1.500543 0.412534 0.041602
v 1.500543 0.422106 0.000000
v 1.275933 0.278573 0.000000
v 1.275933 0.352317 0.000000
v 1.275933 0.307018 0.036143
v 1.275933 0.292403 0.028950
v 1.275933 0.286574 0.023054
v 1.275933 0.282203 0.016031
v 1.275933 0.279491 0.008215
v 1.275933 0.323635 0.035677
v 1.275933 0.338382 0.028704
v 1.275933 0.348643 0.015966
v 1.448761 0.596663 0.064869
v 1.555008 0.701307 0.000000
v 1.373448 0.500703 0.124144
v 1.332137 0.479679 0.000000
v 0.249394 0.286069 0.231549
v -0.165906 0.156970 0.000000
v -0.011877 0.176844 0.000000
v -0.069426 0.268215 0.248480
v 0.089984 0.277142 0.240015
v -0.677716 0.115538 0.000000
v 0.253129 0.284532 0.268137
v 0.875881 0.305388 0.267606
v 0.561502 0.292363 0.278998
v 0.261589 0.248662 0.222669
v 0.879698 0.307910 0.241473
v 0.884471 0.303302 0.216275
v 0.889733 0.292016 0.194477
v 0.894968 0.275156 0.178213
v 0.420052 0.257021 0.216787
v 0.416134 0.270937 0.227818
v 0.413440 0.281040 0.242266
v 0.412234 0.286340 0.258719
v 1.327572 0.295259 0.123126
v 1.321709 0.347115 0.198489
v 1.324520 0.344451 0.170925
v 1.327603 0.317189 0.131304
v 0.252572 0.283176 0.256396
v 0.253263 0.278291 0.244935
v 0.255134 0.270355 0.234876
v 0.258003 0.260146 0.227204
v 1.197608 0.272812 0.142649
v 1.192278 0.326038 0.211719
v 1.192722 0.321343 0.187964
v 1.193841 0.310083 0.167267
v 1.195525 0.293360 0.151652
v 1.034996 0.312202 0.255787
v 1.036550 0.315012 0.229245
v 1.039008 0.310767 0.203589
v 1.042130 0.299883 0.181330
v 1.045610 0.283424 0.164649
v 0.742771 0.245772 0.181687
v 0.737031 0.266281 0.190603
v 0.730125 0.283146 0.206310
v 0.722730 0.294716 0.227272
v 0.715570 0.299858 0.251436
v 0.564292 0.293107 0.257150
v 0.568436 0.287522 0.236007
v 0.573529 0.276156 0.217641
v 0.579072 0.260120 0.203850
v 0.097016 0.257395 0.235303
v 0.094925 0.263590 0.237322
v 0.093201 0.269363 0.240268
v 0.092014 0.274150 0.243853
v 0.091480 0.277482 0.247727
v -0.092713 0.284585 0.334555
v -0.041836 0.201806 0.226037
v 1.330160 0.401333 0.121189
v 1.331367 0.450766 0.082800
v 1.500543 0.367433 0.085283
v 1.500543 0.400560 0.059172
v 1.500543 0.419020 0.021149
v 1.500543 0.363596 0.077177
v 1.500543 0.393575 0.053548
v 1.500543 0.410280 0.019139
v 1.275933 0.331264 0.032729
v 1.275933 0.343977 0.022709
v 1.275933 0.351061 0.008117
v 1.500543 0.326528 0.095803
v 1.500543 0.326332 0.086695
v 1.275933 0.315387 0.036766
v 1.328494 0.332230 0.130340
v 1.500543 0.284541 0.087597
v 1.500543 0.288296 0.079339
v 1.275933 0.299169 0.033646
v 1.489673 0.641423 0.036959
v 1.345374 0.419659 0.202858
v 1.357724 0.463903 0.153379
v 1.409222 0.551419 0.092264
v 1.337475 0.392003 0.252499
v 1.330905 0.430050 0.105728
v 1.331828 0.467243 0.057144
v 1.331982 0.475996 0.029018
v 1.343709 0.265499 0.412016
v 1.326551 0.334139 0.147775
v 1.473960 0.632240 0.000000
v 1.424062 0.579589 0.026854
v 1.396209 0.548965 0.043965
v 1.348950 0.473809 0.090683
v 1.333219 0.418052 0.132356
v 1.370716 0.515932 0.063746
v 1.318393 0.341870 0.227769
v -0.829113 0.104455 0.113517
v -1.672913 0.036401 0.083797
v -1.091542 0.083468 0.113517
v -1.456975 0.052619 0.100374
v -2.168195 0.013971 0.019171
v -1.979247 0.018696 0.046492
v -1.778550 0.029527 0.072224
v -1.885371 0.023390 0.059027
v -0.677716 0.115538 0.113517
v 0.261400 0.243921 0.113517
v -0.342293 0.140726 0.113517
v 0.129730 0.204172 0.113517
v -0.011877 0.176844 0.113517
v -0.165906 0.156970 0.113517
v -0.526318 0.127768 0.113517
v -0.829113 0.104455 0.000000
v -1.091542 0.083468 0.000000
v -1.456975 0.052619 0.000000
v -2.158519 0.018156 0.030180
v -1.778550 0.029527 0.000000
v 0.261400 0.243921 0.000000
v -0.342293 0.140726 0.000000
v 0.129730 0.204172 0.000000
v -0.526318 0.127768 0.000000
v -0.821155 0.137815 0.194658
v -1.679960 0.046263 0.117956
v -1.089986 0.108829 0.185784
v -1.464399 0.067255 0.147244
v -1.970937 0.025648 0.068463
v -1.780542 0.038968 0.101480
v -1.881982 0.031698 0.084058
v -0.680963 0.151295 0.187838
v 0.256929 0.246909 0.169877
v -0.356837 0.172354 0.177793
v 0.112630 0.221184 0.173939
v -0.037234 0.202370 0.178081
v -0.190944 0.186690 0.177959
v -0.526854 0.157201 0.177512
v 0.107471 0.279996 0.364901
v 0.423188 0.271147 0.422274
v 0.663382 0.241282 0.480391
v 0.844402 0.212380 0.520339
v 0.265926 0.286517 0.394664
v 0.544998 0.256036 0.455508
v 1.023099 0.185333 0.553703
v 1.202255 0.161115 0.583874
v 1.300291 0.209959 0.580096
v 1.221460 0.178017 0.600407
v 1.301862 0.178206 0.579624
v 1.327524 0.383984 0.165931
v 1.323061 0.359058 0.199471
v 1.331745 0.371765 -0.311276
v 0.490464 0.364077 -0.306995
v -0.601999 0.331306 -0.307462
v -0.808958 0.300639 -0.307462
v -1.693188 0.132571 -0.160033
v -1.479352 0.178612 -0.205173
v -1.087768 0.255217 -0.279504
v -1.511357 0.355597 -0.056511
v -1.087768 0.425214 -0.125812
v -0.636615 0.525129 -0.145725
v -0.536762 0.339897 -0.307462
v -0.477292 0.346017 -0.307284
v -0.336837 0.353720 -0.306779
v -0.551615 0.574127 -0.108124
v -0.498333 0.627384 -0.058175
v -0.740985 0.488807 -0.156838
v 0.488484 0.528705 -0.145789
v -0.634122 0.500616 -0.168974
v -0.544434 0.512754 -0.172217
v -0.483616 0.519431 -0.173968
v -0.400633 0.524427 -0.171409
v 0.488248 0.456674 -0.226134
v -2.140382 0.046721 -0.039134
v -0.814428 0.210007 -0.274940
v -2.145562 0.032225 -0.036708
v -1.688205 0.081127 -0.151585
v -1.088775 0.165734 -0.266944
v -1.473663 0.110814 -0.196987
v 0.674799 0.364731 -0.307832
v 0.772279 0.364708 -0.308562
v 0.948567 0.364447 -0.310053
v 1.157126 0.364138 -0.311817
v 0.785907 0.563538 -0.043443
v 0.992371 0.544150 -0.079174
v 1.212037 0.515652 -0.111482
v 0.682014 0.518000 -0.140814
v 0.792948 0.512929 -0.136570
v 0.983937 0.502178 -0.131296
v 1.212878 0.498573 -0.138542
v 0.680142 0.468123 -0.207978
v 0.788440 0.473537 -0.195887
v 0.979547 0.482318 -0.174020
v 1.208266 0.490524 -0.151666
v 0.123291 0.280959 -0.478291
v 0.433742 0.228076 -0.568983
v 1.209586 0.017208 -0.846523
v 1.309302 0.003886 -0.865492
v 1.500846 -0.000196 -0.876499
v 1.525321 0.038045 -0.842847
v 1.332999 0.032832 -0.836728
v 1.207150 0.055891 -0.790838
v 0.457610 0.270045 -0.500200
v 0.099667 0.336331 -0.408420
v -0.340476 0.313710 -0.372618
v 0.278722 0.260603 -0.521190
v 0.820840 0.121879 -0.709515
v 0.832380 0.173166 -0.645519
v 0.278639 0.308287 -0.454310
v -0.118757 0.351206 -0.357877
v 1.366683 0.313548 -0.410456
v 1.492939 0.121901 -0.750216
v 1.365117 0.119776 -0.750216
v 1.235771 0.300142 -0.409977
v 0.644995 0.221606 -0.572860
v 0.627795 0.175716 -0.638301
v 1.014031 0.067364 -0.780783
v 1.019765 0.114529 -0.718178
v 0.551303 0.245826 -0.536530
v 0.531236 0.202485 -0.602680
v -0.061295 0.358650 -0.306767
v 0.204760 0.434768 -0.249439
v -0.111565 0.531602 -0.156805
v 0.187628 0.533469 -0.146276
v 0.076640 0.360528 -0.306712
v 0.037607 0.533994 -0.150105
v -0.528398 0.235783 -0.246696
v -0.706900 0.304260 -0.316107
v -0.605099 0.307992 -0.326645
v -0.538938 0.310630 -0.335651
v -0.470208 0.313474 -0.347379
v -0.116000 0.300955 -0.420629
v 1.329416 0.369995 -0.129282
v -0.375407 0.246594 -0.247291
v 1.482539 0.093935 -0.753200
v 1.237078 0.261162 -0.407627
v 1.366647 0.095250 -0.751622
v 1.310252 0.313399 -0.303328
v 1.192551 0.323709 -0.236204
v -0.467269 0.108697 -0.202466
v -0.420385 0.036415 -0.116219
v 1.348559 0.252330 -0.109787
v 1.347620 0.213859 -0.062125
v 0.929342 0.140036 -0.084271
v 0.478707 0.101298 -0.103405
v 0.028034 0.059158 -0.116334
v 0.910782 0.205115 -0.149608
v 0.448508 0.170796 -0.181679
v -0.014246 0.135398 -0.203594
v 1.500543 0.306424 -0.085226
v 1.500543 0.271962 -0.068266
v 1.500543 0.247909 -0.037801
v 1.500543 0.345422 -0.084128
v 1.500543 0.380195 -0.067686
v 1.500543 0.404393 -0.037648
v -0.121439 0.051579 -0.116298
v -0.270912 0.043997 -0.116260
v -0.165252 0.126497 -0.203217
v -0.316260 0.117597 -0.202842
v -0.222416 0.257404 -0.247886
v 1.211116 0.187475 -0.071441
v 1.070215 0.163760 -0.077874
v 0.779130 0.127134 -0.090656
v 0.628918 0.114221 -0.097034
v 0.328480 0.087253 -0.107719
v 0.178256 0.073206 -0.112029
v 1.202261 0.238875 -0.127495
v 1.056569 0.222012 -0.138459
v 0.756709 0.193678 -0.160292
v 0.602618 0.182239 -0.170982
v 0.294263 0.159000 -0.188984
v 0.140012 0.147200 -0.196289
v 0.772761 0.584013 -0.017691
v 0.962003 0.594384 -0.043682
v 1.176748 0.605887 -0.065228
v 1.372990 0.613009 -0.074409
v 1.421113 0.602429 -0.076402
v 1.530993 0.709818 -0.009436
v 0.979378 0.565668 -0.065804
v 1.194116 0.561005 -0.090311
v 1.371989 0.553022 -0.105562
v -1.509820 0.357573 -0.048943
v -1.086998 0.427359 -0.117619
v -0.639079 0.525233 -0.137235
v -0.547620 0.575569 -0.115901
v -0.493237 0.629764 -0.064763
v -0.739919 0.487579 -0.165391
v -0.602887 0.268789 -0.298970
v -0.686151 0.231097 -0.270225
v -0.282412 0.304514 -0.319740
v -0.528713 0.290134 -0.302319
v 0.091650 0.279034 -0.251510
v -0.405562 0.297324 -0.311029
v 0.412634 0.286318 -0.275564
v 0.709345 0.298069 -0.276436
v 1.259455 0.161235 -0.586930
v 0.778499 0.405761 -0.237844
v 0.963576 0.410162 -0.219650
v 1.185083 0.410321 -0.207829
v -0.075220 0.409341 -0.268187
v -1.953225 0.082651 -0.089732
v -0.752546 0.458894 -0.194923
v -0.777666 0.395820 -0.248979
v 0.489042 0.497785 -0.201660
v 0.488918 0.518100 -0.171992
v -0.618890 0.426598 -0.249799
v -0.629540 0.480894 -0.192946
v -0.541275 0.438413 -0.250209
v -0.543454 0.493240 -0.195017
v -0.480680 0.446385 -0.249001
v -0.482714 0.500734 -0.196008
v -0.371338 0.457839 -0.242698
v -0.392150 0.506886 -0.192436
v -1.727913 0.287099 -0.046334
v -1.716650 0.232474 -0.101159
v -1.506351 0.325642 -0.103350
v -1.497371 0.271304 -0.153523
v -1.090077 0.398760 -0.162774
v -1.090875 0.342686 -0.219146
v 0.681404 0.499192 -0.186469
v 0.681749 0.512369 -0.160514
v 0.790351 0.498377 -0.176259
v 0.791535 0.506739 -0.154707
v 0.981078 0.492161 -0.150515
v 0.982579 0.497625 -0.140720
v 1.211561 0.496859 -0.144257
v 0.052926 0.479747 -0.218842
v 0.043269 0.523058 -0.175125
v -0.090855 0.471539 -0.225321
v -0.104348 0.519281 -0.180607
v 0.197541 0.485775 -0.212215
v 0.191820 0.522600 -0.172505
v -0.796950 0.336356 -0.285885
v -1.702599 0.178444 -0.135507
v -1.486775 0.219029 -0.186004
v -1.089307 0.289213 -0.257991
v 0.488914 0.472924 -0.219058
v -0.608773 0.374370 -0.289032
v -0.538520 0.385693 -0.288060
v -0.478476 0.394103 -0.284948
v -0.353936 0.409880 -0.276434
v 0.680518 0.479887 -0.201246
v 0.788688 0.482496 -0.188158
v 0.979850 0.486975 -0.165423
v 0.061273 0.440784 -0.248112
v -0.079370 0.429105 -0.255214
v 0.202602 0.452006 -0.238353
v -1.959497 0.051963 -0.085204
v -1.782860 0.115356 -0.135790
v -1.873536 0.097949 -0.111275
v -1.803243 0.199696 -0.087360
v -1.890237 0.165154 -0.072661
v -1.812584 0.246940 -0.039516
v -1.897740 0.203801 -0.032613
v -1.790512 0.152553 -0.116171
v -1.879311 0.125334 -0.095103
v -1.782218 0.070942 -0.128635
v -1.876878 0.060792 -0.105509
v 0.783473 0.441315 -0.211230
v 0.972241 0.451476 -0.187062
v 1.201045 0.456640 -0.167930
v 0.773256 0.379428 -0.272747
v 0.954661 0.380575 -0.263139
v 1.169318 0.380038 -0.258252
v -1.967522 0.137433 -0.060152
v -1.973373 0.168360 -0.026634
v -1.958177 0.104083 -0.077121
v -2.140663 0.076926 -0.020752
v -2.144938 0.091072 -0.006604
v -2.139262 0.061386 -0.031459
v 0.064427 0.423445 -0.258540
v 0.214581 0.361928 -0.306654
v 0.675073 0.403260 -0.247705
v 0.676961 0.435935 -0.224160
v 0.674175 0.378551 -0.277459
v 0.490135 0.400293 -0.259074
v 0.489827 0.427567 -0.239892
v 0.489763 0.377527 -0.282661
v -0.347685 0.381045 -0.284346
v -0.477341 0.362405 -0.295253
v -0.536953 0.351728 -0.299888
v -0.603230 0.339234 -0.303215
v -0.602897 0.336440 -0.303370
v -0.602616 0.334414 -0.304008
v -0.602315 0.332721 -0.305429
v 0.207275 0.414297 -0.261147
v 0.209757 0.395230 -0.274583
v 0.212215 0.377134 -0.290497
v -0.477186 0.347504 -0.303049
v -0.477194 0.351407 -0.299095
v -0.477264 0.356465 -0.296827
v -0.536760 0.341664 -0.304525
v -0.536800 0.344304 -0.302085
v -0.536868 0.347578 -0.300708
v -0.344909 0.371848 -0.288440
v -0.342145 0.363340 -0.293141
v -0.339393 0.355731 -0.299904
v 0.067499 0.406880 -0.269403
v 0.070559 0.390820 -0.280700
v 0.073606 0.375420 -0.293489
v -0.071730 0.395787 -0.276572
v -0.068246 0.382767 -0.285422
v -0.064768 0.370442 -0.295862
v -0.441153 0.066346 -0.166086
v -0.409559 0.020433 -0.059978
v 1.348014 0.229984 -0.088352
v 1.347359 0.203136 -0.033288
v 0.009267 0.090924 -0.166787
v 0.465245 0.130288 -0.148524
v 0.920941 0.167692 -0.122134
v 0.037768 0.042239 -0.060020
v 0.485731 0.085811 -0.053211
v 0.933623 0.125569 -0.043572
v 1.500543 0.258216 -0.054362
v 1.500543 0.241515 -0.019371
v 0.635027 0.099059 -0.049996
v 0.784324 0.112312 -0.046783
v 0.187090 0.056762 -0.057748
v 0.336412 0.071286 -0.055478
v -0.260450 0.027701 -0.059991
v -0.111341 0.034970 -0.060005
v 0.617139 0.142754 -0.139722
v 0.769037 0.155222 -0.130925
v 0.161258 0.104043 -0.160696
v 0.313251 0.117165 -0.154609
v -0.291013 0.074538 -0.166318
v -0.140873 0.082731 -0.166552
v 0.584522 0.240985 -0.195982
v -0.194692 0.188849 -0.231290
v 1.049107 0.263003 -0.155176
v 1.064033 0.188387 -0.112823
v 1.207144 0.209079 -0.103515
v 1.073404 0.150781 -0.040119
v 1.213176 0.175998 -0.036671
v -0.498717 0.169081 -0.230228
v 0.424810 0.240652 -0.210254
v 0.899664 0.254373 -0.169077
v -0.346705 0.178965 -0.230759
v -0.470287 0.235611 -0.226016
v -0.414278 0.119168 -0.185491
v -0.371320 0.052939 -0.106466
v -0.390349 0.080364 -0.152157
v -0.361401 0.038296 -0.054935
v -0.443092 0.174495 -0.210927
v 0.209762 0.243407 -0.097615
v 0.233959 0.193100 -0.080107
v 0.252518 0.164488 -0.045966
v 0.244297 0.176336 -0.065706
v 0.256804 0.158161 -0.023703
v 0.221511 0.217003 -0.091096
v 1.500543 0.304831 -0.094182
v 1.500543 0.266292 -0.075286
v 1.500543 0.251132 -0.059953
v 1.500543 0.239765 -0.041688
v 1.500543 0.232713 -0.021363
v 1.500543 0.347369 -0.092964
v 1.500543 0.385795 -0.074795
v 1.500543 0.412534 -0.041602
v 1.275933 0.307018 -0.036143
v 1.275933 0.292403 -0.028950
v 1.275933 0.286574 -0.023054
v 1.275933 0.282203 -0.016031
v 1.275933 0.279491 -0.008215
v 1.275933 0.323635 -0.035677
v 1.275933 0.338382 -0.028704
v 1.275933 0.348643 -0.015966
v 1.448761 0.596663 -0.064869
v 1.373448 0.500703 -0.124144
v 0.249394 0.286069 -0.231549
v -0.069426 0.268215 -0.248480
v 0.089984 0.277142 -0.240015
v 0.253129 0.284532 -0.268137
v 0.875881 0.305388 -0.267606
v 0.561502 0.292363 -0.278998
v 0.261589 0.248662 -0.222669
v 0.879698 0.307910 -0.241473
v 0.884471 0.303302 -0.216275
v 0.889733 0.292016 -0.194477
v 0.894968 0.275156 -0.178213
v 0.420052 0.257021 -0.216787
v 0.416134 0.270937 -0.227818
v 0.413440 0.281040 -0.242266
v 0.412234 0.286340 -0.258719
v 1.327572 0.295259 -0.123126
v 1.321709 0.347115 -0.198489
v 1.324520 0.344451 -0.170925
v 1.327603 0.317189 -0.131304
v 0.252572 0.283176 -0.256396
v 0.253263 0.278291 -0.244935
v 0.255134 0.270355 -0.234876
v 0.258003 0.260146 -0.227204
v 1.197608 0.272812 -0.142649
v 1.192278 0.326038 -0.211719
v 1.192722 0.321343 -0.187964
v 1.193841 0.310083 -0.167267
v 1.195525 0.293360 -0.151652
v 1.034996 0.312202 -0.255787
v 1.036550 0.315012 -0.229245
v 1.039008 0.310767 -0.203589
v 1.042130 0.299883 -0.181330
v 1.045610 0.283424 -0.164649
v 0.742771 0.245772 -0.181687
v 0.737031 0.266281 -0.190603
v 0.730125 0.283146 -0.206310
v 0.722730 0.294716 -0.227272
v 0.715570 0.299858 -0.251436
v 0.564292 0.293107 -0.257150
v 0.568436 0.287522 -0.236007
v 0.573529 0.276156 -0.217641
v 0.579072 0.260120 -0.203850
v 0.097016 0.257395 -0.235303
v 0.094925 0.263590 -0.237322
v 0.093201 0.269363 -0.240268
v 0.092014 0.274150 -0.243853
v 0.091480 0.277482 -0.247727
v -0.092713 0.284585 -0.334555
v -0.041836 0.201806 -0.226037
v 1.330160 0.401333 -0.121189
v 1.331367 0.450766 -0.082800
v 1.500543 0.367433 -0.085283
v 1.500543 0.400560 -0.059172
v 1.500543 0.419020 -0.021149
v 1.500543 0.363596 -0.077177
v 1.500543 0.393575 -0.053548
v 1.500543 0.410280 -0.019139
v 1.275933 0.331264 -0.032729
v 1.275933 0.343977 -0.022709
v 1.275933 0.351061 -0.008117
v 1.500543 0.326528 -0.095803
v 1.500543 0.326332 -0.086695
v 1.275933 0.315387 -0.036766
v 1.328494 0.332230 -0.130340
v 1.500543 0.284541 -0.087597
v 1.500543 0.288296 -0.079339
v 1.275933 0.299169 -0.033646
v 1.489673 0.641423 -0.036959
v 1.345374 0.419659 -0.202858
v 1.357724 0.463903 -0.153379
v 1.409222 0.551419 -0.092264
v 1.337475 0.392003 -0.252499
v 1.330905 0.430050 -0.105728
v 1.331828 0.467243 -0.057144
v 1.331982 0.475996 -0.029018
v 1.343709 0.265499 -0.412016
v 1.326551 0.334139 -0.147775
v 1.424062 0.579589 -0.026854
v 1.396209 0.548965 -0.043965
v 1.348950 0.473809 -0.090683
v 1.333219 0.418052 -0.132356
v 1.370716 0.515932 -0.063746
v 1.318393 0.341870 -0.227769
v -0.829113 0.104455 -0.113517
v -1.672913 0.036401 -0.083797
v -1.091542 0.083468 -0.113517
v -1.456975 0.052619 -0.100374
v -2.168195 0.013971 -0.019171
v -1.979247 0.018696 -0.046492
v -1.778550 0.029527 -0.072224
v -1.885371 0.023390 -0.059027
v -0.677716 0.115538 -0.113517
v 0.261400 0.243921 -0.113517
v -0.342293 0.140726 -0.113517
v 0.129730 0.204172 -0.113517
v -0.011877 0.176844 -0.113517
v -0.165906 0.156970 -0.113517
v -0.526318 0.127768 -0.113517
v -2.158519 0.018156 -0.030180
v -0.821155 0.137815 -0.194658
v -1.679960 0.046263 -0.117956
v -1.089986 0.108829 -0.185784
v -1.464399 0.067255 -0.147244
v -1.970937 0.025648 -0.068463
v -1.780542 0.038968 -0.101480
v -1.881982 0.031698 -0.084058
v -0.680963 0.151295 -0.187838
v 0.256929 0.246909 -0.169877
v -0.356837 0.172354 -0.177793
v 0.112630 0.221184 -0.173939
v -0.037234 0.202370 -0.178081
v -0.190944 0.186690 -0.177959
v -0.526854 0.157201 -0.177512
v 0.107471 0.279996 -0.364901
v 0.423188 0.271147 -0.422274
v 0.663382 0.241282 -0.480391
v 0.844402 0.212380 -0.520339
v 0.265926 0.286517 -0.394664
v 0.544998 0.256036 -0.455508
v 1.023099 0.185333 -0.553703
v 1.202255 0.161115 -0.583874
v 1.300291 0.209959 -0.580096
v 1.221460 0.178017 -0.600407
v 1.301862 0.178206 -0.579624
v 1.327524 0.383984 -0.165931
v 1.323061 0.359058 -0.199471
vt 0.845052 0.042717
vt 0.835526 0.045962
vt 0.832799 0.015218
vt 0.843598 0.013062
vt 0.294802 0.610794
vt 0.293593 0.644401
vt 0.286563 0.647398
vt 0.288061 0.610780
vt 0.300927 0.768623
vt 0.304678 0.808107
vt 0.295371 0.807901
vt 0.292944 0.768597
vt 0.295593 0.696668
vt 0.288530 0.697272
vt 0.284394 0.158086
vt 0.267224 0.208652
vt 0.240831 0.199078
vt 0.256429 0.146411
vt 0.399561 0.961652
vt 0.405027 0.938554
vt 0.445766 0.934473
vt 0.445766 0.996738
vt 0.426222 0.859860
vt 0.443074 0.858097
vt 0.439765 0.817727
vt 0.646464 0.867642
vt 0.646389 0.817727
vt 0.689757 0.856265
vt 0.682675 0.874290
vt 0.198970 0.317559
vt 0.202316 0.322179
vt 0.175047 0.330838
vt 0.672833 0.889805
vt 0.646389 0.890521
vt 0.659961 0.899167
vt 0.646403 0.900021
vt 0.646454 0.906340
vt 0.288636 0.599011
vt 0.294943 0.598390
vt 0.289182 0.588460
vt 0.295021 0.587821
vt 0.289490 0.565612
vt 0.294857 0.565911
vt 0.298958 0.036544
vt 0.324639 0.046058
vt 0.319517 0.059818
vt 0.282917 0.039538
vt 0.314249 0.031168
vt 0.328337 0.035894
vt 0.328351 0.018858
vt 0.333941 0.020931
vt 0.340307 0.003262
vt 0.285549 0.469074
vt 0.281970 0.469704
vt 0.272565 0.420911
vt 0.275493 0.419824
vt 0.322991 0.842769
vt 0.330458 0.843496
vt 0.326095 0.857765
vt 0.320080 0.857232
vt 0.654874 0.811203
vt 0.658864 0.786154
vt 0.661402 0.785252
vt 0.663395 0.738207
vt 0.669826 0.737164
vt 0.667657 0.751645
vt 0.662354 0.752955
vt 0.677812 0.547778
vt 0.694921 0.544531
vt 0.686721 0.597223
vt 0.671066 0.598921
vt 0.667198 0.666567
vt 0.679006 0.666306
vt 0.674407 0.704424
vt 0.665398 0.704544
vt 0.655712 0.667091
vt 0.656966 0.704704
vt 0.656763 0.553597
vt 0.653624 0.601846
vt 0.657263 0.755581
vt 0.656303 0.788524
vt 0.263856 0.388994
vt 0.266009 0.387951
vt 0.256510 0.372847
vt 0.258104 0.371504
vt 0.236121 0.347104
vt 0.237089 0.345669
vt 0.202593 0.325120
vt 0.254517 0.241023
vt 0.238601 0.206001
vt 0.245869 0.259551
vt 0.229888 0.249934
vt 0.228641 0.289650
vt 0.218236 0.283964
vt 0.851124 0.112226
vt 0.844379 0.113231
vt 0.840278 0.082447
vt 0.848816 0.080316
vt 0.839009 0.452435
vt 0.848797 0.450656
vt 0.839844 0.483355
vt 0.831799 0.485428
vt 0.848145 0.543632
vt 0.854022 0.580023
vt 0.839631 0.577691
vt 0.834672 0.540502
vt 0.850547 0.709731
vt 0.850793 0.681064
vt 0.864595 0.685369
vt 0.864392 0.718209
vt 0.842208 0.507225
vt 0.830896 0.503376
vt 0.861502 0.634113
vt 0.863983 0.652151
vt 0.849184 0.651973
vt 0.847152 0.633382
vt 0.868452 0.462059
vt 0.862152 0.483664
vt 0.881046 0.516556
vt 0.890983 0.504791
vt 0.919865 0.525863
vt 0.935519 0.545163
vt 0.927841 0.504106
vt 0.945349 0.515998
vt 0.859008 0.616079
vt 0.844661 0.614829
vt 0.916175 0.610113
vt 0.925022 0.580355
vt 0.911266 0.626560
vt 0.901870 0.657622
vt 0.287430 0.517712
vt 0.291656 0.517698
vt 0.289074 0.493362
vt 0.285479 0.493616
vt 0.302135 0.107898
vt 0.270179 0.093293
vt 0.293144 0.132838
vt 0.263520 0.119951
vt 0.887860 0.704134
vt 0.880793 0.727445
vt 0.873531 0.750666
vt 0.861812 0.757584
vt 0.858662 0.796895
vt 0.843736 0.841299
vt 0.830896 0.875824
vt 0.834765 0.858200
vt 0.838446 0.840544
vt 0.847689 0.830419
vt 0.840667 0.828978
vt 0.842698 0.816846
vt 0.851126 0.820480
vt 0.845445 0.793727
vt 0.695358 0.487835
vt 0.684610 0.516416
vt 0.685833 0.470232
vt 0.693824 0.457221
vt 0.848327 0.753251
vt 0.663683 0.525031
vt 0.668810 0.400824
vt 0.664955 0.355680
vt 0.675829 0.371380
vt 0.686643 0.423627
vt 0.650741 0.099763
vt 0.694581 0.093309
vt 0.685660 0.128486
vt 0.649334 0.131364
vt 0.700428 0.456664
vt 0.674230 0.014438
vt 0.700148 0.007130
vt 0.703395 0.040049
vt 0.677013 0.034230
vt 0.595646 0.058655
vt 0.614556 0.049679
vt 0.616615 0.067802
vt 0.586750 0.081129
vt 0.696284 0.855712
vt 0.701293 0.853211
vt 0.702577 0.888695
vt 0.696281 0.891469
vt 0.928894 0.420081
vt 0.928894 0.397571
vt 0.933816 0.399484
vt 0.933224 0.419885
vt 0.690907 0.004044
vt 0.669952 0.011535
vt 0.539750 0.092486
vt 0.532818 0.093821
vt 0.529632 0.074167
vt 0.536205 0.072412
vt 0.553497 0.089035
vt 0.546505 0.090921
vt 0.541963 0.069943
vt 0.547421 0.066652
vt 0.566455 0.084975
vt 0.560226 0.086939
vt 0.552529 0.062515
vt 0.561141 0.057154
vt 0.627401 0.295436
vt 0.612540 0.291383
vt 0.628836 0.269833
vt 0.616710 0.242114
vt 0.598156 0.240338
vt 0.591538 0.214539
vt 0.605785 0.215126
vt 0.588309 0.162148
vt 0.578190 0.162675
vt 0.571693 0.136725
vt 0.580992 0.135735
vt 0.605710 0.311263
vt 0.592677 0.308537
vt 0.587844 0.286433
vt 0.600218 0.288308
vt 0.587592 0.239199
vt 0.576936 0.238575
vt 0.571640 0.213622
vt 0.581630 0.213902
vt 0.569455 0.162844
vt 0.560673 0.163130
vt 0.555283 0.137932
vt 0.563503 0.137321
vt 0.580245 0.307989
vt 0.567852 0.309220
vt 0.564227 0.287543
vt 0.576043 0.286271
vt 0.566735 0.238978
vt 0.556508 0.240274
vt 0.552481 0.215442
vt 0.562071 0.214169
vt 0.552518 0.163867
vt 0.544326 0.165036
vt 0.540261 0.139881
vt 0.547799 0.138774
vt 0.526520 0.054450
vt 0.529278 0.053810
vt 0.531860 0.052603
vt 0.534162 0.050871
vt 0.532041 0.029707
vt 0.528979 0.028378
vt 0.535003 0.004581
vt 0.543252 0.008014
vt 0.536885 0.034004
vt 0.534825 0.031543
vt 0.550726 0.013431
vt 0.557045 0.021321
vt 0.538803 0.039872
vt 0.538341 0.036840
vt 0.561211 0.030903
vt 0.562899 0.043682
vt 0.525605 0.027872
vt 0.526647 0.003262
vt 0.548408 0.190287
vt 0.557270 0.189069
vt 0.560442 0.264436
vt 0.571428 0.263129
vt 0.586073 0.347407
vt 0.574528 0.348402
vt 0.571306 0.329384
vt 0.583765 0.328248
vt 0.566104 0.188429
vt 0.575461 0.188427
vt 0.582389 0.262944
vt 0.593854 0.264057
vt 0.608428 0.351252
vt 0.597384 0.348190
vt 0.596273 0.329125
vt 0.609328 0.332591
vt 0.584755 0.188646
vt 0.596497 0.188594
vt 0.605228 0.265912
vt 0.628561 0.363493
vt 0.618150 0.356292
vt 0.622364 0.338867
vt 0.637723 0.352170
vt 0.618744 0.315859
vt 0.634471 0.323657
vt 0.565923 0.111941
vt 0.573650 0.110560
vt 0.550815 0.114142
vt 0.558439 0.113061
vt 0.536470 0.116413
vt 0.543685 0.115245
vt 0.880366 0.882348
vt 0.886953 0.883714
vt 0.879866 0.908405
vt 0.878779 0.908135
vt 0.582688 0.058583
vt 0.969379 0.185815
vt 0.962196 0.143652
vt 0.966472 0.145185
vt 0.956702 0.110414
vt 0.966074 0.114039
vt 0.951370 0.072738
vt 0.968035 0.076611
vt 0.947009 0.038415
vt 0.969379 0.034719
vt 0.941986 0.070948
vt 0.935263 0.040236
vt 0.949987 0.108170
vt 0.956210 0.141895
vt 0.944200 0.030206
vt 0.935022 0.033267
vt 0.943257 0.024920
vt 0.945258 0.106503
vt 0.966441 0.005192
vt 0.967837 0.010300
vt 0.963781 0.008137
vt 0.964846 0.003262
vt 0.962358 0.003567
vt 0.968800 0.019486
vt 0.951465 0.016490
vt 0.932810 0.069073
vt 0.925547 0.041319
vt 0.769156 0.341236
vt 0.805203 0.408627
vt 0.794248 0.409372
vt 0.758064 0.341931
vt 0.826275 0.443210
vt 0.816145 0.444132
vt 0.726128 0.250957
vt 0.734148 0.267638
vt 0.722930 0.268176
vt 0.714911 0.251529
vt 0.719676 0.236162
vt 0.708577 0.236877
vt 0.711155 0.223704
vt 0.700154 0.223704
vt 0.740221 0.286177
vt 0.728997 0.286644
vt 0.645601 0.390594
vt 0.647400 0.163565
vt 0.609825 0.162866
vt 0.602516 0.134626
vt 0.650827 0.334491
vt 0.648602 0.234462
vt 0.652599 0.263535
vt 0.634112 0.270002
vt 0.627902 0.241350
vt 0.645976 0.206486
vt 0.621383 0.213724
vt 0.647043 0.184536
vt 0.615771 0.188094
vt 0.650731 0.058418
vt 0.651981 0.068235
vt 0.675743 0.304879
vt 0.660037 0.303503
vt 0.595141 0.107679
vt 0.703395 0.485673
vt 0.699362 0.519506
vt 0.866886 0.075173
vt 0.857830 0.077666
vt 0.855000 0.038755
vt 0.865367 0.034741
vt 0.866352 0.108726
vt 0.858661 0.110404
vt 0.853413 0.010564
vt 0.864766 0.007007
vt 0.319551 0.633685
vt 0.326595 0.630866
vt 0.329128 0.693687
vt 0.321146 0.694436
vt 0.315891 0.890461
vt 0.314496 0.890094
vt 0.305420 0.639536
vt 0.307191 0.695656
vt 0.317632 0.518685
vt 0.312763 0.518253
vt 0.308699 0.492149
vt 0.313612 0.492075
vt 0.301008 0.518015
vt 0.297760 0.492879
vt 0.302511 0.466256
vt 0.307524 0.465579
vt 0.293047 0.467872
vt 0.323326 0.569768
vt 0.318326 0.569034
vt 0.305534 0.567317
vt 0.240295 0.339814
vt 0.239440 0.341478
vt 0.202385 0.323290
vt 0.238520 0.343253
vt 0.265883 0.363817
vt 0.263553 0.366272
vt 0.260649 0.369107
vt 0.277535 0.381843
vt 0.274352 0.383560
vt 0.269815 0.385967
vt 0.291264 0.414388
vt 0.286541 0.415993
vt 0.280542 0.418073
vt 0.324443 0.584681
vt 0.319385 0.585182
vt 0.306122 0.586625
vt 0.325234 0.595666
vt 0.319955 0.596084
vt 0.306323 0.597359
vt 0.325920 0.611862
vt 0.320408 0.611568
vt 0.306438 0.611157
vt 0.334815 0.770220
vt 0.325012 0.769530
vt 0.311910 0.769039
vt 0.340307 0.811108
vt 0.329909 0.810072
vt 0.316183 0.809017
vt 0.304771 0.824590
vt 0.314729 0.825397
vt 0.305248 0.856057
vt 0.312016 0.856557
vt 0.310932 0.889564
vt 0.307602 0.889710
vt 0.297242 0.824462
vt 0.657362 0.740045
vt 0.664469 0.721299
vt 0.657287 0.722271
vt 0.313117 0.841990
vt 0.299164 0.841166
vt 0.304855 0.841348
vt 0.326655 0.826303
vt 0.335455 0.827251
vt 0.307676 0.917028
vt 0.672223 0.720750
vt 0.871828 0.032829
vt 0.872649 0.003262
vt 0.872539 0.107308
vt 0.872649 0.073380
vt 0.300789 0.855848
vt 0.304750 0.890343
vt 0.866192 0.127646
vt 0.859171 0.128713
vt 0.852421 0.129651
vt 0.866854 0.160739
vt 0.861010 0.161304
vt 0.855281 0.162014
vt 0.872455 0.126490
vt 0.872522 0.160461
vt 0.846571 0.130233
vt 0.850403 0.162450
vt 0.869234 0.259967
vt 0.868849 0.235347
vt 0.872375 0.235507
vt 0.872091 0.260263
vt 0.859692 0.210710
vt 0.861791 0.235039
vt 0.858247 0.234891
vt 0.855763 0.210729
vt 0.870019 0.308291
vt 0.871835 0.308575
vt 0.867948 0.342564
vt 0.867344 0.342594
vt 0.866891 0.332094
vt 0.867676 0.332005
vt 0.869619 0.331797
vt 0.870696 0.331687
vt 0.867672 0.354206
vt 0.866594 0.354190
vt 0.869986 0.354234
vt 0.869198 0.354231
vt 0.869202 0.342428
vt 0.869941 0.342325
vt 0.868327 0.354220
vt 0.868580 0.342500
vt 0.865131 0.307383
vt 0.866428 0.307718
vt 0.868263 0.308002
vt 0.868648 0.331898
vt 0.860639 0.259064
vt 0.863516 0.259370
vt 0.866410 0.259667
vt 0.872263 0.210682
vt 0.868088 0.210672
vt 0.865353 0.235188
vt 0.863957 0.210676
vt 0.867548 0.391047
vt 0.642293 0.388993
vt 0.649997 0.334151
vt 0.628169 0.373010
vt 0.536080 0.048650
vt 0.459625 0.853279
vt 0.456774 0.843167
vt 0.466607 0.844940
vt 0.469141 0.854586
vt 0.454033 0.830747
vt 0.464168 0.833311
vt 0.463990 0.883614
vt 0.463573 0.873365
vt 0.472623 0.873872
vt 0.472942 0.883614
vt 0.462197 0.863393
vt 0.471414 0.864323
vt 0.452290 0.817727
vt 0.462517 0.821346
vt 0.579106 0.856788
vt 0.579829 0.861954
vt 0.580888 0.866968
vt 0.581982 0.871122
vt 0.583477 0.879424
vt 0.583615 0.883614
vt 0.582960 0.875313
vt 0.877114 0.403172
vt 0.880577 0.400628
vt 0.885322 0.398693
vt 0.890417 0.397571
vt 0.872867 0.414759
vt 0.873259 0.410584
vt 0.874591 0.406660
vt 0.890417 0.414759
vt 0.853087 0.424330
vt 0.855139 0.423299
vt 0.858605 0.428753
vt 0.855249 0.430440
vt 0.846108 0.424192
vt 0.848394 0.424738
vt 0.847643 0.431115
vt 0.843959 0.430235
vt 0.842173 0.421678
vt 0.843999 0.423155
vt 0.840560 0.428563
vt 0.837616 0.426184
vt 0.856969 0.421738
vt 0.858388 0.419901
vt 0.863781 0.423334
vt 0.861523 0.426270
vt 0.859356 0.417766
vt 0.859974 0.415547
vt 0.866343 0.416302
vt 0.865342 0.419889
vt 0.859923 0.413202
vt 0.859503 0.410923
vt 0.865582 0.408835
vt 0.866258 0.412518
vt 0.858439 0.408839
vt 0.857056 0.406964
vt 0.861630 0.402441
vt 0.863862 0.405471
vt 0.850750 0.424765
vt 0.851440 0.431158
vt 0.653557 0.925775
vt 0.652097 0.925759
vt 0.650681 0.925420
vt 0.649373 0.924777
vt 0.648241 0.923862
vt 0.657476 0.914733
vt 0.658323 0.915905
vt 0.658992 0.917187
vt 0.659243 0.918609
vt 0.659284 0.920052
vt 0.658891 0.921438
vt 0.658301 0.922751
vt 0.657403 0.923909
vt 0.656278 0.924867
vt 0.654986 0.925526
vt 0.867360 0.883927
vt 0.873806 0.882405
vt 0.877652 0.908076
vt 0.876540 0.908295
vt 0.856337 0.890789
vt 0.861478 0.886730
vt 0.875478 0.908712
vt 0.874547 0.909376
vt 0.902997 0.895973
vt 0.906151 0.902324
vt 0.882845 0.911553
vt 0.882428 0.910532
vt 0.907772 0.909214
vt 0.883026 0.912646
vt 0.907772 0.916319
vt 0.882946 0.913746
vt 0.906143 0.923263
vt 0.882610 0.914794
vt 0.902983 0.929661
vt 0.882041 0.915735
vt 0.893074 0.886491
vt 0.898670 0.890750
vt 0.881756 0.909646
vt 0.880879 0.908918
vt 0.608939 0.447248
vt 0.613245 0.441653
vt 0.619446 0.429555
vt 0.621690 0.449790
vt 0.671480 0.483883
vt 0.655171 0.457448
vt 0.646127 0.392542
vt 0.641907 0.300115
vt 0.633405 0.270143
vt 0.632477 0.270189
vt 0.631355 0.270143
vt 0.630111 0.270019
vt 0.625900 0.241849
vt 0.618503 0.214399
vt 0.623717 0.242157
vt 0.615471 0.214838
vt 0.621406 0.242283
vt 0.612306 0.215069
vt 0.619044 0.242253
vt 0.609057 0.215142
vt 0.582448 0.081745
vt 0.577873 0.058128
vt 0.578221 0.082370
vt 0.573332 0.057651
vt 0.574130 0.083065
vt 0.569119 0.057279
vt 0.570197 0.083906
vt 0.565158 0.057102
vt 0.611927 0.188392
vt 0.605340 0.162681
vt 0.608024 0.188505
vt 0.600875 0.162383
vt 0.604121 0.188510
vt 0.596521 0.162102
vt 0.600269 0.188504
vt 0.592331 0.161979
vt 0.590507 0.108305
vt 0.585976 0.108836
vt 0.581651 0.109334
vt 0.577561 0.109879
vt 0.597942 0.134877
vt 0.593445 0.135010
vt 0.589113 0.135121
vt 0.584975 0.135324
vt 0.642920 0.300166
vt 0.852193 0.895837
vt 0.873738 0.910190
vt 0.522194 0.027894
vt 0.518306 0.003822
vt 0.538320 0.042969
vt 0.537576 0.045988
vt 0.628954 0.876486
vt 0.631276 0.864409
vt 0.639865 0.863002
vt 0.638676 0.872520
vt 0.631287 0.855674
vt 0.639667 0.850450
vt 0.618264 0.915333
vt 0.623166 0.899150
vt 0.634595 0.887990
vt 0.630211 0.900882
vt 0.896941 0.421085
vt 0.898774 0.400000
vt 0.907837 0.397571
vt 0.907837 0.419299
vt 0.626068 0.887757
vt 0.636841 0.880433
vt 0.824585 0.927260
vt 0.822994 0.922019
vt 0.827301 0.919048
vt 0.827581 0.931402
vt 0.824489 0.933212
vt 0.823535 0.938895
vt 0.830425 0.939236
vt 0.828536 0.945992
vt 0.824064 0.946023
vt 0.820243 0.947643
vt 0.817433 0.950664
vt 0.821092 0.945124
vt 0.814794 0.908542
vt 0.829338 0.909765
vt 0.818125 0.912501
vt 0.840521 0.882348
vt 0.834935 0.894779
vt 0.820928 0.916907
vt 0.831972 0.902088
vt 0.837670 0.950300
vt 0.833227 0.947469
vt 0.834176 0.945572
vt 0.638199 0.842102
vt 0.628822 0.844034
vt 0.624587 0.834856
vt 0.618264 0.825862
vt 0.625730 0.817727
vt 0.633595 0.829656
vt 0.922370 0.420743
vt 0.915507 0.421229
vt 0.914360 0.402456
vt 0.922370 0.397571
vt 0.608401 0.544578
vt 0.606278 0.526211
vt 0.649402 0.505597
vt 0.643467 0.533556
vt 0.604084 0.508082
vt 0.640071 0.487642
vt 0.642989 0.451472
vt 0.630010 0.475705
vt 0.632295 0.450223
vt 0.621059 0.466580
vt 0.612311 0.458157
vt 0.593053 0.453718
vt 0.603712 0.449785
vt 0.596935 0.468058
vt 0.639746 0.725075
vt 0.652013 0.722927
vt 0.652981 0.741438
vt 0.642928 0.743187
vt 0.636593 0.707120
vt 0.650745 0.704642
vt 0.653607 0.757691
vt 0.645719 0.759077
vt 0.637990 0.559461
vt 0.611755 0.565072
vt 0.654577 0.790507
vt 0.651340 0.791082
vt 0.639906 0.604453
vt 0.619093 0.607384
vt 0.630121 0.670266
vt 0.647157 0.667332
vt 0.625071 0.416194
vt 0.634807 0.404820
vt 0.601393 0.492746
vt 0.598991 0.479956
vt 0.702538 0.057673
vt 0.677519 0.163502
vt 0.673882 0.180958
vt 0.671105 0.198498
vt 0.669294 0.226355
vt 0.670258 0.254940
vt 0.696281 0.819938
vt 0.700009 0.817727
vt 0.646923 0.051398
vt 0.635866 0.835085
vt 0.906769 0.042717
vt 0.908223 0.013062
vt 0.919023 0.015218
vt 0.916296 0.045962
vt 0.048768 0.610794
vt 0.055508 0.610780
vt 0.057007 0.647399
vt 0.049976 0.644401
vt 0.042643 0.768623
vt 0.050625 0.768597
vt 0.048199 0.807901
vt 0.038892 0.808107
vt 0.047976 0.696668
vt 0.055039 0.697272
vt 0.059175 0.158086
vt 0.087140 0.146411
vt 0.102738 0.199078
vt 0.076346 0.208652
vt 0.346831 0.852813
vt 0.393037 0.817727
vt 0.393037 0.879992
vt 0.352297 0.875911
vt 0.390345 0.956368
vt 0.373493 0.954605
vt 0.387036 0.996738
vt 0.753213 0.932263
vt 0.717002 0.938910
vt 0.709919 0.920885
vt 0.753287 0.882348
vt 0.144599 0.317559
vt 0.168523 0.330838
vt 0.141253 0.322179
vt 0.753287 0.955142
vt 0.726844 0.954426
vt 0.753274 0.964641
vt 0.739715 0.963787
vt 0.753223 0.970961
vt 0.048627 0.598390
vt 0.054933 0.599011
vt 0.048549 0.587821
vt 0.054387 0.588460
vt 0.048712 0.565911
vt 0.054080 0.565612
vt 0.044612 0.036545
vt 0.060653 0.039538
vt 0.024053 0.059818
vt 0.018931 0.046058
vt 0.029321 0.031168
vt 0.015233 0.035894
vt 0.015219 0.018858
vt 0.009628 0.020931
vt 0.003262 0.003262
vt 0.058021 0.469074
vt 0.068076 0.419824
vt 0.071004 0.420911
vt 0.061599 0.469704
vt 0.020579 0.842770
vt 0.023490 0.857232
vt 0.017474 0.857765
vt 0.013112 0.843496
vt 0.639894 0.789030
vt 0.642587 0.789013
vt 0.621988 0.745479
vt 0.627993 0.758990
vt 0.622561 0.759566
vt 0.615587 0.746691
vt 0.543492 0.571265
vt 0.567309 0.617126
vt 0.552006 0.620858
vt 0.526276 0.573983
vt 0.593999 0.679418
vt 0.608633 0.714512
vt 0.600122 0.717470
vt 0.582808 0.683195
vt 0.604978 0.675998
vt 0.616615 0.711789
vt 0.565335 0.569671
vt 0.584717 0.613942
vt 0.633675 0.759724
vt 0.645803 0.790369
vt 0.077561 0.387951
vt 0.079714 0.388994
vt 0.085465 0.371504
vt 0.087059 0.372847
vt 0.106480 0.345669
vt 0.107448 0.347104
vt 0.140976 0.325120
vt 0.104968 0.206001
vt 0.089053 0.241023
vt 0.113682 0.249934
vt 0.097700 0.259551
vt 0.125333 0.283964
vt 0.114929 0.289651
vt 0.900697 0.112225
vt 0.903006 0.080316
vt 0.911543 0.082447
vt 0.907443 0.113231
vt 0.718033 0.874045
vt 0.710822 0.841052
vt 0.718868 0.843125
vt 0.727820 0.875824
vt 0.727168 0.782848
vt 0.713695 0.785978
vt 0.718654 0.748789
vt 0.733045 0.746457
vt 0.729571 0.616749
vt 0.743415 0.608271
vt 0.743619 0.641111
vt 0.729816 0.645416
vt 0.721231 0.819255
vt 0.709919 0.823103
vt 0.740525 0.692367
vt 0.726175 0.693098
vt 0.728207 0.674507
vt 0.743006 0.674329
vt 0.747475 0.864421
vt 0.741175 0.842816
vt 0.760070 0.809924
vt 0.798888 0.800617
vt 0.770007 0.821689
vt 0.814542 0.781317
vt 0.824372 0.810482
vt 0.806864 0.822374
vt 0.723684 0.711651
vt 0.738031 0.710401
vt 0.795198 0.716367
vt 0.804045 0.746125
vt 0.790290 0.699920
vt 0.780894 0.668858
vt 0.051913 0.517698
vt 0.056140 0.517712
vt 0.054495 0.493362
vt 0.058091 0.493616
vt 0.073390 0.093293
vt 0.041435 0.107898
vt 0.050426 0.132838
vt 0.080049 0.119951
vt 0.766884 0.622346
vt 0.759816 0.599035
vt 0.740835 0.568896
vt 0.752554 0.575814
vt 0.737686 0.529585
vt 0.722759 0.485181
vt 0.713789 0.468280
vt 0.709919 0.450656
vt 0.717469 0.485936
vt 0.726712 0.496061
vt 0.730150 0.506000
vt 0.721721 0.509634
vt 0.719690 0.497502
vt 0.724469 0.532753
vt 0.506451 0.520251
vt 0.497967 0.490403
vt 0.509603 0.500484
vt 0.526332 0.543860
vt 0.727351 0.573229
vt 0.549006 0.545068
vt 0.504361 0.427756
vt 0.494501 0.455455
vt 0.487037 0.402969
vt 0.491577 0.384439
vt 0.422788 0.136613
vt 0.434065 0.166175
vt 0.398671 0.174860
vt 0.379134 0.144252
vt 0.491541 0.491937
vt 0.373737 0.062971
vt 0.377277 0.082636
vt 0.354047 0.096428
vt 0.346831 0.064132
vt 0.462138 0.080233
vt 0.477657 0.098762
vt 0.445123 0.095522
vt 0.441366 0.077672
vt 0.759814 0.918105
vt 0.759811 0.882348
vt 0.766107 0.885122
vt 0.764823 0.920606
vt 0.696281 0.897993
vt 0.700611 0.898190
vt 0.701203 0.918591
vt 0.696281 0.920504
vt 0.354647 0.058312
vt 0.376895 0.058877
vt 0.525818 0.094730
vt 0.522850 0.074532
vt 0.511693 0.095772
vt 0.510418 0.072574
vt 0.516620 0.073983
vt 0.518918 0.095364
vt 0.498124 0.096005
vt 0.494415 0.067901
vt 0.504276 0.070263
vt 0.504651 0.095903
vt 0.506423 0.315054
vt 0.497189 0.291171
vt 0.519408 0.306410
vt 0.499936 0.261045
vt 0.501787 0.231980
vt 0.515128 0.226920
vt 0.516996 0.253486
vt 0.501676 0.176171
vt 0.500303 0.148787
vt 0.509439 0.146794
vt 0.511445 0.173479
vt 0.532398 0.322830
vt 0.530214 0.299568
vt 0.541420 0.293887
vt 0.543995 0.316206
vt 0.526666 0.249067
vt 0.524330 0.223185
vt 0.533724 0.219764
vt 0.536585 0.245109
vt 0.519787 0.170883
vt 0.517399 0.144778
vt 0.525392 0.142766
vt 0.528212 0.168384
vt 0.555675 0.311858
vt 0.552599 0.290031
vt 0.546395 0.242271
vt 0.542978 0.217262
vt 0.536183 0.166511
vt 0.532759 0.141207
vt 0.523660 0.054649
vt 0.518057 0.053327
vt 0.520804 0.054269
vt 0.513425 0.032741
vt 0.495958 0.015665
vt 0.502701 0.009811
vt 0.515912 0.030508
vt 0.510188 0.038351
vt 0.487059 0.032623
vt 0.490573 0.023156
vt 0.511366 0.035370
vt 0.510219 0.044486
vt 0.488525 0.055672
vt 0.486113 0.043016
vt 0.509695 0.041489
vt 0.518952 0.028957
vt 0.510214 0.005923
vt 0.539615 0.191928
vt 0.549601 0.266655
vt 0.563182 0.350835
vt 0.559089 0.332025
vt 0.522150 0.197061
vt 0.531030 0.194109
vt 0.528595 0.274609
vt 0.539134 0.269934
vt 0.543012 0.360761
vt 0.536103 0.343661
vt 0.547454 0.336561
vt 0.552603 0.354825
vt 0.502236 0.203861
vt 0.513398 0.200203
vt 0.518373 0.279964
vt 0.527483 0.377506
vt 0.515122 0.370298
vt 0.525639 0.353360
vt 0.535229 0.368038
vt 0.508750 0.343942
vt 0.521352 0.331300
vt 0.499347 0.122570
vt 0.507113 0.121445
vt 0.514566 0.120149
vt 0.522141 0.118774
vt 0.529254 0.117576
vt 0.850598 0.927034
vt 0.873784 0.915633
vt 0.874452 0.916533
vt 0.854396 0.932585
vt 0.474411 0.076076
vt 0.925547 0.374892
vt 0.928453 0.334262
vt 0.932730 0.332729
vt 0.928851 0.303116
vt 0.938223 0.299491
vt 0.926890 0.265688
vt 0.943555 0.261815
vt 0.925547 0.223796
vt 0.947916 0.227492
vt 0.952939 0.260025
vt 0.959662 0.229313
vt 0.944938 0.297247
vt 0.938715 0.330972
vt 0.950725 0.219282
vt 0.951668 0.213997
vt 0.959903 0.222344
vt 0.949667 0.295580
vt 0.928484 0.194268
vt 0.931144 0.197214
vt 0.927088 0.199377
vt 0.930080 0.192339
vt 0.932567 0.192644
vt 0.926125 0.208562
vt 0.943460 0.205567
vt 0.962115 0.258150
vt 0.969379 0.230396
vt 0.769135 0.106161
vt 0.758044 0.105466
vt 0.794225 0.038024
vt 0.805180 0.038769
vt 0.816120 0.003262
vt 0.826275 0.004108
vt 0.726119 0.196446
vt 0.714902 0.195874
vt 0.722917 0.179225
vt 0.734136 0.179763
vt 0.719672 0.211243
vt 0.708572 0.210528
vt 0.740206 0.161223
vt 0.728982 0.160757
vt 0.524178 0.409237
vt 0.479527 0.154522
vt 0.481481 0.183641
vt 0.446038 0.196147
vt 0.497327 0.359891
vt 0.467243 0.263897
vt 0.489065 0.263871
vt 0.492238 0.293022
vt 0.472633 0.292822
vt 0.460913 0.236476
vt 0.486537 0.235581
vt 0.452983 0.215956
vt 0.483784 0.209472
vt 0.409806 0.097361
vt 0.411701 0.107073
vt 0.463842 0.339814
vt 0.478242 0.333375
vt 0.478046 0.126612
vt 0.498156 0.520823
vt 0.513494 0.551742
vt 0.884936 0.075173
vt 0.886455 0.034741
vt 0.896822 0.038755
vt 0.893992 0.077666
vt 0.885470 0.108726
vt 0.893160 0.110404
vt 0.887055 0.007007
vt 0.898408 0.010564
vt 0.024018 0.633685
vt 0.022423 0.694436
vt 0.014441 0.693687
vt 0.016974 0.630866
vt 0.029074 0.890094
vt 0.027678 0.890461
vt 0.036378 0.695656
vt 0.038150 0.639536
vt 0.025937 0.518685
vt 0.029957 0.492075
vt 0.034870 0.492149
vt 0.030806 0.518253
vt 0.045810 0.492879
vt 0.042561 0.518015
vt 0.036045 0.465579
vt 0.041058 0.466256
vt 0.050522 0.467872
vt 0.020244 0.569768
vt 0.025244 0.569034
vt 0.038035 0.567317
vt 0.103274 0.339814
vt 0.141185 0.323290
vt 0.104129 0.341478
vt 0.105049 0.343253
vt 0.077687 0.363817
vt 0.080017 0.366272
vt 0.082921 0.369107
vt 0.066034 0.381843
vt 0.069217 0.383560
vt 0.073754 0.385967
vt 0.052306 0.414388
vt 0.057028 0.415993
vt 0.063028 0.418073
vt 0.019126 0.584681
vt 0.024185 0.585182
vt 0.037448 0.586625
vt 0.018336 0.595666
vt 0.023614 0.596084
vt 0.037246 0.597359
vt 0.017649 0.611862
vt 0.023161 0.611568
vt 0.037132 0.611157
vt 0.018557 0.769530
vt 0.008754 0.770220
vt 0.031659 0.769039
vt 0.013660 0.810072
vt 0.003262 0.811108
vt 0.027386 0.809017
vt 0.038798 0.824590
vt 0.028841 0.825397
vt 0.038321 0.856057
vt 0.035967 0.889710
vt 0.032637 0.889564
vt 0.031553 0.856557
vt 0.046327 0.824462
vt 0.628286 0.745151
vt 0.622300 0.728415
vt 0.615216 0.729949
vt 0.030452 0.841990
vt 0.044405 0.841166
vt 0.038714 0.841348
vt 0.016914 0.826303
vt 0.008115 0.827251
vt 0.035893 0.917029
vt 0.607740 0.732075
vt 0.879994 0.032829
vt 0.879173 0.003262
vt 0.879283 0.107308
vt 0.879173 0.073380
vt 0.042780 0.855848
vt 0.038819 0.890343
vt 0.892652 0.128713
vt 0.885631 0.127646
vt 0.899401 0.129651
vt 0.890813 0.161304
vt 0.884969 0.160740
vt 0.896542 0.162014
vt 0.879367 0.126490
vt 0.879301 0.160462
vt 0.905251 0.130233
vt 0.901420 0.162449
vt 0.882597 0.259968
vt 0.879739 0.260264
vt 0.879452 0.235508
vt 0.882978 0.235348
vt 0.892133 0.210710
vt 0.896062 0.210729
vt 0.893580 0.234891
vt 0.890036 0.235039
vt 0.881821 0.308292
vt 0.880004 0.308577
vt 0.883903 0.342557
vt 0.884170 0.332005
vt 0.884955 0.332094
vt 0.884506 0.342597
vt 0.882227 0.331798
vt 0.881150 0.331689
vt 0.884502 0.354361
vt 0.885183 0.354172
vt 0.882004 0.354222
vt 0.881910 0.342330
vt 0.882649 0.342429
vt 0.882795 0.354217
vt 0.883272 0.342497
vt 0.883630 0.354205
vt 0.885411 0.307718
vt 0.886708 0.307383
vt 0.883197 0.331899
vt 0.883576 0.308003
vt 0.888314 0.259370
vt 0.891192 0.259064
vt 0.885420 0.259667
vt 0.879562 0.210682
vt 0.883738 0.210672
vt 0.887868 0.210676
vt 0.886474 0.235188
vt 0.884468 0.391040
vt 0.526489 0.406786
vt 0.497673 0.359551
vt 0.531789 0.385573
vt 0.515531 0.051838
vt 0.459625 0.913948
vt 0.469141 0.912641
vt 0.466607 0.922287
vt 0.456774 0.924060
vt 0.464168 0.933916
vt 0.454033 0.936480
vt 0.472623 0.893355
vt 0.463573 0.893862
vt 0.471414 0.902904
vt 0.462197 0.903835
vt 0.462517 0.945882
vt 0.452290 0.949500
vt 0.579829 0.905273
vt 0.579106 0.910439
vt 0.581982 0.896106
vt 0.580888 0.900259
vt 0.583477 0.887804
vt 0.582960 0.891915
vt 0.877114 0.426347
vt 0.874591 0.422859
vt 0.873259 0.418934
vt 0.890417 0.431948
vt 0.885322 0.430825
vt 0.880577 0.428890
vt 0.839646 0.410734
vt 0.833560 0.408503
vt 0.835286 0.405166
vt 0.840700 0.408694
vt 0.839704 0.417714
vt 0.833637 0.419795
vt 0.832799 0.416100
vt 0.839184 0.415422
vt 0.835270 0.423213
vt 0.840717 0.419835
vt 0.842282 0.406882
vt 0.837802 0.402277
vt 0.840763 0.400053
vt 0.844135 0.405485
vt 0.846281 0.404541
vt 0.844226 0.398531
vt 0.847824 0.397571
vt 0.848507 0.403948
vt 0.850851 0.404026
vt 0.851607 0.397699
vt 0.855281 0.398417
vt 0.853124 0.404472
vt 0.855197 0.405559
vt 0.858626 0.400175
vt 0.832799 0.412304
vt 0.839184 0.413067
vt 0.646389 0.918525
vt 0.646655 0.917100
vt 0.647329 0.915815
vt 0.648300 0.914701
vt 0.649467 0.913816
vt 0.650787 0.913241
vt 0.652177 0.912864
vt 0.653620 0.912922
vt 0.655039 0.913189
vt 0.656313 0.913872
vt 0.647339 0.922720
vt 0.646711 0.921406
vt 0.646389 0.919985
vt 0.847045 0.914422
vt 0.873067 0.913506
vt 0.873295 0.914617
vt 0.848124 0.920958
vt 0.849131 0.901605
vt 0.873298 0.911250
vt 0.873043 0.912366
vt 0.847365 0.907914
vt 0.871890 0.942667
vt 0.877405 0.918081
vt 0.878514 0.918070
vt 0.878968 0.943131
vt 0.879595 0.917821
vt 0.885952 0.941973
vt 0.880578 0.917328
vt 0.892512 0.939234
vt 0.881409 0.916618
vt 0.898297 0.935050
vt 0.859318 0.937164
vt 0.875314 0.917269
vt 0.876323 0.917797
vt 0.865403 0.940686
vt 0.576636 0.458913
vt 0.565004 0.466278
vt 0.560434 0.445329
vt 0.570306 0.456975
vt 0.527369 0.508409
vt 0.524326 0.410974
vt 0.535252 0.481124
vt 0.492953 0.292926
vt 0.493657 0.324426
vt 0.493846 0.292669
vt 0.494895 0.292266
vt 0.496036 0.291751
vt 0.489484 0.235311
vt 0.491125 0.263709
vt 0.492502 0.234769
vt 0.493295 0.263309
vt 0.495579 0.233988
vt 0.495529 0.262695
vt 0.498686 0.233030
vt 0.497763 0.261918
vt 0.478837 0.074123
vt 0.481932 0.097988
vt 0.482997 0.072235
vt 0.486140 0.097247
vt 0.486879 0.070549
vt 0.490241 0.096615
vt 0.490585 0.069126
vt 0.494237 0.096171
vt 0.485680 0.182050
vt 0.487527 0.208542
vt 0.489824 0.180359
vt 0.491268 0.207417
vt 0.493868 0.178719
vt 0.494973 0.206189
vt 0.497805 0.177280
vt 0.498627 0.204967
vt 0.482641 0.125746
vt 0.487107 0.124821
vt 0.491369 0.123930
vt 0.495421 0.123157
vt 0.483947 0.153318
vt 0.488257 0.152026
vt 0.492403 0.150766
vt 0.496394 0.149653
vt 0.492697 0.324810
vt 0.511631 0.047342
vt 0.513282 0.049831
vt 0.600829 0.856573
vt 0.610551 0.860539
vt 0.611740 0.870057
vt 0.603151 0.868650
vt 0.611542 0.882609
vt 0.603162 0.877386
vt 0.590139 0.817727
vt 0.602086 0.832177
vt 0.606470 0.845069
vt 0.595041 0.833909
vt 0.914296 0.882348
vt 0.925192 0.884134
vt 0.925192 0.905862
vt 0.916130 0.903433
vt 0.608715 0.852626
vt 0.597942 0.845302
vt 0.795903 0.899089
vt 0.791708 0.896168
vt 0.804065 0.896227
vt 0.801172 0.900585
vt 0.789954 0.899293
vt 0.784289 0.900348
vt 0.777103 0.895476
vt 0.783823 0.893466
vt 0.777153 0.899948
vt 0.775601 0.903797
vt 0.778104 0.902903
vt 0.772631 0.906661
vt 0.810776 0.905282
vt 0.813310 0.894022
vt 0.828192 0.888156
vt 0.806320 0.902559
vt 0.820938 0.891251
vt 0.772631 0.886421
vt 0.777421 0.889829
vt 0.775542 0.890813
vt 0.610074 0.890957
vt 0.600697 0.889026
vt 0.596461 0.898203
vt 0.605470 0.903403
vt 0.597605 0.915333
vt 0.590139 0.907197
vt 0.914296 0.935558
vt 0.922306 0.917271
vt 0.921159 0.936044
vt 0.914296 0.912386
vt 0.571238 0.546567
vt 0.558171 0.523506
vt 0.562254 0.505385
vt 0.545360 0.473901
vt 0.567887 0.491397
vt 0.554974 0.469608
vt 0.572863 0.479957
vt 0.578196 0.468838
vt 0.582478 0.457489
vt 0.632880 0.744969
vt 0.627482 0.727235
vt 0.622443 0.709612
vt 0.637830 0.760462
vt 0.585086 0.568839
vt 0.648102 0.791644
vt 0.598516 0.611727
vt 0.613104 0.673310
vt 0.550708 0.432311
vt 0.539443 0.420118
vt 0.360387 0.112899
vt 0.417425 0.205561
vt 0.426377 0.221002
vt 0.434542 0.236798
vt 0.445047 0.262716
vt 0.453159 0.290238
vt 0.759811 0.953880
vt 0.763539 0.956090
vt 0.411217 0.089500
vt 0.607741 0.897974
s 1
usemtl Material
f 260/1 45/2 2/3 448/4
f 229/5 224/6 5/7 278/8
f 226/9 225/10 6/11 7/12
f 227/13 226/9 7/12 8/14
f 96/15 27/16 9/17 94/18
f 11/19 14/20 172/21 26/22
f 14/20 13/23 171/24 172/21
f 13/23 173/25 171/24
f 10/26 11/27 26/28 174/29
f 49/30 53/31 372/32
f 10/26 174/29 24/33 21/34
f 21/34 24/33 25/35 22/36
f 22/36 25/35 177/37
f 229/5 278/8 277/38 230/39
f 230/39 277/38 276/40 231/41
f 231/41 276/40 275/42 232/43
f 176/44 30/45 31/46 23/47
f 175/48 29/49 30/45 176/44
f 17/50 28/51 29/49 175/48
f 17/50 178/52 28/51
f 238/53 92/54 32/55 228/56
f 250/57 246/58 241/59 262/60
f 1/61 38/62 33/63
f 254/64 244/65 192/66 240/67
f 37/68 5/69 8/70 40/71
f 41/72 7/73 6/74 39/75
f 488/76 41/72 39/75 486/77
f 485/78 37/68 40/71 487/79
f 489/80 240/67 38/62 479/81
f 8/70 7/73 41/72 40/71
f 1/61 479/81 38/62
f 228/56 32/55 54/82 233/83
f 233/83 54/82 55/84 234/85
f 234/85 55/84 56/86 235/87
f 235/87 56/86 57/88
f 9/17 27/16 50/89 46/90
f 46/90 50/89 51/91 47/92
f 47/92 51/91 52/93 48/94
f 48/94 52/93 53/31 49/30
f 258/95 43/96 44/97 259/98
f 259/98 44/97 45/2 260/1
f 69/99 70/100 71/101 68/102
f 88/103 78/104 77/105 87/106
f 65/107 76/108 79/109 74/110
f 72/111 67/112 68/102 71/101
f 89/113 73/114 66/115 90/116
f 73/114 79/109 76/108 66/115
f 82/117 83/118 71/101 70/100
f 508/119 507/120 84/121
f 45/122 84/121 81/123 2/124
f 78/104 85/125 86/126 77/105
f 72/111 88/103 87/106 67/112
f 85/125 89/113 90/116 86/126
f 88/103 72/111 508/119
f 43/127 85/125 78/104 44/128
f 42/129 89/113 85/125 43/127
f 3/130 73/114 89/113 42/129
f 232/43 275/42 191/131 237/132
f 236/133 267/134 92/54 238/53
f 31/46 95/135 93/136 23/47
f 99/137 96/15 94/18 98/138
f 95/135 99/137 98/138 93/136
f 3/130 268/139 79/109 73/114
f 237/132 191/131 267/134 236/133
f 79/109 268/139 97/140 74/110
f 74/110 97/140 91/141 80/142
f 80/142 91/141 20/143
f 4/144 5/145 101/146
f 101/146 102/147 4/144
f 18/148 103/149 104/150 19/151
f 104/150 75/152 20/143 19/151
f 103/149 18/148 4/144 102/147
f 179/153 180/154 100/155 182/156
f 75/152 105/157 80/142 20/143
f 80/142 105/157 65/107 74/110
f 492/158 180/154 37/68 485/78
f 184/159 181/160 75/161 104/162
f 505/163 87/164 77/165 502/166
f 184/159 104/162 103/167 182/156
f 108/168 69/169 68/170 110/171
f 111/172 452/173 109/174 112/175
f 507/176 509/177 109/178 84/179
f 83/180 82/181 108/182 110/183
f 70/184 69/169 108/168 82/185
f 330/186 137/187 118/188 303/189
f 328/190 149/191 117/192 302/193
f 400/194 155/195 116/196 392/197
f 425/198 127/199 419/200
f 383/201 159/202 126/203 332/204
f 410/205 157/206 125/207 333/208
f 323/209 138/210 124/211 304/212
f 321/213 153/214 123/215 305/216
f 319/217 151/218 122/219 306/220
f 317/221 144/222 119/223 307/224
f 315/225 146/226 120/227 308/228
f 313/229 148/230 121/231 309/232
f 303/189 118/188 131/233 354/234
f 302/193 117/192 353/235 352/236
f 429/237 358/238 450/239 427/240
f 428/241 357/242 449/243 426/244
f 437/245 356/246 106/247 440/248
f 430/249 451/250 450/239 358/238
f 308/228 120/227 147/251 312/252
f 312/252 147/251 148/230 313/229
f 307/224 119/223 145/253 314/254
f 314/254 145/253 146/226 315/225
f 301/255 115/256 143/257 316/258
f 316/258 143/257 144/222 317/221
f 305/216 123/215 152/259 318/260
f 318/260 152/259 151/218 319/217
f 304/212 124/211 154/261 320/262
f 320/262 154/261 153/214 321/213
f 300/263 114/264 139/265 322/266
f 322/266 139/265 138/210 323/209
f 332/204 126/203 158/267 324/268
f 324/268 158/267 157/206 410/205
f 127/199 160/269 419/200
f 419/200 160/269 159/202 383/201
f 331/270 113/271 141/272 334/273
f 334/273 141/272 140/274 325/275
f 333/208 125/207 156/276 326/277
f 326/277 156/276 155/195 400/194
f 306/220 122/219 150/278 327/279
f 327/279 150/278 149/191 328/190
f 309/232 121/231 136/280 329/281
f 329/281 136/280 137/187 330/186
f 431/282 132/283 367/284 434/285
f 111/172 112/175 460/286
f 46/287 162/288 161/289
f 162/288 163/290 58/291 161/289
f 163/290 164/292 59/293 58/291
f 164/292 165/294 60/295 59/293
f 169/296 170/297 165/294 164/292
f 168/298 169/296 164/292 163/290
f 46/287 47/299 162/288
f 166/300 447/301 370/302
f 47/299 48/303 168/298
f 63/304 62/305 167/306
f 64/307 63/304 167/306
f 371/308 64/307 167/306
f 61/309 60/295 165/294 166/300
f 444/310 166/300 370/302
f 62/305 61/309 167/306
f 371/308 167/306 444/310
f 61/309 166/300 167/306
f 166/300 444/310 167/306
f 48/303 49/311 169/296 168/298
f 49/311 372/312 170/297 169/296
f 372/312 447/301 170/297
f 166/300 165/294 170/297 447/301
f 168/298 163/290 162/288 47/299
f 172/313 171/314 15/315 16/316
f 171/314 173/317 12/318 15/315
f 24/319 174/320 17/321 175/322
f 25/323 24/319 175/322 176/324
f 177/325 25/323 176/324 23/326
f 26/327 172/313 16/316 178/328
f 174/320 26/327 178/328 17/321
f 107/329 184/159 182/156 100/155
f 502/166 501/330 186/331 381/332
f 107/329 142/333 181/160 184/159
f 503/334 499/335 183/336 380/337
f 500/338 503/334 380/337 185/339
f 504/340 500/338 185/339 382/341
f 501/330 504/340 382/341 186/331
f 187/342 506/343 112/175 109/174
f 105/344 75/161 181/160 424/345
f 506/343 505/163 405/346 112/175
f 102/347 179/153 182/156 103/167
f 37/68 180/154 101/348 5/69
f 101/348 180/154 179/153 102/347
f 45/122 44/128 78/104 88/103
f 256/349 189/350 190/351 257/352
f 255/353 188/354 189/350 256/349
f 257/352 190/351 445/355 446/356
f 193/357 178/358 16/359 209/360
f 262/60 241/59 34/361 265/362
f 224/6 194/363 210/364 227/13
f 194/363 193/357 209/360 210/364
f 95/365 221/366 219/367 99/368
f 221/366 220/369 218/370 219/367
f 99/368 219/367 223/371 96/372
f 219/367 218/370 222/373 223/371
f 31/374 204/375 221/366 95/365
f 204/375 203/376 220/369 221/366
f 52/377 216/378 217/379 53/31
f 216/378 215/380 217/379
f 51/381 214/382 216/378 52/377
f 214/382 213/383 215/380 216/378
f 50/384 212/385 214/382 51/381
f 212/385 211/386 213/383 214/382
f 27/387 196/388 212/385 50/384
f 196/388 195/389 211/386 212/385
f 96/372 223/371 196/388 27/387
f 223/371 222/373 195/389 196/388
f 30/390 202/391 204/375 31/374
f 202/391 201/392 203/376 204/375
f 29/393 200/394 202/391 30/390
f 200/394 199/395 201/392 202/391
f 28/396 198/397 200/394 29/393
f 198/397 197/398 199/395 200/394
f 16/359 15/399 207/400 209/360
f 209/360 207/400 208/401 210/364
f 15/399 12/402 205/403 207/400
f 207/400 205/403 206/404 208/401
f 28/396 178/358 193/357 198/397
f 198/397 193/357 194/363 197/398
f 251/405 225/10 206/404 247/406
f 263/407 261/408 264/409 266/410
f 53/31 217/379 372/32
f 57/88 372/32 217/379
f 5/7 224/6 227/13 8/14
f 220/369 237/132 236/133 218/370
f 218/370 236/133 238/53 222/373
f 203/376 232/43 237/132 220/369
f 215/380 235/87 57/88 217/379
f 213/383 234/85 235/87 215/380
f 211/386 233/83 234/85 213/383
f 195/389 228/56 233/83 211/386
f 222/373 238/53 228/56 195/389
f 201/392 231/41 232/43 203/376
f 199/395 230/39 231/41 201/392
f 197/398 229/5 230/39 199/395
f 210/364 208/401 226/9 227/13
f 208/401 206/404 225/10 226/9
f 197/398 194/363 224/6 229/5
f 243/411 6/11 225/10 251/405
f 491/412 254/64 240/67 489/80
f 261/408 262/60 265/362 264/409
f 38/62 240/67 192/66 33/63
f 486/77 39/75 253/413 490/414
f 490/414 253/413 254/64 491/412
f 248/415 250/57 262/60 261/408
f 244/416 243/411 251/405 252/417
f 206/404 205/403 249/418 247/406
f 247/406 249/418 250/57 248/415
f 252/417 248/415 261/408 263/407
f 252/417 251/405 247/406 248/415
f 205/403 12/402 245/419 249/418
f 249/418 245/419 246/58 250/57
f 265/362 34/361 1/420
f 39/75 6/74 243/421 253/413
f 253/413 243/421 244/65 254/64
f 57/422 257/352 446/356 372/423
f 55/424 255/353 256/349 56/425
f 56/425 256/349 257/352 57/422
f 189/350 259/98 260/1 190/351
f 188/354 258/95 259/98 189/350
f 190/351 260/1 448/4 445/355
f 192/426 263/407 266/410 33/427
f 1/420 33/427 266/410
f 244/416 252/417 263/407 192/426
f 266/410 264/409 1/420
f 264/409 265/362 1/420
f 188/354 255/353 270/428 269/429
f 258/95 188/354 269/429 271/430
f 269/429 270/428 273/431 272/432
f 271/430 269/429 272/432 274/433
f 54/434 270/428 255/353 55/424
f 32/435 273/431 270/428 54/434
f 42/436 271/430 274/433 3/437
f 43/96 258/95 271/430 42/436
f 297/438 294/439 267/440 191/441
f 284/442 296/443 97/444 268/445
f 291/446 297/438 191/441 275/447
f 288/448 18/449 19/450 285/451
f 287/452 291/446 275/447 276/453
f 281/454 4/455 18/449 288/448
f 278/456 279/457 290/458 277/459
f 279/457 280/460 289/461 290/458
f 280/460 281/454 288/448 289/461
f 19/450 20/462 293/463 285/451
f 285/451 293/463 292/464 286/465
f 286/465 292/464 291/446 287/452
f 277/459 290/458 287/452 276/453
f 290/458 289/461 286/465 287/452
f 289/461 288/448 285/451 286/465
f 20/462 91/466 299/467 293/463
f 293/463 299/467 298/468 292/464
f 292/464 298/468 297/438 291/446
f 92/469 267/440 294/439 282/470
f 282/470 294/439 295/471 283/472
f 283/472 295/471 296/443 284/442
f 91/466 97/444 296/443 299/467
f 299/467 296/443 295/471 298/468
f 298/468 295/471 294/439 297/438
f 92/469 282/470 273/431 32/435
f 274/433 284/442 268/445 3/437
f 282/470 283/472 272/432 273/431
f 283/472 284/442 274/433 272/432
f 5/473 4/455 281/454
f 5/473 281/454 280/460
f 5/473 280/460 279/457
f 5/473 279/457 278/456
f 150/278 329/281 330/186 149/191
f 122/219 309/232 329/281 150/278
f 156/276 327/279 328/190 155/195
f 125/207 306/220 327/279 156/276
f 107/474 334/273 325/275 142/475
f 100/476 331/270 334/273 107/474
f 141/272 322/266 323/209 140/274
f 113/271 300/263 322/266 141/272
f 160/269 320/262 321/213 159/202
f 127/199 304/212 320/262 160/269
f 158/267 318/260 319/217 157/206
f 126/203 305/216 318/260 158/267
f 139/265 316/258 317/221 138/210
f 114/264 301/255 316/258 139/265
f 154/261 314/254 315/225 153/214
f 124/211 307/224 314/254 154/261
f 152/259 312/252 313/229 151/218
f 123/215 308/228 312/252 152/259
f 116/196 302/193 352/236 351/477
f 117/192 303/189 354/234 353/235
f 151/218 313/229 309/232 122/219
f 153/214 315/225 308/228 123/215
f 138/210 317/221 307/224 124/211
f 157/206 319/217 306/220 125/207
f 159/202 321/213 305/216 126/203
f 140/274 323/209 304/212 127/199
f 140/274 127/199 425/198 325/275
f 155/195 328/190 302/193 116/196
f 149/191 330/186 303/189 117/192
f 300/478 113/479 336/480 339/481
f 113/479 331/482 341/483 336/480
f 115/484 301/485 340/486 338/487
f 301/485 114/488 337/489 340/486
f 331/482 100/490 335/491 341/483
f 114/488 300/478 339/481 337/489
f 341/483 335/491 342/492 348/493
f 339/481 336/480 343/494 346/495
f 338/487 340/486 347/496 345/497
f 340/486 337/489 344/498 347/496
f 336/480 341/483 348/493 343/494
f 337/489 339/481 346/495 344/498
f 346/499 343/500 348/501 342/502 345/503 347/504 344/505
f 342/502 349/506 345/503
f 442/507 128/508 350/509 441/510
f 130/511 310/512 352/513 353/514
f 355/515 311/516 354/517 131/518
f 438/519 132/520 356/521 437/522
f 431/523 133/524 357/525 428/526
f 432/527 134/528 358/529 429/530
f 433/531 135/532 359/533 430/534
f 310/512 129/535 351/536 352/513
f 311/516 130/511 353/514 354/517
f 363/537 364/538 365/539 366/540 360/541 361/542 436/543 369/544 435/545 368/546 434/547 367/548 439/549 362/550 443/551
f 432/552 133/553 368/554 435/555
f 433/556 134/557 369/558 436/559
f 442/560 129/561 363/562 443/563
f 129/561 310/564 364/565 363/562
f 310/564 130/566 365/567 364/565
f 130/566 311/568 366/569 365/567
f 311/568 355/570 360/571 366/569
f 438/572 128/573 362/574 439/575
f 493/576 374/577 378/578 495/579
f 498/580 494/581 107/582 100/155
f 492/158 498/580 100/155 180/154
f 183/336 377/583 423/584
f 423/584 377/583 422/585
f 422/585 377/583 421/586
f 421/586 377/583 420/587
f 420/587 377/583 419/200
f 185/339 380/337 396/588 391/589
f 391/589 396/588 397/590 390/591
f 390/591 397/590 398/592 389/593
f 389/593 398/592 399/594 388/595
f 388/595 399/594 383/201 332/204
f 460/286 112/175 401/596 393/597
f 393/597 401/596 402/598 394/599
f 394/599 402/598 403/600 453/601
f 453/601 403/600 404/602 395/603
f 395/603 404/602 400/194 392/197
f 186/331 382/341 415/604 414/605
f 414/605 415/604 416/606 413/607
f 413/607 416/606 417/608 412/609
f 412/609 417/608 418/610 411/611
f 411/611 418/610 324/268 410/205
f 112/175 405/346 406/612 401/596
f 401/596 406/612 407/613 402/598
f 402/598 407/613 408/614 403/600
f 403/600 408/614 409/615 404/602
f 404/602 409/615 326/277 400/194
f 405/346 381/332 384/616 406/612
f 406/612 384/616 385/617 407/613
f 407/613 385/617 386/618 408/614
f 408/614 386/618 387/619 409/615
f 409/615 387/619 333/208 326/277
f 382/341 185/339 391/589 415/604
f 415/604 391/589 390/591 416/606
f 416/606 390/591 389/593 417/608
f 417/608 389/593 388/595 418/610
f 418/610 388/595 332/204 324/268
f 381/332 186/331 414/605 384/616
f 384/616 414/605 413/607 385/617
f 385/617 413/607 412/609 386/618
f 386/618 412/609 411/611 387/619
f 387/619 411/611 410/205 333/208
f 380/337 183/336 423/584 396/588
f 396/588 423/584 422/585 397/590
f 397/590 422/585 421/586 398/592
f 398/592 421/586 420/587 399/594
f 399/594 420/587 419/200 383/201
f 183/336 499/335 424/345 377/620
f 419/200 377/583 425/198
f 325/275 425/198 377/583 142/475
f 377/620 424/345 181/160 142/333
f 135/621 433/556 436/559 361/622
f 134/557 432/552 435/555 369/558
f 134/528 433/531 430/534 358/529
f 133/524 432/527 429/530 357/525
f 132/520 431/523 428/526 356/521
f 133/553 431/282 434/285 368/554
f 359/623 373/624 451/250 430/249
f 356/246 428/241 426/244 106/247
f 357/242 429/237 427/240 449/243
f 132/283 438/572 439/575 367/284
f 128/508 438/519 437/522 350/509
f 350/625 437/245 440/248 392/197
f 128/573 442/560 443/563 362/574
f 129/535 442/507 441/510 351/536
f 350/625 392/197 441/626
f 116/196 351/477 441/626 392/197
f 447/627 372/628 457/629 459/630
f 372/628 446/631 458/632 457/629
f 371/633 444/634 455/635 454/636
f 2/637 81/638 452/639 111/640
f 444/634 370/641 456/642 455/635
f 449/643 427/644 457/645 458/646
f 458/646 426/647 449/643
f 106/648 510/649 394/650
f 394/650 453/651 106/648
f 395/652 392/653 440/654
f 373/655 459/656 451/657
f 373/655 454/658 455/659
f 453/651 395/652 440/654
f 453/651 440/654 106/648
f 450/660 451/657 459/656
f 427/644 450/660 457/645
f 459/656 457/645 450/660
f 510/649 106/648 426/647
f 456/661 459/656 373/655
f 455/659 456/661 373/655
f 460/662 393/663 511/664
f 510/665 458/632 445/666
f 448/667 2/668 111/669 460/670
f 370/641 447/627 459/630 456/642
f 84/671 109/672 452/673
f 84/671 452/673 81/674
f 379/675 484/676 475/677 469/678
f 484/676 482/679 471/680 475/677
f 497/681 494/581 471/680 474/682
f 496/683 497/681 474/682 473/684
f 495/579 496/683 473/684 472/685
f 481/686 470/687 472/685 483/688
f 480/689 467/690 468/691 242/692
f 36/693 462/694 467/690 480/689
f 242/692 468/691 466/695 239/696
f 379/675 469/678 461/697 476/698
f 239/696 466/695 465/699 35/700
f 476/698 461/697 463/701 477/702
f 478/703 464/704 462/694 36/693
f 487/79 488/76 464/704 463/701
f 1/61 35/700 465/699
f 40/71 41/72 488/76 487/79
f 378/578 377/705 496/683 495/579
f 377/705 142/706 497/681 496/683
f 142/706 107/582 494/581 497/681
f 469/678 475/677 498/580 492/158
f 475/677 471/680 494/581 498/580
f 474/682 471/680 482/679 375/707
f 473/684 474/682 375/707 376/708
f 472/685 473/684 376/708 483/688
f 470/687 493/576 495/579 472/685
f 467/690 490/414 491/412 468/691
f 462/694 486/77 490/414 467/690
f 468/691 491/412 489/80 466/695
f 469/678 492/158 485/78 461/697
f 466/695 489/80 479/81 465/699
f 461/697 485/78 487/79 463/701
f 464/704 488/76 486/77 462/694
f 463/701 464/704 478/703 477/702
f 1/61 465/699 479/81
f 506/343 187/342 68/170 67/709
f 67/709 87/164 505/163 506/343
f 86/710 90/711 504/340 501/330
f 90/711 66/712 500/338 504/340
f 66/712 76/713 503/334 500/338
f 76/713 65/714 499/335 503/334
f 77/165 86/710 501/330 502/166
f 405/346 505/163 502/166 381/332
f 424/345 499/335 65/714 105/344
f 83/715 110/716 509/177 507/176
f 72/111 71/101 83/118 507/120 508/119
f 187/342 109/174 509/717
f 84/121 45/122 88/103 508/119
f 110/171 68/170 187/342 509/717
f 458/632 446/631 445/666
f 445/666 511/718 510/665
f 393/663 394/650 511/664
f 448/667 460/670 511/718 445/666
f 426/647 458/646 510/649
f 394/650 510/649 511/664
f 724/719 900/720 512/721 543/722
f 698/723 742/724 515/725 693/726
f 695/727 517/728 516/729 694/730
f 696/731 518/732 517/728 695/727
f 584/733 94/734 9/735 528/736
f 11/737 527/738 643/739 14/740
f 14/740 643/739 642/741 13/742
f 13/742 642/741 173/743
f 10/744 644/745 527/746 11/747
f 546/748 828/749 550/750
f 10/744 21/751 525/752 644/745
f 21/751 22/753 526/754 525/752
f 22/753 177/755 526/754
f 698/723 699/756 741/757 742/724
f 699/756 700/758 740/759 741/757
f 700/758 701/760 739/761 740/759
f 646/762 23/763 532/764 531/765
f 645/766 646/762 531/765 530/767
f 521/768 645/766 530/767 529/769
f 521/768 529/769 647/770
f 707/771 697/772 533/773 582/774
f 714/775 726/776 241/777 246/778
f 1/61 534/779 536/780
f 718/781 708/782 661/783 710/784
f 535/785 538/786 518/787 515/788
f 539/789 537/790 516/791 517/792
f 931/793 929/794 537/790 539/789
f 928/795 930/796 538/786 535/785
f 932/797 927/798 536/780 708/782
f 518/787 538/786 539/789 517/792
f 1/61 536/780 927/798
f 697/772 702/799 551/800 533/773
f 702/799 703/801 552/802 551/800
f 703/801 704/803 553/804 552/802
f 704/803 554/805 553/804
f 9/735 46/806 547/807 528/736
f 46/806 544/808 548/809 547/807
f 544/808 545/810 549/811 548/809
f 545/810 546/748 550/750 549/811
f 722/812 723/813 542/814 541/815
f 723/813 724/719 543/722 542/814
f 559/816 558/817 561/818 560/819
f 578/820 577/821 567/822 568/823
f 555/824 564/825 569/826 566/827
f 562/828 561/818 558/817 557/829
f 579/830 580/831 556/832 563/833
f 563/833 556/832 566/827 569/826
f 572/834 560/819 561/818 573/835
f 951/836 574/837 950/838
f 543/839 512/840 571/841 574/837
f 568/823 567/822 576/842 575/843
f 562/828 557/829 577/821 578/820
f 575/843 576/842 580/831 579/830
f 578/820 951/836 562/828
f 541/844 542/845 568/823 575/843
f 540/846 541/844 575/843 579/830
f 513/847 540/846 579/830 563/833
f 701/760 706/848 660/849 739/761
f 705/850 707/771 582/774 731/851
f 532/764 23/763 93/852 583/853
f 586/854 98/855 94/734 584/733
f 583/853 93/852 98/855 586/854
f 513/847 563/833 569/826 732/856
f 706/848 705/850 731/851 660/849
f 569/826 564/825 585/857 732/856
f 564/825 570/858 581/859 585/857
f 570/858 524/860 581/859
f 514/861 588/862 515/863
f 588/862 514/861 589/864
f 522/865 523/866 591/867 590/868
f 591/867 523/866 524/860 565/869
f 590/868 589/864 514/861 522/865
f 648/870 651/871 587/872 649/873
f 565/869 524/860 570/858 592/874
f 570/858 564/825 555/824 592/874
f 935/875 928/795 535/785 649/873
f 653/876 591/877 565/878 650/879
f 948/880 945/881 567/882 577/883
f 653/876 651/871 590/884 591/877
f 595/885 597/886 558/887 559/888
f 598/889 599/890 596/891 904/892
f 950/893 574/894 596/895 952/896
f 573/897 597/898 595/899 572/900
f 560/901 572/902 595/885 559/888
f 794/903 767/904 118/188 137/187
f 792/905 766/906 603/907 621/908
f 852/909 844/910 602/911 627/912
f 877/913 871/914 609/915
f 835/916 796/917 608/918 631/919
f 862/920 797/921 607/922 629/923
f 787/924 768/925 606/926 616/927
f 785/928 769/929 605/930 625/931
f 783/932 770/933 604/934 623/935
f 781/936 771/937 119/223 144/222
f 779/938 772/939 120/227 146/226
f 777/940 773/941 121/231 148/230
f 767/904 815/942 131/233 118/188
f 766/906 813/943 814/944 603/907
f 881/945 879/946 902/947 818/948
f 880/949 878/950 901/951 817/952
f 889/953 892/954 593/955 816/956
f 882/957 818/948 902/947 903/958
f 772/939 776/959 147/251 120/227
f 776/959 777/940 148/230 147/251
f 771/937 778/960 145/253 119/223
f 778/960 779/938 146/226 145/253
f 765/961 780/962 143/257 115/256
f 780/962 781/936 144/222 143/257
f 769/929 782/963 624/964 605/930
f 782/963 783/932 623/935 624/964
f 768/925 784/965 626/966 606/926
f 784/965 785/928 625/931 626/966
f 764/967 786/968 617/969 601/970
f 786/968 787/924 616/927 617/969
f 796/917 788/971 630/972 608/918
f 788/971 862/920 629/923 630/972
f 609/915 871/914 632/973
f 871/914 835/916 631/919 632/973
f 795/974 798/975 619/976 600/977
f 798/975 789/978 618/979 619/976
f 797/921 790/980 628/981 607/922
f 790/980 852/909 627/912 628/981
f 770/933 791/982 622/983 604/934
f 791/982 792/905 621/908 622/983
f 773/941 793/984 136/280 121/231
f 793/984 794/903 137/187 136/280
f 883/985 886/986 824/987 613/988
f 598/889 911/989 599/890
f 46/990 161/991 633/992
f 633/992 161/991 58/993 634/994
f 634/994 58/993 59/995 635/996
f 635/996 59/995 60/997 636/998
f 640/999 635/996 636/998 641/1000
f 639/1001 634/994 635/996 640/999
f 46/990 633/992 544/1002
f 637/1003 827/1004 899/1005
f 544/1002 639/1001 545/1006
f 63/1007 638/1008 62/1009
f 64/1010 638/1008 63/1007
f 371/1011 638/1008 64/1010
f 61/1012 637/1003 636/998 60/997
f 896/1013 827/1004 637/1003
f 62/1009 638/1008 61/1012
f 371/1011 896/1013 638/1008
f 61/1012 638/1008 637/1003
f 637/1003 638/1008 896/1013
f 545/1006 639/1001 640/999 546/1014
f 546/1014 640/999 641/1000 828/1015
f 828/1015 641/1000 899/1005
f 637/1003 899/1005 641/1000 636/998
f 639/1001 544/1002 633/992 634/994
f 643/1016 520/1017 519/1018 642/1019
f 642/1019 519/1018 12/1020 173/1021
f 525/1022 645/1023 521/1024 644/1025
f 526/1026 646/1027 645/1023 525/1022
f 177/325 23/326 646/1027 526/1026
f 527/1028 647/1029 520/1017 643/1016
f 644/1025 521/1024 647/1029 527/1028
f 594/1030 587/872 651/871 653/876
f 945/881 833/1031 655/1032 944/1033
f 594/1030 653/876 650/879 620/1034
f 946/1035 832/1036 652/1037 942/1038
f 943/1039 654/1040 832/1036 946/1035
f 947/1041 834/1042 654/1040 943/1039
f 944/1033 655/1032 834/1042 947/1041
f 656/1043 596/891 599/890 949/1044
f 592/1045 876/1046 650/879 565/878
f 949/1044 599/890 857/1047 948/880
f 589/1048 590/884 651/871 648/870
f 535/785 515/788 588/1049 649/873
f 588/1049 589/1048 648/870 649/873
f 543/839 578/820 568/823 542/845
f 720/1050 721/1051 659/1052 658/1053
f 719/1054 720/1050 658/1053 657/1055
f 721/1051 898/1056 897/1057 659/1052
f 662/1058 678/1059 520/1060 647/1061
f 726/776 729/1062 34/1063 241/777
f 693/726 696/731 679/1064 663/1065
f 663/1065 679/1064 678/1059 662/1058
f 583/1066 586/1067 688/1068 690/1069
f 690/1069 688/1068 687/1070 689/1071
f 586/1067 584/1072 692/1073 688/1068
f 688/1068 692/1073 691/1074 687/1070
f 532/1075 583/1066 690/1069 673/1076
f 673/1076 690/1069 689/1071 672/1077
f 549/1078 550/750 686/1079 685/1080
f 685/1080 686/1079 684/1081
f 548/1082 549/1078 685/1080 683/1083
f 683/1083 685/1080 684/1081 682/1084
f 547/1085 548/1082 683/1083 681/1086
f 681/1086 683/1083 682/1084 680/1087
f 528/1088 547/1085 681/1086 665/1089
f 665/1089 681/1086 680/1087 664/1090
f 584/1072 528/1088 665/1089 692/1073
f 692/1073 665/1089 664/1090 691/1074
f 531/1091 532/1075 673/1076 671/1092
f 671/1092 673/1076 672/1077 670/1093
f 530/1094 531/1091 671/1092 669/1095
f 669/1095 671/1092 670/1093 668/1096
f 529/1097 530/1094 669/1095 667/1098
f 667/1098 669/1095 668/1096 666/1099
f 520/1060 678/1059 676/1100 519/1101
f 678/1059 679/1064 677/1102 676/1100
f 519/1101 676/1100 674/1103 12/1104
f 676/1100 677/1102 675/1105 674/1103
f 529/1097 667/1098 662/1058 647/1061
f 667/1098 666/1099 663/1065 662/1058
f 715/1106 711/1107 675/1105 694/730
f 727/1108 730/1109 728/1110 725/1111
f 550/750 828/749 686/1079
f 554/805 686/1079 828/749
f 515/725 518/732 696/731 693/726
f 689/1071 687/1070 705/850 706/848
f 687/1070 691/1074 707/771 705/850
f 672/1077 689/1071 706/848 701/760
f 684/1081 686/1079 554/805 704/803
f 682/1084 684/1081 704/803 703/801
f 680/1087 682/1084 703/801 702/799
f 664/1090 680/1087 702/799 697/772
f 691/1074 664/1090 697/772 707/771
f 670/1093 672/1077 701/760 700/758
f 668/1096 670/1093 700/758 699/756
f 666/1099 668/1096 699/756 698/723
f 679/1064 696/731 695/727 677/1102
f 677/1102 695/727 694/730 675/1105
f 666/1099 698/723 693/726 663/1065
f 709/1112 715/1106 694/730 516/729
f 934/1113 932/797 708/782 718/781
f 725/1111 728/1110 729/1062 726/776
f 536/780 534/779 661/783 708/782
f 929/794 933/1114 717/1115 537/790
f 933/1114 934/1113 718/781 717/1115
f 712/1116 725/1111 726/776 714/775
f 710/1117 716/1118 715/1106 709/1112
f 675/1105 711/1107 713/1119 674/1103
f 711/1107 712/1116 714/775 713/1119
f 716/1118 727/1108 725/1111 712/1116
f 716/1118 712/1116 711/1107 715/1106
f 674/1103 713/1119 245/1120 12/1104
f 713/1119 714/775 246/778 245/1120
f 729/1062 1/1121 34/1063
f 537/790 717/1115 709/1122 516/791
f 717/1115 718/781 710/784 709/1122
f 554/1123 828/1124 898/1056 721/1051
f 552/1125 553/1126 720/1050 719/1054
f 553/1126 554/1123 721/1051 720/1050
f 658/1053 659/1052 724/719 723/813
f 657/1055 658/1053 723/813 722/812
f 659/1052 897/1057 900/720 724/719
f 661/1127 534/1128 730/1109 727/1108
f 1/1121 730/1109 534/1128
f 710/1117 661/1127 727/1108 716/1118
f 730/1109 1/1121 728/1110
f 728/1110 1/1121 729/1062
f 657/1055 733/1129 734/1130 719/1054
f 722/812 735/1131 733/1129 657/1055
f 733/1129 736/1132 737/1133 734/1130
f 735/1131 738/1134 736/1132 733/1129
f 551/1135 552/1125 719/1054 734/1130
f 533/1136 551/1135 734/1130 737/1133
f 540/1137 513/1138 738/1134 735/1131
f 541/815 540/1137 735/1131 722/812
f 761/1139 660/1140 731/1141 758/1142
f 748/1143 732/1144 585/1145 760/1146
f 755/1147 739/1148 660/1140 761/1139
f 752/1149 749/1150 523/1151 522/1152
f 751/1153 740/1154 739/1148 755/1147
f 745/1155 752/1149 522/1152 514/1156
f 742/1157 741/1158 754/1159 743/1160
f 743/1160 754/1159 753/1161 744/1162
f 744/1162 753/1161 752/1149 745/1155
f 523/1151 749/1150 757/1163 524/1164
f 749/1150 750/1165 756/1166 757/1163
f 750/1165 751/1153 755/1147 756/1166
f 741/1158 740/1154 751/1153 754/1159
f 754/1159 751/1153 750/1165 753/1161
f 753/1161 750/1165 749/1150 752/1149
f 524/1164 757/1163 763/1167 581/1168
f 757/1163 756/1166 762/1169 763/1167
f 756/1166 755/1147 761/1139 762/1169
f 582/1170 746/1171 758/1142 731/1141
f 746/1171 747/1172 759/1173 758/1142
f 747/1172 748/1143 760/1146 759/1173
f 581/1168 763/1167 760/1146 585/1145
f 763/1167 762/1169 759/1173 760/1146
f 762/1169 761/1139 758/1142 759/1173
f 582/1170 533/1136 737/1133 746/1171
f 738/1134 513/1138 732/1144 748/1143
f 746/1171 737/1133 736/1132 747/1172
f 747/1172 736/1132 738/1134 748/1143
f 515/1174 745/1155 514/1156
f 515/1174 744/1162 745/1155
f 515/1174 743/1160 744/1162
f 515/1174 742/1157 743/1160
f 622/983 621/908 794/903 793/984
f 604/934 622/983 793/984 773/941
f 628/981 627/912 792/905 791/982
f 607/922 628/981 791/982 770/933
f 594/1175 620/1176 789/978 798/975
f 587/1177 594/1175 798/975 795/974
f 619/976 618/979 787/924 786/968
f 600/977 619/976 786/968 764/967
f 632/973 631/919 785/928 784/965
f 609/915 632/973 784/965 768/925
f 630/972 629/923 783/932 782/963
f 608/918 630/972 782/963 769/929
f 617/969 616/927 781/936 780/962
f 601/970 617/969 780/962 765/961
f 626/966 625/931 779/938 778/960
f 606/926 626/966 778/960 771/937
f 624/964 623/935 777/940 776/959
f 605/930 624/964 776/959 772/939
f 602/911 812/1178 813/943 766/906
f 603/907 814/944 815/942 767/904
f 623/935 604/934 773/941 777/940
f 625/931 605/930 772/939 779/938
f 616/927 606/926 771/937 781/936
f 629/923 607/922 770/933 783/932
f 631/919 608/918 769/929 785/928
f 618/979 609/915 768/925 787/924
f 618/979 789/978 877/913 609/915
f 627/912 602/911 766/906 792/905
f 621/908 603/907 767/904 794/903
f 764/1179 802/1180 800/1181 600/1182
f 600/1182 800/1181 804/1183 795/1184
f 115/484 338/487 803/1185 765/1186
f 765/1186 803/1185 801/1187 601/1188
f 795/1184 804/1183 799/1189 587/1190
f 601/1188 801/1187 802/1180 764/1179
f 804/1183 810/1191 805/1192 799/1189
f 802/1180 808/1193 806/1194 800/1181
f 338/487 345/497 809/1195 803/1185
f 803/1185 809/1195 807/1196 801/1187
f 800/1181 806/1194 810/1191 804/1183
f 801/1187 807/1196 808/1193 802/1180
f 808/1197 807/1198 809/1199 345/503 805/1200 810/1201 806/1202
f 805/1200 345/503 349/506
f 894/1203 893/1204 811/1205 610/1206
f 612/1207 814/1208 813/1209 774/1210
f 355/515 131/518 815/1211 775/1212
f 890/1213 889/1214 816/1215 613/1216
f 883/1217 880/1218 817/1219 614/1220
f 884/1221 881/1222 818/1223 615/1224
f 885/1225 882/1226 359/533 135/532
f 774/1210 813/1209 812/1227 611/1228
f 775/1212 815/1211 814/1208 612/1207
f 820/1229 895/1230 819/1231 891/1232 824/1233 886/1234 825/1235 887/1236 826/1237 888/1238 361/542 360/541 823/1239 822/1240 821/1241
f 884/1242 887/1243 825/1244 614/1245
f 885/1246 888/1247 826/1248 615/1249
f 894/1250 895/1251 820/1252 611/1253
f 611/1253 820/1252 821/1254 774/1255
f 774/1255 821/1254 822/1256 612/1257
f 612/1257 822/1256 823/1258 775/1259
f 775/1259 823/1258 360/571 355/570
f 890/1260 891/1261 819/1262 610/1263
f 936/1264 938/1265 831/1266 829/1267
f 941/1268 587/872 594/1269 937/1270
f 935/875 649/873 587/872 941/1268
f 652/1037 875/1271 830/1272
f 875/1271 874/1273 830/1272
f 874/1273 873/1274 830/1272
f 873/1274 872/1275 830/1272
f 872/1275 871/914 830/1272
f 654/1040 843/1276 848/1277 832/1036
f 843/1276 842/1278 849/1279 848/1277
f 842/1278 841/1280 850/1281 849/1279
f 841/1280 840/1282 851/1283 850/1281
f 840/1282 796/917 835/916 851/1283
f 911/989 845/1284 853/1285 599/890
f 845/1284 846/1286 854/1287 853/1285
f 846/1286 905/1288 855/1289 854/1287
f 905/1288 847/1290 856/1291 855/1289
f 847/1290 844/910 852/909 856/1291
f 655/1032 866/1292 867/1293 834/1042
f 866/1292 865/1294 868/1295 867/1293
f 865/1294 864/1296 869/1297 868/1295
f 864/1296 863/1298 870/1299 869/1297
f 863/1298 862/920 788/971 870/1299
f 599/890 853/1285 858/1300 857/1047
f 853/1285 854/1287 859/1301 858/1300
f 854/1287 855/1289 860/1302 859/1301
f 855/1289 856/1291 861/1303 860/1302
f 856/1291 852/909 790/980 861/1303
f 857/1047 858/1300 836/1304 833/1031
f 858/1300 859/1301 837/1305 836/1304
f 859/1301 860/1302 838/1306 837/1305
f 860/1302 861/1303 839/1307 838/1306
f 861/1303 790/980 797/921 839/1307
f 834/1042 867/1293 843/1276 654/1040
f 867/1293 868/1295 842/1278 843/1276
f 868/1295 869/1297 841/1280 842/1278
f 869/1297 870/1299 840/1282 841/1280
f 870/1299 788/971 796/917 840/1282
f 833/1031 836/1304 866/1292 655/1032
f 836/1304 837/1305 865/1294 866/1292
f 837/1305 838/1306 864/1296 865/1294
f 838/1306 839/1307 863/1298 864/1296
f 839/1307 797/921 862/920 863/1298
f 832/1036 848/1277 875/1271 652/1037
f 848/1277 849/1279 874/1273 875/1271
f 849/1279 850/1281 873/1274 874/1273
f 850/1281 851/1283 872/1275 873/1274
f 851/1283 835/916 871/914 872/1275
f 652/1037 830/1308 876/1046 942/1038
f 871/914 877/913 830/1272
f 789/978 620/1176 830/1272 877/913
f 830/1308 620/1034 650/879 876/1046
f 135/621 361/622 888/1247 885/1246
f 615/1249 826/1248 887/1243 884/1242
f 615/1224 818/1223 882/1226 885/1225
f 614/1220 817/1219 881/1222 884/1221
f 613/1216 816/1215 880/1218 883/1217
f 614/1245 825/1244 886/986 883/985
f 359/623 882/957 903/958 373/624
f 816/956 593/955 878/950 880/949
f 817/952 901/951 879/946 881/945
f 613/988 824/987 891/1261 890/1260
f 610/1206 811/1205 889/1214 890/1213
f 811/1309 844/910 892/954 889/953
f 610/1263 819/1262 895/1251 894/1250
f 611/1228 812/1227 893/1204 894/1203
f 811/1309 893/1310 844/910
f 602/911 844/910 893/1310 812/1178
f 899/1311 910/1312 908/1313 828/1314
f 828/1314 908/1313 909/1315 898/1316
f 371/1317 454/1318 906/1319 896/1320
f 512/1321 598/1322 904/1323 571/1324
f 896/1320 906/1319 907/1325 827/1326
f 901/1327 909/1328 908/1329 879/1330
f 909/1328 901/1327 878/1331
f 593/1332 846/1333 953/1334
f 846/1333 593/1332 905/1335
f 847/1336 892/1337 844/1338
f 373/655 903/1339 910/1340
f 373/655 906/1341 454/658
f 905/1335 892/1337 847/1336
f 905/1335 593/1332 892/1337
f 902/1342 910/1340 903/1339
f 879/1330 908/1329 902/1342
f 910/1340 902/1342 908/1329
f 953/1334 878/1331 593/1332
f 907/1343 373/655 910/1340
f 906/1341 373/655 907/1343
f 911/1344 954/1345 845/1346
f 953/1347 897/1348 909/1315
f 900/1349 911/1350 598/1351 512/1352
f 827/1326 907/1325 910/1312 899/1311
f 574/1353 904/1354 596/1355
f 574/1353 571/1356 904/1354
f 379/675 920/1357 926/1358 484/676
f 484/676 926/1358 922/1359 482/679
f 940/1360 925/1361 922/1359 937/1270
f 939/1362 924/1363 925/1361 940/1360
f 938/1265 923/1364 924/1363 939/1362
f 481/686 483/688 923/1364 921/1365
f 480/689 242/692 919/1366 918/1367
f 36/693 480/689 918/1367 913/1368
f 242/692 239/696 917/1369 919/1366
f 379/675 476/698 912/1370 920/1357
f 239/696 35/700 916/1371 917/1369
f 476/698 477/702 914/1372 912/1370
f 478/703 36/693 913/1368 915/1373
f 930/796 914/1372 915/1373 931/793
f 1/61 916/1371 35/700
f 538/786 930/796 931/793 539/789
f 831/1266 938/1265 939/1362 830/1374
f 830/1374 939/1362 940/1360 620/1375
f 620/1375 940/1360 937/1270 594/1269
f 920/1357 935/875 941/1268 926/1358
f 926/1358 941/1268 937/1270 922/1359
f 925/1361 375/707 482/679 922/1359
f 924/1363 376/708 375/707 925/1361
f 923/1364 483/688 376/708 924/1363
f 921/1365 923/1364 938/1265 936/1264
f 918/1367 919/1366 934/1113 933/1114
f 913/1368 918/1367 933/1114 929/794
f 919/1366 917/1369 932/797 934/1113
f 920/1357 912/1370 928/795 935/875
f 917/1369 916/1371 927/798 932/797
f 912/1370 914/1372 930/796 928/795
f 915/1373 913/1368 929/794 931/793
f 914/1372 477/702 478/703 915/1373
f 1/61 927/798 916/1371
f 949/1044 557/1376 558/887 656/1043
f 557/1376 949/1044 948/880 577/883
f 576/1377 944/1033 947/1041 580/1378
f 580/1378 947/1041 943/1039 556/1379
f 556/1379 943/1039 946/1035 566/1380
f 566/1380 946/1035 942/1038 555/1381
f 567/882 945/881 944/1033 576/1377
f 857/1047 833/1031 945/881 948/880
f 876/1046 592/1045 555/1381 942/1038
f 573/1382 950/893 952/896 597/1383
f 562/828 951/836 950/838 573/835 561/818
f 656/1043 952/1384 596/891
f 574/837 951/836 578/820 543/839
f 597/886 952/1384 656/1043 558/887
f 909/1315 897/1348 898/1316
f 897/1348 953/1347 954/1385
f 845/1346 954/1345 846/1333
f 900/1349 897/1348 954/1385 911/1350
f 878/1331 953/1334 909/1328
f 846/1333 954/1345 953/1334
