# Blender 4.4.3
# www.blender.org
mtllib mesh.mtl
o common_car_a
v 0.524966 0.099988 1.500183
v 0.945062 0.235014 1.500183
v 0.340007 0.618036 -0.685020
v -0.774997 0.501111 0.099988
v -0.726987 0.495968 -1.456104
v 0.669998 0.234892 -1.525619
v 0.726987 0.234892 -1.456104
v -0.727988 0.225003 -1.456617
v -0.670486 0.225003 -1.526132
v 0.703986 0.495968 -1.496612
v 0.739000 0.495968 -1.405121
v -0.670486 0.501111 -1.526132
v 0.299963 0.199976 1.400073
v -0.299963 0.199976 1.400073
v -0.299963 0.573060 1.450128
v -0.109999 0.099988 -1.342571
v 0.109999 0.099988 -1.342571
v 0.419973 0.099988 -1.067513
v 0.740001 0.225003 -1.405121
v -0.950067 0.225003 1.500183
v -0.740001 0.225003 -1.405121
v 0.945062 0.495968 1.500183
v 0.524966 0.585920 1.500183
v -0.524966 0.598716 1.500183
v 0.524966 0.598716 -0.375046
v 0.587474 0.573060 0.250030
v 0.769992 0.235014 0.099988
v 0.299963 0.573060 1.450128
v 0.299963 0.225003 1.450128
v 0.000000 0.573060 1.450128
v -0.299963 0.225003 1.450128
v 0.470028 0.609003 -0.549994
v -0.524966 0.598716 -0.375046
v -0.740001 0.501111 -1.405121
v -0.472470 0.609003 -0.549994
v -0.342449 0.618036 -0.685020
v -0.524966 0.099988 0.099988
v -0.475034 0.099988 -0.850079
v -0.419973 0.099988 -1.067513
v 0.624973 0.225003 -1.545128
v 0.159932 0.614147 -0.750092
v -0.450006 0.582561 1.160054
v -0.439995 0.603135 1.500183
v 0.365035 0.603135 1.500183
v 0.358442 0.589774 1.160054
v -0.299963 0.149921 0.125015
v 0.299963 0.149921 0.125015
v 0.475034 0.099988 -0.850079
v 0.299963 0.099988 0.099988
v 0.299963 0.149921 1.400073
v -0.299963 0.149921 1.400073
v -0.294958 0.099988 -1.242583
v 0.294958 0.099988 -1.242583
v -0.774997 0.501112 0.475034
v -0.524966 0.598716 0.625076
v -0.774997 0.225003 0.475034
v -0.587474 0.573060 0.250030
v -0.950067 0.501112 0.475034
v 0.624973 0.495968 -1.544127
v 0.524966 0.598716 0.625076
v 0.906361 0.501112 0.475034
v 0.774997 0.501112 0.475034
v -0.774997 0.225003 0.099988
v 0.299963 0.099988 0.475034
v 0.524966 0.099988 0.099988
v -0.299963 0.099988 0.475034
v -0.299963 0.099988 0.099988
v 0.774997 0.225003 0.475034
v -0.945062 0.495968 1.500183
v -0.945062 0.235014 0.475034
v 0.769992 0.495968 0.099988
v 0.945062 0.235014 0.475034
v 0.000000 0.628323 1.025028
v -0.174948 0.624434 1.000122
v 0.475034 0.603922 0.782566
v 0.299963 0.616719 0.950067
v -0.299963 0.616719 0.950067
v -0.199976 0.147479 0.850079
v 0.199976 0.147479 0.850079
v -0.199976 0.147479 1.300085
v 0.199976 0.147479 1.300085
v -0.199976 0.147479 0.250030
v 0.199976 0.147479 0.250030
v -0.199976 0.147479 0.700037
v 0.199976 0.147479 0.700037
v 0.049933 0.774997 1.575143
v 0.049933 0.774997 1.200098
v 0.950067 0.675009 1.550116
v -0.049933 0.850080 1.250153
v -0.049933 0.850080 1.575143
v 0.049933 0.850080 1.250031
v 0.950067 0.700037 1.725186
v -0.049933 0.774997 1.200098
v -0.049933 0.774997 1.575143
v -0.950067 0.675009 1.725186
v 0.049933 0.850080 1.575143
v -0.950067 0.675009 1.550116
v 0.424979 0.603135 1.190087
v 0.379929 0.740081 1.375168
v 0.424979 0.603135 1.485167
v 0.424979 0.735075 1.575143
v -0.424979 0.735075 1.375168
v -0.379929 0.603135 1.485167
v -0.379929 0.603135 1.190087
v -0.424979 0.735075 1.575143
v 0.299963 0.049933 0.475034
v -0.299963 0.049933 1.625198
v 0.299963 0.049933 1.625198
v -0.524966 0.099988 0.475034
v -0.524966 0.049933 0.475034
v -0.524966 0.099988 1.500183
v -0.299963 0.049933 0.475034
v -0.524966 0.049933 1.625198
v 0.495056 0.079966 1.585154
v 0.329996 0.079966 1.585154
v 0.495056 0.583222 1.585154
v -0.495056 0.583222 1.585154
v -0.329996 0.079966 1.585154
v -0.299963 0.616719 1.625198
v 0.524966 0.049933 1.625198
v 0.524966 0.049933 0.475034
v 0.524966 0.598716 1.625198
v 0.524966 0.099988 0.475034
v -0.524966 0.598716 1.625198
v -0.394946 0.610321 0.879990
v 0.299963 0.616719 1.625198
v 0.329996 0.593259 1.585154
v -0.329996 0.593259 1.585154
v -0.495056 0.079966 1.585154
v -0.299963 0.490824 1.450128
v 0.299963 0.490824 1.450128
v -0.174948 0.623180 -0.750092
v 0.174948 0.624434 1.000122
v 0.394946 0.610321 0.879990
v -0.475034 0.603922 0.782566
v -0.583812 0.279942 1.610182
v 0.664998 0.279942 1.506654
v 0.583812 0.279942 1.610182
v 0.599316 0.232206 1.610182
v 0.730802 0.327677 1.610182
v 0.639849 0.357221 1.610182
v -0.730802 0.327677 1.610182
v -0.639849 0.357221 1.610182
v -0.690148 0.202662 1.610182
v -0.730802 0.232206 1.610182
v -0.664998 0.279942 1.506654
v 0.746307 0.279942 1.610182
v 0.730802 0.232206 1.610182
v 0.690148 0.202662 1.610182
v -0.745941 0.221219 1.500183
v -0.695886 0.184837 1.500183
v -0.634111 0.184837 1.500183
v -0.639849 0.202662 1.610182
v -0.584056 0.221219 1.500183
v -0.599316 0.232206 1.610182
v -0.565010 0.279942 1.500183
v -0.584056 0.338787 1.500183
v -0.599316 0.327677 1.610182
v -0.634111 0.375046 1.500183
v -0.695886 0.375046 1.500183
v -0.690148 0.357221 1.610182
v -0.745941 0.338787 1.500183
v -0.764986 0.279942 1.500183
v -0.746307 0.279942 1.610182
v 0.745941 0.338787 1.500183
v 0.695886 0.375046 1.500183
v 0.690148 0.357221 1.610182
v 0.634111 0.375046 1.500183
v 0.584056 0.338787 1.500183
v 0.599316 0.327677 1.610182
v 0.565010 0.279942 1.500183
v 0.584056 0.221219 1.500183
v 0.634111 0.184837 1.500183
v 0.639849 0.202662 1.610182
v 0.695886 0.184837 1.500183
v 0.745941 0.221219 1.500183
v 0.764986 0.279942 1.500183
v -0.197046 0.595266 1.100110
v -0.030765 0.578643 1.375046
v -0.144061 0.595266 1.100110
v 0.030765 0.578643 1.375046
v -0.249908 0.594074 1.100110
v -0.249908 0.584351 1.280064
v -0.249908 0.578643 1.375046
v 0.249908 0.578643 1.375046
v 0.249908 0.594074 1.100110
v 0.249908 0.584351 1.280064
v 0.197046 0.595266 1.100110
v 0.144061 0.595266 1.100110
v 0.000000 0.596583 1.100110
v 0.500061 0.553364 -0.975095
v 0.500061 0.526955 -1.198633
v 0.430350 0.567603 -0.975095
v 0.500061 0.519553 -1.250153
v 0.375046 0.574377 -0.975095
v 0.375046 0.534859 -1.250153
v -0.374924 0.534859 -1.250153
v -0.499939 0.526955 -1.198633
v -0.499939 0.519553 -1.250153
v -0.499939 0.553364 -0.975095
v -0.430350 0.567603 -0.975095
v -0.374924 0.574377 -0.975095
v 0.340007 0.618036 -0.685020
v 0.524966 0.598716 -0.375046
v 0.470028 0.609003 -0.549994
v -0.524966 0.598716 -0.375046
v -0.472470 0.609003 -0.549994
v -0.342449 0.618036 -0.685020
v 0.159932 0.614147 -0.750092
v -0.524966 0.598716 0.625076
v 0.524966 0.598716 0.625076
v 0.475034 0.662949 0.499939
v -0.524966 0.598716 -0.314980
v 0.524966 0.598716 -0.314980
v 0.000000 0.783763 0.534977
v 0.000000 0.628323 1.025028
v -0.174948 0.770904 0.534977
v -0.174948 0.624434 1.000122
v 0.475034 0.662949 -0.104993
v 0.475034 0.603922 0.782566
v 0.299963 0.616719 0.950067
v -0.350018 0.727183 0.534977
v -0.299963 0.616719 0.950067
v -0.475034 0.662949 0.499939
v -0.485045 0.650153 -0.120010
v -0.394946 0.610321 0.879990
v -0.174948 0.623180 -0.750092
v 0.174948 0.624434 1.000122
v 0.394946 0.610321 0.879990
v -0.475034 0.603922 0.782566
v 0.174948 0.770904 -0.104993
v -0.350018 0.727183 -0.104993
v -0.174948 0.770904 -0.104993
v 0.174948 0.770904 0.499939
v 0.350018 0.727183 0.499939
v 0.350018 0.727183 -0.134904
v 0.000000 0.783763 -0.134904
vn 0.9359 -0.2695 0.2270
vn 0.6632 -0.4472 0.6002
vn 0.0577 0.9976 -0.0371
vn -0.7685 0.6259 -0.1332
vn -0.7301 0.5832 -0.3562
vn 0.5335 -0.5458 -0.6461
vn 0.7219 -0.5534 -0.4154
vn -0.7357 -0.5645 -0.3743
vn -0.3879 -0.5296 -0.7544
vn 0.6138 0.6030 -0.5096
vn 0.7804 0.6048 -0.1588
vn -0.3618 0.5882 -0.7233
vn -0.0000 -0.5257 0.8506
vn -0.0190 0.6656 0.7461
vn -0.0217 -0.9586 -0.2841
vn 0.0199 -0.9619 -0.2725
vn 0.1585 -0.9854 -0.0622
vn 0.7290 -0.6480 -0.2207
vn -0.6498 -0.4818 0.5880
vn -0.8186 -0.5619 -0.1190
vn 0.6277 0.5251 0.5747
vn 0.4411 0.8653 0.2381
vn -0.4102 0.8765 0.2518
vn 0.2133 0.9770 0.0058
vn 0.3778 0.9259 -0.0049
vn 0.8198 -0.5583 -0.1274
vn 0.0111 0.6674 0.7446
vn -0.0000 -0.5257 0.8507
vn -0.0016 0.6640 0.7477
vn 0.1455 0.9894 -0.0013
vn -0.2146 0.9767 0.0084
vn -0.7628 0.6326 -0.1338
vn -0.1412 0.9900 -0.0008
vn -0.0616 0.9978 -0.0249
vn -0.2269 -0.9739 -0.0039
vn -0.2145 -0.9766 -0.0149
vn -0.1472 -0.9874 -0.0572
vn 0.2475 -0.5960 -0.7639
vn 0.0087 0.9947 -0.1022
vn -0.4600 0.7487 -0.4773
vn -0.7761 -0.2325 0.5861
vn -0.7877 -0.1121 0.6057
vn -0.3951 0.7711 -0.4993
vn 0.5963 -0.7112 0.3723
vn -0.5963 -0.7112 0.3723
vn 0.2173 -0.9760 -0.0124
vn -0.1939 -0.9496 0.2462
vn -0.0000 -0.6878 0.7259
vn -0.0955 -0.9885 -0.1172
vn 0.1028 -0.9876 -0.1190
vn -0.1285 0.9632 -0.2362
vn -0.1379 0.9901 -0.0257
vn -0.1930 -0.7219 -0.6645
vn -0.3693 0.9293 -0.0017
vn -0.7603 0.6176 -0.2014
vn 0.2045 0.6094 -0.7660
vn 0.1405 0.9899 -0.0211
vn 0.7251 0.6603 -0.1954
vn 0.1301 0.9616 -0.2416
vn -0.7953 -0.5924 -0.1287
vn -0.4532 -0.8377 -0.3048
vn 0.2482 -0.9687 -0.0106
vn 0.4532 -0.8377 -0.3048
vn 0.1939 -0.9496 0.2462
vn 0.1976 -0.7128 -0.6729
vn -0.6302 0.4976 0.5960
vn -0.7847 -0.5850 -0.2047
vn 0.7804 0.6132 -0.1224
vn 0.8064 -0.5547 -0.2050
vn 0.0072 1.0000 -0.0028
vn -0.0297 0.9994 -0.0152
vn 0.0778 0.9969 -0.0106
vn -0.2957 0.9549 -0.0256
vn 0.3084 0.9509 -0.0273
vn -0.0000 -1.0000 -0.0000
vn -0.0987 -0.7052 0.7021
vn 0.1469 -0.4270 -0.8922
vn 0.8994 -0.1930 -0.3922
vn -0.1555 0.8600 -0.4861
vn -0.0236 0.7444 0.6673
vn 0.1539 0.8547 -0.4958
vn 0.8132 -0.0365 0.5808
vn -0.1439 -0.4194 -0.8963
vn 0.1009 -0.7107 0.6962
vn -0.7793 -0.1189 0.6153
vn 0.0222 0.7510 0.6599
vn -0.9186 -0.1399 -0.3695
vn 0.3747 0.7703 -0.5159
vn -0.2332 0.9549 -0.1838
vn 0.8685 -0.2792 0.4095
vn 0.1866 0.5491 0.8147
vn -0.0973 0.9906 -0.0961
vn 0.9177 0.0441 0.3948
vn 0.2955 0.8104 -0.5058
vn -0.0630 0.6139 0.7868
vn -0.5774 -0.5774 -0.5774
vn 0.4592 -0.4591 0.7605
vn -0.4592 -0.4592 0.7605
vn -0.4951 -0.8103 -0.3135
vn -0.5774 -0.5773 -0.5773
vn -0.9345 -0.2712 0.2305
vn 0.5774 -0.5773 -0.5773
vn -0.4592 -0.4588 0.7607
vn -0.3565 0.3556 0.8640
vn 0.3557 0.3557 0.8643
vn -0.3658 -0.4320 0.8244
vn 0.3658 -0.4320 0.8244
vn -0.3557 0.3557 0.8643
vn 0.4200 0.4909 0.7633
vn 0.4592 -0.4588 0.7607
vn 0.5774 -0.5774 -0.5774
vn 0.3835 0.5049 0.7733
vn 0.5025 -0.8050 -0.3155
vn -0.4090 0.4491 0.7944
vn -0.0432 0.9986 -0.0320
vn -0.4038 0.5075 0.7611
vn 0.3331 -0.4432 0.8322
vn -0.3331 -0.4432 0.8322
vn 0.3565 0.3556 0.8640
vn -0.0018 0.9999 -0.0106
vn 0.0327 0.9994 -0.0141
vn 0.0581 0.9980 -0.0252
vn -0.0555 0.9983 -0.0189
vn 0.3990 -0.0002 0.9169
vn 0.0003 -0.0000 1.0000
vn -0.3990 -0.0002 0.9169
vn -0.3226 -0.2345 0.9170
vn 0.3232 0.2347 0.9168
vn -0.1230 0.3805 0.9166
vn -0.3232 0.2347 0.9168
vn 0.1230 0.3805 0.9165
vn -0.1236 -0.3800 0.9167
vn -0.3235 -0.2348 0.9166
vn -0.0003 -0.0000 1.0000
vn 0.3998 -0.0002 0.9166
vn 0.3235 -0.2348 0.9166
vn 0.1236 -0.3800 0.9167
vn -0.7977 -0.5793 0.1676
vn -0.3046 -0.9376 0.1678
vn 0.3049 -0.9374 0.1680
vn 0.1236 -0.3803 0.9166
vn 0.7979 -0.5789 0.1683
vn 0.3226 -0.2345 0.9170
vn 0.9857 -0.0002 0.1687
vn 0.7976 0.5792 0.1686
vn 0.3223 0.2344 0.9172
vn 0.3045 0.9375 0.1682
vn -0.3042 0.9377 0.1680
vn -0.1231 0.3802 0.9167
vn -0.7974 0.5796 0.1679
vn -0.9859 -0.0002 0.1676
vn -0.3998 -0.0002 0.9166
vn 0.7974 0.5796 0.1679
vn 0.3042 0.9377 0.1680
vn 0.1231 0.3802 0.9167
vn -0.3045 0.9375 0.1682
vn -0.7976 0.5792 0.1686
vn -0.3223 0.2344 0.9172
vn -0.9857 -0.0002 0.1687
vn -0.7979 -0.5789 0.1683
vn -0.3049 -0.9374 0.1680
vn -0.1236 -0.3803 0.9166
vn 0.3046 -0.9376 0.1678
vn 0.7977 -0.5793 0.1676
vn 0.9859 -0.0002 0.1676
vn -0.0093 0.9983 0.0577
vn -0.0015 0.9980 0.0632
vn -0.0034 0.9981 0.0618
vn 0.0015 0.9980 0.0631
vn -0.0225 0.9983 0.0539
vn -0.0038 0.9982 0.0594
vn -0.0002 0.9982 0.0603
vn -0.0000 0.9982 0.0600
vn 0.0225 0.9983 0.0539
vn 0.0022 0.9982 0.0597
vn 0.0093 0.9983 0.0578
vn 0.0034 0.9981 0.0618
vn -0.0000 0.9979 0.0642
vn 0.1988 0.9733 -0.1150
vn 0.1279 0.9820 -0.1387
vn 0.1516 0.9797 -0.1309
vn 0.1203 0.9826 -0.1412
vn -0.1203 0.9826 -0.1412
vn -0.1279 0.9820 -0.1387
vn -0.1991 0.9732 -0.1150
vn -0.1517 0.9797 -0.1309
vn 0.1312 0.9665 -0.2206
vn 0.5404 0.8356 -0.0988
vn 0.2973 0.9387 -0.1744
vn -0.5223 0.8481 -0.0893
vn -0.3117 0.9361 -0.1632
vn -0.1989 0.9600 -0.1971
vn 0.0510 0.9675 -0.2477
vn -0.6411 0.7560 0.1322
vn 0.6411 0.7560 0.1322
vn 0.6171 0.7844 0.0617
vn -0.7900 0.6131 -0.0000
vn 0.7895 0.6137 -0.0000
vn 0.0077 0.9874 0.1579
vn 0.0142 0.9549 0.2965
vn -0.1523 0.9775 0.1462
vn -0.1130 0.9475 0.2990
vn 0.6288 0.7770 -0.0295
vn 0.4076 0.8867 0.2184
vn 0.2198 0.9394 0.2630
vn -0.3522 0.9271 0.1280
vn -0.2114 0.9340 0.2879
vn -0.6290 0.7757 0.0517
vn -0.6390 0.7685 -0.0313
vn -0.3014 0.9143 0.2705
vn -0.0753 0.9697 -0.2324
vn 0.1417 0.9494 0.2804
vn 0.2844 0.9253 0.2509
vn -0.4299 0.8735 0.2283
vn 0.1573 0.9826 -0.0987
vn -0.3367 0.9382 -0.0803
vn -0.1500 0.9836 -0.1006
vn 0.1546 0.9793 0.1307
vn 0.3327 0.9357 0.1177
vn 0.3420 0.9354 -0.0900
vn 0.0031 0.9915 -0.1303
vt 0.082022 0.412847
vt 0.280180 0.409901
vt 0.271208 0.439799
vt 0.091882 0.442450
vt 0.473097 0.030363
vt 0.525420 0.136935
vt 0.514582 0.315916
vt 0.461378 0.315224
vt 0.083838 0.578041
vt 0.002751 0.579181
vt 0.007313 0.385586
vt 0.863036 0.338227
vt 0.863036 0.225113
vt 0.872473 0.225113
vt 0.872473 0.338227
vt 0.654577 0.756690
vt 0.671191 0.584400
vt 0.685346 0.584216
vt 0.056951 0.002751
vt 0.147231 0.152830
vt 0.113643 0.165568
vt 0.125393 0.473671
vt 0.149177 0.482725
vt 0.126767 0.568511
vt 0.183399 0.567718
vt 0.372114 0.256283
vt 0.421336 0.247088
vt 0.421379 0.264472
vt 0.238616 0.472008
vt 0.240030 0.566849
vt 0.215112 0.481761
vt 0.340601 0.824117
vt 0.233735 0.824117
vt 0.331163 0.607257
vt 0.340601 0.607257
vt 0.182213 0.486888
vt 0.594217 0.046503
vt 0.733095 0.002751
vt 0.635165 0.046150
vt 0.487885 0.006432
vt 0.559625 0.064173
vt 0.669781 0.064108
vt 0.742638 0.006836
vt 0.919899 0.334087
vt 0.919899 0.384029
vt 0.907393 0.342167
vt 0.703840 0.137331
vt 0.756930 0.030865
vt 0.767100 0.316219
vt 0.909580 0.393845
vt 0.960279 0.393711
vt 0.958782 0.587134
vt 0.909580 0.587134
vt 0.428089 0.776291
vt 0.431961 0.594419
vt 0.448975 0.594416
vt 0.638787 0.876652
vt 0.648201 0.871934
vt 0.648201 0.942647
vt 0.079483 0.224281
vt 0.067958 0.342317
vt 0.029892 0.314244
vt 0.283060 0.575186
vt 0.362065 0.380124
vt 0.364744 0.573763
vt 0.370246 0.794853
vt 0.435871 0.794853
vt 0.435871 0.851410
vt 0.370246 0.907967
vt 0.435871 0.907967
vt 0.035098 0.029541
vt 0.089551 0.191236
vt 0.126999 0.601096
vt 0.107270 0.460655
vt 0.041877 0.012052
vt 0.315976 0.025670
vt 0.277070 0.221377
vt 0.266539 0.188677
vt 0.313112 0.015839
vt 0.241744 0.163757
vt 0.301748 0.002751
vt 0.329384 0.309696
vt 0.292183 0.338990
vt 0.713785 0.316614
vt 0.300547 0.955321
vt 0.281113 0.960191
vt 0.277746 0.954439
vt 0.291023 0.939185
vt 0.754158 0.020530
vt 0.693363 0.096620
vt 0.578361 0.564473
vt 0.550071 0.393711
vt 0.583080 0.393711
vt 0.649074 0.564473
vt 0.476154 0.020206
vt 0.346103 0.838988
vt 0.346103 0.725873
vt 0.356634 0.725873
vt 0.356634 0.838988
vt 0.157991 0.829619
vt 0.237199 0.848992
vt 0.238143 0.900082
vt 0.157991 0.923653
vt 0.805445 0.375961
vt 0.805445 0.319094
vt 0.852535 0.323208
vt 0.929976 0.308659
vt 0.979178 0.308659
vt 0.980148 0.383902
vt 0.929525 0.386696
vt 0.002751 0.871050
vt 0.081959 0.854090
vt 0.081959 0.945711
vt 0.002751 0.920252
vt 0.986371 0.002751
vt 0.986371 0.087598
vt 0.910961 0.087598
vt 0.910961 0.002751
vt 0.670914 0.316613
vt 0.412670 0.789351
vt 0.370246 0.789351
vt 0.370246 0.572491
vt 0.412670 0.572491
vt 0.210166 0.152129
vt 0.544197 0.585489
vt 0.487486 0.758336
vt 0.454477 0.758307
vt 0.482921 0.585434
vt 0.256359 0.458460
vt 0.887399 0.322922
vt 0.877976 0.328585
vt 0.877975 0.225113
vt 0.887399 0.228034
vt 0.346103 0.901504
vt 0.356626 0.844490
vt 0.356626 0.923926
vt 0.313906 0.886164
vt 0.301096 0.916586
vt 0.301096 0.829619
vt 0.910961 0.093100
vt 0.918976 0.145194
vt 0.910961 0.176299
vt 0.319408 0.829619
vt 0.327423 0.860724
vt 0.319408 0.912818
vt 0.908795 0.939271
vt 0.964304 0.951626
vt 0.908795 0.997249
vt 0.965395 0.815464
vt 0.965395 0.740215
vt 0.988672 0.807001
vt 0.965395 0.820966
vt 0.974809 0.825685
vt 0.965395 0.891680
vt 0.409223 0.913469
vt 0.442232 0.984183
vt 0.409223 0.984183
vt 0.794319 0.957075
vt 0.690848 0.957075
vt 0.690848 0.933504
vt 0.784882 0.933504
vt 0.370528 0.002751
vt 0.422587 0.002811
vt 0.370246 0.247032
vt 0.460562 0.386711
vt 0.428089 0.386340
vt 0.799942 0.388209
vt 0.767386 0.387908
vt 0.557438 0.316201
vt 0.556757 0.387729
vt 0.513846 0.387320
vt 0.372150 0.273232
vt 0.421408 0.282943
vt 0.370318 0.283159
vt 0.979704 0.302758
vt 0.929525 0.303157
vt 0.929525 0.225118
vt 0.981584 0.225113
vt 0.857532 0.029731
vt 0.805473 0.029726
vt 0.806444 0.019805
vt 0.857534 0.019761
vt 0.422587 0.566784
vt 0.373386 0.566989
vt 0.482938 0.566605
vt 0.544237 0.566659
vt 0.549739 0.952866
vt 0.550086 0.759566
vt 0.633285 0.759566
vt 0.633285 0.952854
vt 0.714019 0.388117
vt 0.671067 0.388209
vt 0.536015 0.096430
vt 0.857504 0.313591
vt 0.805444 0.313586
vt 0.229978 0.929155
vt 0.229978 0.971578
vt 0.220540 0.971578
vt 0.220540 0.929155
vt 0.356655 0.607257
vt 0.356655 0.720371
vt 0.346103 0.720371
vt 0.346103 0.607257
vt 0.121367 0.829619
vt 0.152489 0.831512
vt 0.152489 0.926399
vt 0.121367 0.926399
vt 0.537676 0.763838
vt 0.537676 0.957127
vt 0.454477 0.957127
vt 0.454477 0.763838
vt 0.115865 0.673920
vt 0.002751 0.673920
vt 0.002751 0.607257
vt 0.115865 0.607257
vt 0.935414 0.720161
vt 0.927146 0.725545
vt 0.927146 0.682986
vt 0.935671 0.688983
vt 0.431970 0.575590
vt 0.448972 0.575587
vt 0.454477 0.394574
vt 0.487811 0.393711
vt 0.654576 0.393711
vt 0.685101 0.565388
vt 0.670946 0.565572
vt 0.649074 0.583302
vt 0.583080 0.754063
vt 0.549739 0.753552
vt 0.578361 0.583302
vt 0.428089 0.393711
vt 0.654577 0.927192
vt 0.672611 0.874560
vt 0.672611 0.951305
vt 0.956464 0.169845
vt 0.956464 0.093100
vt 0.972090 0.134482
vt 0.114383 0.854090
vt 0.114383 0.918281
vt 0.087461 0.895800
vt 0.088215 0.934454
vt 0.921644 0.682986
vt 0.921644 0.732631
vt 0.909580 0.690074
vt 0.370246 0.957908
vt 0.403721 0.913469
vt 0.381035 0.987275
vt 0.403721 0.957159
vt 0.938840 0.181801
vt 0.934718 0.211628
vt 0.927188 0.181801
vt 0.950962 0.093100
vt 0.950962 0.157376
vt 0.924478 0.135442
vt 0.926873 0.173071
vt 0.956464 0.217771
vt 0.956464 0.175347
vt 0.965902 0.175347
vt 0.965902 0.217771
vt 0.228233 0.824117
vt 0.121367 0.824117
vt 0.228233 0.696823
vt 0.121367 0.607257
vt 0.130805 0.607257
vt 0.784882 0.740215
vt 0.794319 0.740215
vt 0.799822 0.957075
vt 0.809259 0.933503
vt 0.900880 0.933503
vt 0.903293 0.957075
vt 0.233735 0.696823
vt 0.905459 0.219611
vt 0.863036 0.219611
vt 0.863036 0.002751
vt 0.905459 0.002751
vt 0.664014 0.863395
vt 0.654577 0.869058
vt 0.654577 0.762192
vt 0.664014 0.766615
vt 0.950610 0.719770
vt 0.941173 0.725409
vt 0.941173 0.682986
vt 0.950610 0.688648
vt 0.956113 0.682986
vt 0.965550 0.688625
vt 0.965550 0.719747
vt 0.956113 0.725409
vt 0.638787 0.763989
vt 0.648224 0.759566
vt 0.648224 0.866431
vt 0.638787 0.860769
vt 0.871560 0.380291
vt 0.863036 0.386289
vt 0.863036 0.343729
vt 0.871303 0.349113
vt 0.678940 0.865663
vt 0.669516 0.860001
vt 0.669516 0.765113
vt 0.678940 0.762192
vt 0.799822 0.740215
vt 0.809259 0.740215
vt 0.283473 0.598808
vt 0.240829 0.599544
vt 0.084397 0.601755
vt 0.921686 0.181801
vt 0.921686 0.213087
vt 0.910961 0.186411
vt 0.924023 0.320000
vt 0.892901 0.321893
vt 0.892901 0.225113
vt 0.924023 0.225113
vt 0.115865 0.848588
vt 0.002751 0.848588
vt 0.959893 0.933769
vt 0.908795 0.933508
vt 0.908795 0.740215
vt 0.958975 0.740471
vt 0.805444 0.002841
vt 0.857504 0.002751
vt 0.877976 0.334087
vt 0.901720 0.334420
vt 0.901891 0.386813
vt 0.891387 0.386666
vt 0.074390 0.956848
vt 0.080641 0.967151
vt 0.062546 0.971086
vt 0.080635 0.979343
vt 0.074156 0.990219
vt 0.032691 0.985321
vt 0.021874 0.990944
vt 0.020846 0.971086
vt 0.009236 0.990219
vt 0.002757 0.979343
vt 0.032467 0.951938
vt 0.038945 0.962814
vt 0.038945 0.975019
vt 0.061518 0.990944
vt 0.044447 0.975019
vt 0.044447 0.962814
vt 0.050701 0.985321
vt 0.063564 0.951213
vt 0.050925 0.951938
vt 0.002751 0.967151
vt 0.019829 0.951213
vt 0.009002 0.956848
vt 0.215038 0.974180
vt 0.195182 0.965653
vt 0.194843 0.959321
vt 0.214623 0.954887
vt 0.244087 0.966920
vt 0.263545 0.962430
vt 0.266700 0.968124
vt 0.253533 0.983076
vt 0.205294 0.938629
vt 0.191789 0.953378
vt 0.186147 0.950424
vt 0.188687 0.929155
vt 0.205132 0.992506
vt 0.192099 0.970430
vt 0.168006 0.929155
vt 0.180411 0.951159
vt 0.177498 0.955758
vt 0.157991 0.947294
vt 0.177807 0.962007
vt 0.158356 0.966486
vt 0.180932 0.967722
vt 0.167736 0.982686
vt 0.186374 0.970858
vt 0.184320 0.992321
vt 0.300833 0.974494
vt 0.280961 0.966502
vt 0.272301 0.951081
vt 0.274364 0.929550
vt 0.253556 0.929367
vt 0.266602 0.951444
vt 0.263443 0.956210
vt 0.243645 0.947697
vt 0.270125 0.992623
vt 0.272073 0.971435
vt 0.277529 0.971133
vt 0.290818 0.992623
vt 0.984989 0.592636
vt 0.984989 0.677484
vt 0.909580 0.677484
vt 0.909580 0.592636
vt 0.243645 0.882543
vt 0.295594 0.876742
vt 0.295578 0.903905
vt 0.295578 0.913896
vt 0.976308 0.446290
vt 0.965781 0.446438
vt 0.965952 0.394044
vt 0.989665 0.403525
vt 0.243645 0.870941
vt 0.295565 0.923865
vt 0.261585 0.923862
vt 0.243645 0.923862
vt 0.261585 0.829622
vt 0.243645 0.829623
vt 0.295565 0.829619
vt 0.295578 0.839589
vt 0.295578 0.849579
vt 0.877976 0.386341
vt 0.878007 0.343900
vt 0.989697 0.393711
vt 0.989697 0.445965
vt 0.144054 0.996824
vt 0.087461 0.984228
vt 0.144054 0.939956
vt 0.352064 0.986113
vt 0.309766 0.929428
vt 0.356626 0.929428
vt 0.862733 0.406272
vt 0.862948 0.518524
vt 0.829465 0.519220
vt 0.830178 0.394057
vt 0.766152 0.393711
vt 0.764685 0.519351
vt 0.731395 0.406483
vt 0.863189 0.638056
vt 0.829695 0.637444
vt 0.902993 0.476879
vt 0.891979 0.514665
vt 0.901285 0.465032
vt 0.690848 0.477395
vt 0.692608 0.465452
vt 0.704910 0.518048
vt 0.797059 0.514021
vt 0.831685 0.729982
vt 0.856539 0.720488
vt 0.690848 0.657661
vt 0.705077 0.632809
vt 0.702795 0.688594
vt 0.731373 0.631886
vt 0.719385 0.707376
vt 0.738566 0.720711
vt 0.889676 0.632301
vt 0.904077 0.657118
vt 0.892343 0.688121
vt 0.875749 0.707050
vt 0.797552 0.734713
vt 0.797370 0.637302
vt 0.764922 0.631164
vt 0.731337 0.513234
vt 0.705499 0.432023
vt 0.763392 0.730099
vt 0.888731 0.431697
s 1
usemtl Material
f 60/1/57 55/2/52 135/3/123 75/4/72
f 21/5/20 38/6/36 37/7/35 63/8/60
f 23/9/22 22/10/21 61/11/58 60/1/57
f 51/12/48 50/13/48 13/14/13 14/15/13
f 95/16/85 94/17/84 90/18/80
f 59/19/56 41/20/39 3/21/3
f 76/22/73 133/23/121 28/24/27
f 28/24/27 133/23/121 30/25/29
f 6/26/6 59/27/56 10/28/10
f 77/29/74 15/30/14 74/31/71
f 108/32/98 126/33/116 64/34/61 106/35/96
f 73/36/70 30/25/29 133/23/121
f 16/37/15 40/38/38 17/39/16
f 9/40/9 16/37/15 52/41/49
f 53/42/50 40/38/38 6/43/6
f 42/44/40 102/45/92 104/46/94
f 48/47/46 19/48/18 27/49/26
f 72/50/69 61/51/58 22/52/21 2/53/2
f 97/54/87 89/55/79 93/56/83
f 47/57/45 49/58/47 64/59/61
f 25/60/24 60/1/57 26/61/25
f 25/60/24 26/61/25 71/62/68
f 24/63/23 55/2/52 58/64/55 69/65/66
f 29/66/28 28/67/27 30/68/29
f 29/66/28 30/68/29 31/69/28
f 31/69/28 30/68/29 15/70/14
f 25/60/24 71/62/68 11/71/11
f 25/60/24 11/71/11 32/72/30
f 126/73/116 23/9/22 134/74/122 76/22/73
f 3/21/3 10/75/10 59/19/56
f 34/76/32 33/77/31 35/78/33
f 5/79/5 36/80/34 12/81/12
f 34/76/32 4/82/4 57/83/54
f 34/76/32 57/83/54 33/77/31
f 33/77/31 57/83/54 55/2/52
f 48/47/46 27/49/26 65/84/62
f 152/85/140 153/86/141 144/87/132 151/88/139
f 7/89/7 48/47/46 18/90/17
f 94/91/84 95/92/85 97/93/87 93/94/83
f 52/41/49 8/95/8 9/40/9
f 16/37/15 9/40/9 40/38/38
f 67/96/64 49/97/47 47/98/45 46/99/44
f 24/100/23 69/101/66 20/102/19 111/103/101
f 54/104/51 57/105/54 4/106/4
f 27/107/26 71/108/68 61/109/58 72/110/69
f 22/111/21 23/112/22 1/113/1 2/114/2
f 79/115/75 81/116/75 80/117/75 78/118/75
f 16/37/15 17/39/16 53/42/50 52/41/49
f 49/119/47 48/47/46 65/84/62
f 107/120/97 113/121/103 110/122/100 112/123/102
f 132/124/120 12/81/12 36/80/34
f 89/125/79 97/126/87 95/127/85 90/128/80
f 75/4/72 135/3/123 125/129/115 134/74/122
f 114/130/104 120/131/110 122/132/112 116/133/106
f 62/134/59 60/135/57 61/136/58
f 54/137/51 58/138/55 55/139/52
f 123/140/113 68/141/65 72/142/69
f 70/143/67 56/144/53 109/145/99
f 62/146/59 26/147/25 60/148/57
f 61/149/58 71/150/68 62/151/59
f 67/152/64 46/153/44 66/154/63
f 25/60/24 33/77/31 55/2/52 60/1/57
f 4/155/4 58/156/55 54/157/51
f 113/158/103 124/159/114 24/160/23 111/161/101
f 9/162/9 12/163/12 59/27/56 40/164/38
f 63/8/60 56/165/53 70/166/67
f 27/49/26 72/167/69 68/168/65
f 37/7/35 67/169/64 66/170/63 109/171/99
f 7/172/7 10/28/10 11/173/11 19/174/18
f 70/175/67 58/176/55 4/177/4 63/178/60
f 21/179/20 34/180/32 5/181/5 8/182/8
f 19/174/18 11/173/11 71/183/68 27/184/26
f 89/125/79 90/128/80 96/185/86 91/186/81
f 20/187/19 70/188/67 109/189/99 111/190/101
f 49/119/47 65/84/62 123/191/113 64/192/61
f 40/164/38 59/27/56 6/26/6
f 6/26/6 10/28/10 7/172/7
f 52/41/49 53/42/50 18/90/17 39/193/37
f 63/194/60 4/195/4 34/180/32 21/179/20
f 121/196/111 106/197/96 64/198/61 123/199/113
f 29/200/28 31/201/28 14/202/13 13/203/13
f 128/204/118 117/205/107 129/206/119 118/207/108
f 72/208/69 2/209/2 1/210/1 123/211/113
f 64/212/61 66/213/63 46/214/44 47/215/45
f 109/171/99 56/165/53 63/8/60 37/7/35
f 41/20/39 59/19/56 12/81/12 132/124/120
f 116/216/106 122/217/112 126/218/116 127/219/117
f 30/25/29 73/36/70 74/31/71 15/30/14
f 91/220/81 87/221/77 93/56/83
f 96/185/86 92/222/82 88/223/78 91/186/81
f 92/224/82 96/225/86 86/226/76
f 90/18/80 94/17/84 86/226/76
f 6/43/6 18/90/17 53/42/50
f 87/227/77 88/228/78 92/229/82 86/230/76
f 88/231/78 87/221/77 91/220/81
f 93/56/83 89/55/79 91/220/81
f 86/226/76 96/225/86 90/18/80
f 100/232/90 98/233/88 101/234/91
f 101/235/91 98/236/88 99/237/89
f 8/95/8 38/6/36 21/5/20
f 45/238/43 44/239/42 99/240/89
f 99/240/89 44/239/42 101/241/91
f 45/242/43 99/243/89 98/244/88
f 103/245/93 104/246/94 105/247/95
f 105/247/95 104/246/94 102/248/92
f 100/249/90 101/250/91 44/251/42
f 42/252/40 43/253/41 102/254/92
f 102/254/92 43/253/41 105/255/95
f 60/1/57 75/4/72 23/9/22
f 23/9/22 75/4/72 134/74/122
f 112/256/102 110/257/100 109/258/99 66/259/63
f 119/260/109 107/261/97 77/262/74
f 77/262/74 107/261/97 112/263/102
f 77/262/74 112/263/102 66/264/63
f 109/265/99 110/266/100 111/161/101
f 111/161/101 110/266/100 113/158/103
f 120/267/110 1/268/1 23/269/22 122/270/112
f 64/34/61 126/33/116 76/271/73
f 120/272/110 108/273/98 106/274/96 121/275/111
f 32/72/30 35/78/33 33/77/31 25/60/24
f 118/276/108 107/277/97 119/278/109 128/279/118
f 129/280/119 113/281/103 107/282/97 118/283/108
f 39/193/37 18/90/17 48/47/46 38/6/36
f 120/284/110 114/285/104 115/286/105 108/287/98
f 127/288/117 126/289/116 108/290/98 115/291/105
f 128/292/118 119/293/109 124/294/114 117/295/107
f 113/296/103 129/297/119 117/298/107 124/299/114
f 121/300/111 123/301/113 120/267/110
f 1/268/1 120/267/110 123/301/113
f 124/302/114 119/303/109 24/63/23
f 135/3/123 55/2/52 24/63/23
f 135/3/123 24/63/23 125/129/115
f 35/78/33 36/80/34 5/79/5 34/76/32
f 119/303/109 77/29/74 125/129/115 24/63/23
f 23/9/22 126/73/116 122/304/112
f 103/305/93 105/306/95 43/307/41
f 116/308/106 127/309/117 115/310/105 114/311/104
f 50/312/48 51/313/48 66/213/63 64/212/61
f 73/36/70 133/23/121 74/31/71
f 74/31/71 133/23/121 76/22/73
f 74/31/71 76/22/73 77/29/74
f 77/29/74 76/22/73 134/74/122
f 77/29/74 134/74/122 125/129/115
f 94/91/84 93/94/83 87/227/77 86/230/76
f 35/78/33 32/72/30 3/21/3
f 35/78/33 3/21/3 36/80/34
f 36/80/34 3/21/3 41/20/39
f 36/80/34 41/20/39 132/124/120
f 20/314/19 69/315/66 58/316/55 70/317/67
f 8/182/8 5/181/5 12/318/12 9/319/9
f 194/320/182 196/321/182 195/322/182 193/323/181
f 144/324/132 153/325/141 146/326/134
f 146/326/134 153/325/141 155/327/143
f 146/326/134 155/327/143 136/328/124
f 141/329/129 170/330/158 137/331/125
f 137/331/125 170/330/158 138/332/126
f 137/331/125 138/332/126 139/333/127
f 147/334/135 140/335/128 137/331/125
f 137/331/125 140/335/128 167/336/155
f 137/331/125 167/336/155 141/329/129
f 158/337/146 146/326/134 136/328/124
f 161/338/149 142/339/130 146/326/134
f 161/338/149 146/326/134 143/340/131
f 143/340/131 146/326/134 158/337/146
f 145/341/133 144/324/132 146/326/134
f 145/341/133 146/326/134 164/342/152
f 164/342/152 146/326/134 142/339/130
f 174/343/162 137/331/125 139/333/127
f 148/344/136 147/334/135 137/331/125
f 148/344/136 137/331/125 149/345/137
f 149/345/137 137/331/125 174/343/162
f 176/346/164 148/347/136 149/348/137 175/349/163
f 160/350/148 161/351/149 143/352/131 159/353/147
f 173/354/161 174/355/162 139/356/127 172/357/160
f 177/358/165 147/359/135 148/347/136 176/346/164
f 171/360/159 138/361/126 170/362/158 169/363/157
f 169/363/157 170/362/158 141/364/129 168/365/156
f 168/365/156 141/364/129 167/366/155 166/367/154
f 166/367/154 167/366/155 140/368/128 165/369/153
f 154/370/142 155/371/143 153/86/141 152/85/140
f 151/88/139 144/87/132 145/372/133 150/373/138
f 163/374/151 164/375/152 142/376/130 162/377/150
f 157/378/145 158/379/146 136/380/124 156/381/144
f 175/349/163 149/348/137 174/355/162 173/354/161
f 165/369/153 140/368/128 147/359/135 177/358/165
f 156/381/144 136/380/124 155/371/143 154/370/142
f 159/353/147 143/352/131 158/379/146 157/378/145
f 172/357/160 139/356/127 138/361/126 171/360/159
f 162/377/150 142/376/130 161/351/149 160/350/148
f 150/373/138 145/372/133 164/375/152 163/374/151
f 65/84/62 27/49/26 68/168/65 123/191/113
f 83/382/75 85/383/75 84/384/75 82/385/75
f 10/75/10 3/21/3 32/72/30 11/71/11
f 179/386/167 190/387/178 180/388/168
f 38/6/36 67/169/64 37/7/35
f 178/389/166 179/386/167 180/388/168
f 201/390/186 202/391/183 197/392/183 198/393/184
f 190/387/178 179/386/167 181/394/169
f 182/395/170 183/396/171 178/389/166
f 178/389/166 183/396/171 184/397/172
f 178/389/166 184/397/172 179/386/167
f 187/398/175 181/394/169 185/399/173
f 187/398/175 186/400/174 188/401/176
f 187/398/175 188/401/176 181/394/169
f 181/394/169 188/401/176 189/402/177
f 181/394/169 189/402/177 190/387/178
f 191/403/179 192/404/180 193/323/181
f 193/323/181 192/404/180 194/320/182
f 198/393/184 197/392/183 199/405/183
f 198/393/184 200/406/185 201/390/186
f 54/407/51 55/408/52 57/409/54
f 62/410/59 71/411/68 26/412/25
f 8/95/8 52/41/49 39/193/37
f 40/38/38 53/42/50 17/39/16
f 7/89/7 19/48/18 48/47/46
f 6/43/6 7/89/7 18/90/17
f 8/95/8 39/193/37 38/6/36
f 38/6/36 48/47/46 49/119/47 67/169/64
f 208/413/192 232/414/216 233/415/217 227/416/211
f 209/417/193 231/418/215 203/419/187
f 222/420/206 217/421/201 233/415/217 232/414/216
f 213/422/197 225/423/209 206/424/190
f 214/425/198 204/426/188 219/427/203
f 227/416/211 233/415/217 237/428/221
f 218/429/202 217/421/201 223/430/207
f 211/431/195 212/432/196 220/433/204
f 220/433/204 212/432/196 235/434/219
f 220/433/204 235/434/219 229/435/213
f 229/435/213 235/434/219 221/436/205
f 222/420/206 223/430/207 217/421/201
f 209/417/193 237/428/221 231/418/215
f 224/437/208 210/438/194 230/439/214
f 224/437/208 230/439/214 222/420/206
f 222/420/206 230/439/214 226/440/210
f 222/420/206 226/440/210 223/430/207
f 217/421/201 218/429/202 216/441/200 215/442/199
f 234/443/218 235/434/219 236/444/220 231/418/215
f 227/416/211 237/428/221 209/417/193
f 203/419/187 231/418/215 236/444/220 205/445/189
f 234/443/218 228/446/212 221/436/205 235/434/219
f 224/437/208 222/420/206 232/414/216 225/423/209
f 228/446/212 234/443/218 215/442/199 216/441/200
f 233/415/217 217/421/201 215/442/199 237/428/221
f 234/443/218 231/418/215 237/428/221 215/442/199
f 219/427/203 212/432/196 214/425/198
f 214/425/198 212/432/196 211/431/195
f 213/422/197 210/438/194 225/423/209
f 225/423/209 210/438/194 224/437/208
f 219/427/203 204/426/188 205/445/189
f 219/427/203 205/445/189 236/444/220
f 232/414/216 208/413/192 207/447/191
f 232/414/216 207/447/191 225/423/209
f 225/423/209 207/447/191 206/424/190
f 235/434/219 212/432/196 219/427/203 236/444/220
l 130 131
