# Blender 4.4.3
# www.blender.org
mtllib track.mtl
o MXTRoadSegment.000_PreviewMesh
v -45.000000 0.000000 0.000000
v -22.500000 0.000000 0.000000
v 0.000000 0.000000 0.000000
v 22.500000 0.000000 0.000000
v 45.000000 0.000000 0.000000
v -45.000000 22.546415 0.000000
v -22.500000 22.546415 0.000000
v 0.000000 22.546415 0.000000
v 22.500000 22.546415 0.000000
v 45.000000 22.546415 0.000000
v -45.000000 43.980721 0.000000
v -22.500000 43.980721 0.000000
v 0.000000 43.980721 0.000000
v 22.500000 43.980721 0.000000
v 45.000000 43.980721 0.000000
v -45.000000 64.944244 0.000000
v -22.500000 64.944244 0.000000
v 0.000000 64.944244 0.000000
v 22.500000 64.944244 0.000000
v 45.000000 64.944244 0.000000
v -45.000000 85.634285 0.000000
v -22.500000 85.634285 0.000000
v 0.000000 85.634285 0.000000
v 22.500000 85.634285 0.000000
v 45.000000 85.634285 0.000000
v -45.000000 106.176529 0.000000
v -22.500000 106.176529 0.000000
v 0.000000 106.176529 0.000000
v 22.500000 106.176529 0.000000
v 45.000000 106.176529 0.000000
v -45.000000 126.596550 0.000000
v -22.500000 126.596550 0.000000
v 0.000000 126.596550 0.000000
v 22.500000 126.596550 0.000000
v 45.000000 126.596550 0.000000
v -45.000000 146.905396 0.000000
v -22.500000 146.905396 0.000000
v 0.000000 146.905396 0.000000
v 22.500000 146.905396 0.000000
v 45.000000 146.905396 0.000000
v -45.000000 167.173126 0.000000
v -22.500000 167.173126 0.000000
v 0.000000 167.173126 0.000000
v 22.500000 167.173126 0.000000
v 45.000000 167.173126 0.000000
v -45.000000 187.342896 0.000000
v -22.500000 187.342896 0.000000
v 0.000000 187.342896 0.000000
v 22.500000 187.342896 0.000000
v 45.000000 187.342896 0.000000
v -45.000000 207.491211 0.000000
v -22.500000 207.491211 0.000000
v 0.000000 207.491211 0.000000
v 22.500000 207.491211 0.000000
v 45.000000 207.491211 0.000000
v -45.000000 227.561005 0.000000
v -22.500000 227.561005 0.000000
v 0.000000 227.561005 0.000000
v 22.500000 227.561005 0.000000
v 45.000000 227.561005 0.000000
v -45.000000 247.607315 0.000000
v -22.500000 247.607315 0.000000
v 0.000000 247.607315 0.000000
v 22.500000 247.607315 0.000000
v 45.000000 247.607315 0.000000
v -45.000000 267.592590 0.000000
v -22.500000 267.592590 0.000000
v 0.000000 267.592590 0.000000
v 22.500000 267.592590 0.000000
v 45.000000 267.592590 0.000000
v -45.000000 287.540894 0.000000
v -22.500000 287.540894 0.000000
v 0.000000 287.540894 0.000000
v 22.500000 287.540894 0.000000
v 45.000000 287.540894 0.000000
v -45.000000 307.444427 0.000000
v -22.500000 307.444427 0.000000
v 0.000000 307.444427 0.000000
v 22.500000 307.444427 0.000000
v 45.000000 307.444427 0.000000
v -45.000000 327.288422 0.000000
v -22.500000 327.288422 0.000000
v 0.000000 327.288422 0.000000
v 22.500000 327.288422 0.000000
v 45.000000 327.288422 0.000000
v -45.000000 347.099609 0.000000
v -22.500000 347.099609 0.000000
v 0.000000 347.099609 0.000000
v 22.500000 347.099609 0.000000
v 45.000000 347.099609 0.000000
v -45.000000 366.822205 0.000000
v -22.500000 366.822205 0.000000
v 0.000000 366.822205 0.000000
v 22.500000 366.822205 0.000000
v 45.000000 366.822205 0.000000
v -45.000000 386.508179 0.000000
v -22.500000 386.508179 0.000000
v 0.000000 386.508179 0.000000
v 22.500000 386.508179 0.000000
v 45.000000 386.508179 0.000000
v -45.000000 406.074402 0.000000
v -22.500000 406.074402 0.000000
v 0.000000 406.074402 0.000000
v 22.500000 406.074402 0.000000
v 45.000000 406.074402 0.000000
v -45.000000 425.551178 0.000000
v -22.500000 425.551178 0.000000
v 0.000000 425.551178 0.000000
v 22.500000 425.551178 0.000000
v 45.000000 425.551178 0.000000
v -45.000000 444.886780 0.000000
v -22.500000 444.886780 0.000000
v 0.000000 444.886780 0.000000
v 22.500000 444.886780 0.000000
v 45.000000 444.886780 0.000000
v -45.000000 463.996613 0.000000
v -22.500000 463.996613 0.000000
v 0.000000 463.996613 0.000000
v 22.500000 463.996613 0.000000
v 45.000000 463.996613 0.000000
v -45.000000 482.775116 0.000000
v -22.500000 482.775116 0.000000
v 0.000000 482.775116 0.000000
v 22.500000 482.775116 0.000000
v 45.000000 482.775116 0.000000
v -45.000000 500.000000 0.000000
v -22.500000 500.000000 0.000000
v 0.000000 500.000000 0.000000
v 22.500000 500.000000 0.000000
v 45.000000 500.000000 0.000000
v 45.000000 0.000000 -6.750000
v 45.000000 22.546415 -6.750000
v 45.000000 43.980721 -6.750000
v 45.000000 64.944244 -6.750000
v 45.000000 85.634285 -6.750000
v 45.000000 106.176529 -6.750000
v 45.000000 126.596550 -6.750000
v 45.000000 146.905396 -6.750000
v 45.000000 167.173126 -6.750000
v 45.000000 187.342896 -6.750000
v 45.000000 207.491211 -6.750000
v 45.000000 227.561005 -6.750000
v 45.000000 247.607315 -6.750000
v 45.000000 267.592590 -6.750000
v 45.000000 287.540894 -6.750000
v 45.000000 307.444427 -6.750000
v 45.000000 327.288422 -6.750000
v 45.000000 347.099609 -6.750000
v 45.000000 366.822205 -6.750000
v 45.000000 386.508179 -6.750000
v 45.000000 406.074402 -6.750000
v 45.000000 425.551178 -6.750000
v 45.000000 444.886780 -6.750000
v 45.000000 463.996613 -6.750000
v 45.000000 482.775116 -6.750000
v 45.000000 500.000000 -6.750000
v -45.000000 0.000000 -6.750000
v -45.000000 22.546415 -6.750000
v -45.000000 43.980721 -6.750000
v -45.000000 64.944244 -6.750000
v -45.000000 85.634285 -6.750000
v -45.000000 106.176529 -6.750000
v -45.000000 126.596550 -6.750000
v -45.000000 146.905396 -6.750000
v -45.000000 167.173126 -6.750000
v -45.000000 187.342896 -6.750000
v -45.000000 207.491211 -6.750000
v -45.000000 227.561005 -6.750000
v -45.000000 247.607315 -6.750000
v -45.000000 267.592590 -6.750000
v -45.000000 287.540894 -6.750000
v -45.000000 307.444427 -6.750000
v -45.000000 327.288422 -6.750000
v -45.000000 347.099609 -6.750000
v -45.000000 366.822205 -6.750000
v -45.000000 386.508179 -6.750000
v -45.000000 406.074402 -6.750000
v -45.000000 425.551178 -6.750000
v -45.000000 444.886780 -6.750000
v -45.000000 463.996613 -6.750000
v -45.000000 482.775116 -6.750000
v -45.000000 500.000000 -6.750000
vn -0.0000 -0.0000 -1.0000
vn 0.7071 -0.0000 -0.7071
vn -0.7071 -0.0000 -0.7071
vn -1.0000 -0.0000 -0.0000
vn 1.0000 -0.0000 -0.0000
vt 0.000000 0.000000
vt 0.000000 0.451030
vt 0.250000 0.451030
vt 0.250000 0.000000
vt 0.500000 0.451030
vt 0.500000 0.000000
vt 0.750000 0.451030
vt 0.750000 0.000000
vt 1.000000 0.451030
vt 1.000000 0.000000
vt 0.000000 0.879494
vt 0.250000 0.879494
vt 0.500000 0.879494
vt 0.750000 0.879494
vt 1.000000 0.879494
vt 0.000000 1.298738
vt 0.250000 1.298738
vt 0.500000 1.298738
vt 0.750000 1.298738
vt 1.000000 1.298738
vt 0.000000 1.712814
vt 0.250000 1.712814
vt 0.500000 1.712814
vt 0.750000 1.712814
vt 1.000000 1.712814
vt 0.000000 2.123526
vt 0.250000 2.123526
vt 0.500000 2.123526
vt 0.750000 2.123526
vt 1.000000 2.123526
vt 0.000000 2.531831
vt 0.250000 2.531831
vt 0.500000 2.531831
vt 0.750000 2.531831
vt 1.000000 2.531831
vt 0.000000 2.938295
vt 0.250000 2.938295
vt 0.500000 2.938295
vt 0.750000 2.938295
vt 1.000000 2.938295
vt 0.000000 3.343277
vt 0.250000 3.343277
vt 0.500000 3.343277
vt 0.750000 3.343277
vt 1.000000 3.343277
vt 0.000000 3.747012
vt 0.250000 3.747012
vt 0.500000 3.747012
vt 0.750000 3.747012
vt 1.000000 3.747012
vt 0.000000 4.149656
vt 0.250000 4.149656
vt 0.500000 4.149656
vt 0.750000 4.149656
vt 1.000000 4.149656
vt 0.000000 4.551312
vt 0.250000 4.551312
vt 0.500000 4.551312
vt 0.750000 4.551312
vt 1.000000 4.551312
vt 0.000000 4.952044
vt 0.250000 4.952044
vt 0.500000 4.952044
vt 0.750000 4.952044
vt 1.000000 4.952044
vt 0.000000 5.351882
vt 0.250000 5.351882
vt 0.500000 5.351882
vt 0.750000 5.351882
vt 1.000000 5.351882
vt 0.000000 5.750825
vt 0.250000 5.750825
vt 0.500000 5.750825
vt 0.750000 5.750825
vt 1.000000 5.750825
vt 0.000000 6.148849
vt 0.250000 6.148849
vt 0.500000 6.148849
vt 0.750000 6.148849
vt 1.000000 6.148849
vt 0.000000 6.545894
vt 0.250000 6.545894
vt 0.500000 6.545894
vt 0.750000 6.545894
vt 1.000000 6.545894
vt 0.000000 6.941869
vt 0.250000 6.941869
vt 0.500000 6.941869
vt 0.750000 6.941869
vt 1.000000 6.941869
vt 0.000000 7.336631
vt 0.250000 7.336631
vt 0.500000 7.336631
vt 0.750000 7.336631
vt 1.000000 7.336631
vt 0.000000 7.729976
vt 0.250000 7.729976
vt 0.500000 7.729976
vt 0.750000 7.729976
vt 1.000000 7.729976
vt 0.000000 8.121598
vt 0.250000 8.121598
vt 0.500000 8.121598
vt 0.750000 8.121598
vt 1.000000 8.121598
vt 0.000000 8.511040
vt 0.250000 8.511040
vt 0.500000 8.511040
vt 0.750000 8.511040
vt 1.000000 8.511040
vt 0.000000 8.897587
vt 0.250000 8.897587
vt 0.500000 8.897587
vt 0.750000 8.897587
vt 1.000000 8.897587
vt 0.000000 9.280047
vt 0.250000 9.280047
vt 0.500000 9.280047
vt 0.750000 9.280047
vt 1.000000 9.280047
vt 0.000000 9.656239
vt 0.250000 9.656239
vt 0.500000 9.656239
vt 0.750000 9.656239
vt 1.000000 9.656239
vt 0.000000 10.000000
vt 0.250000 10.000000
vt 0.500000 10.000000
vt 0.750000 10.000000
vt 1.000000 10.000000
s 1
usemtl track_surface
f 1/1/1 6/2/1 7/3/1 2/4/1
f 2/4/1 7/3/1 8/5/1 3/6/1
f 3/6/1 8/5/1 9/7/1 4/8/1
f 4/8/1 9/7/1 10/9/1 5/10/1
f 6/2/1 11/11/1 12/12/1 7/3/1
f 7/3/1 12/12/1 13/13/1 8/5/1
f 8/5/1 13/13/1 14/14/1 9/7/1
f 9/7/1 14/14/1 15/15/1 10/9/1
f 11/11/1 16/16/1 17/17/1 12/12/1
f 12/12/1 17/17/1 18/18/1 13/13/1
f 13/13/1 18/18/1 19/19/1 14/14/1
f 14/14/1 19/19/1 20/20/1 15/15/1
f 16/16/1 21/21/1 22/22/1 17/17/1
f 17/17/1 22/22/1 23/23/1 18/18/1
f 18/18/1 23/23/1 24/24/1 19/19/1
f 19/19/1 24/24/1 25/25/1 20/20/1
f 21/21/1 26/26/1 27/27/1 22/22/1
f 22/22/1 27/27/1 28/28/1 23/23/1
f 23/23/1 28/28/1 29/29/1 24/24/1
f 24/24/1 29/29/1 30/30/1 25/25/1
f 26/26/1 31/31/1 32/32/1 27/27/1
f 27/27/1 32/32/1 33/33/1 28/28/1
f 28/28/1 33/33/1 34/34/1 29/29/1
f 29/29/1 34/34/1 35/35/1 30/30/1
f 31/31/1 36/36/1 37/37/1 32/32/1
f 32/32/1 37/37/1 38/38/1 33/33/1
f 33/33/1 38/38/1 39/39/1 34/34/1
f 34/34/1 39/39/1 40/40/1 35/35/1
f 36/36/1 41/41/1 42/42/1 37/37/1
f 37/37/1 42/42/1 43/43/1 38/38/1
f 38/38/1 43/43/1 44/44/1 39/39/1
f 39/39/1 44/44/1 45/45/1 40/40/1
f 41/41/1 46/46/1 47/47/1 42/42/1
f 42/42/1 47/47/1 48/48/1 43/43/1
f 43/43/1 48/48/1 49/49/1 44/44/1
f 44/44/1 49/49/1 50/50/1 45/45/1
f 46/46/1 51/51/1 52/52/1 47/47/1
f 47/47/1 52/52/1 53/53/1 48/48/1
f 48/48/1 53/53/1 54/54/1 49/49/1
f 49/49/1 54/54/1 55/55/1 50/50/1
f 51/51/1 56/56/1 57/57/1 52/52/1
f 52/52/1 57/57/1 58/58/1 53/53/1
f 53/53/1 58/58/1 59/59/1 54/54/1
f 54/54/1 59/59/1 60/60/1 55/55/1
f 56/56/1 61/61/1 62/62/1 57/57/1
f 57/57/1 62/62/1 63/63/1 58/58/1
f 58/58/1 63/63/1 64/64/1 59/59/1
f 59/59/1 64/64/1 65/65/1 60/60/1
f 61/61/1 66/66/1 67/67/1 62/62/1
f 62/62/1 67/67/1 68/68/1 63/63/1
f 63/63/1 68/68/1 69/69/1 64/64/1
f 64/64/1 69/69/1 70/70/1 65/65/1
f 66/66/1 71/71/1 72/72/1 67/67/1
f 67/67/1 72/72/1 73/73/1 68/68/1
f 68/68/1 73/73/1 74/74/1 69/69/1
f 69/69/1 74/74/1 75/75/1 70/70/1
f 71/71/1 76/76/1 77/77/1 72/72/1
f 72/72/1 77/77/1 78/78/1 73/73/1
f 73/73/1 78/78/1 79/79/1 74/74/1
f 74/74/1 79/79/1 80/80/1 75/75/1
f 76/76/1 81/81/1 82/82/1 77/77/1
f 77/77/1 82/82/1 83/83/1 78/78/1
f 78/78/1 83/83/1 84/84/1 79/79/1
f 79/79/1 84/84/1 85/85/1 80/80/1
f 81/81/1 86/86/1 87/87/1 82/82/1
f 82/82/1 87/87/1 88/88/1 83/83/1
f 83/83/1 88/88/1 89/89/1 84/84/1
f 84/84/1 89/89/1 90/90/1 85/85/1
f 86/86/1 91/91/1 92/92/1 87/87/1
f 87/87/1 92/92/1 93/93/1 88/88/1
f 88/88/1 93/93/1 94/94/1 89/89/1
f 89/89/1 94/94/1 95/95/1 90/90/1
f 91/91/1 96/96/1 97/97/1 92/92/1
f 92/92/1 97/97/1 98/98/1 93/93/1
f 93/93/1 98/98/1 99/99/1 94/94/1
f 94/94/1 99/99/1 100/100/1 95/95/1
f 96/96/1 101/101/1 102/102/1 97/97/1
f 97/97/1 102/102/1 103/103/1 98/98/1
f 98/98/1 103/103/1 104/104/1 99/99/1
f 99/99/1 104/104/1 105/105/1 100/100/1
f 101/101/1 106/106/1 107/107/1 102/102/1
f 102/102/1 107/107/1 108/108/1 103/103/1
f 103/103/1 108/108/1 109/109/1 104/104/1
f 104/104/1 109/109/1 110/110/1 105/105/1
f 106/106/1 111/111/1 112/112/1 107/107/1
f 107/107/1 112/112/1 113/113/1 108/108/1
f 108/108/1 113/113/1 114/114/1 109/109/1
f 109/109/1 114/114/1 115/115/1 110/110/1
f 111/111/1 116/116/1 117/117/1 112/112/1
f 112/112/1 117/117/1 118/118/1 113/113/1
f 113/113/1 118/118/1 119/119/1 114/114/1
f 114/114/1 119/119/1 120/120/1 115/115/1
f 116/116/1 121/121/1 122/122/1 117/117/1
f 117/117/1 122/122/1 123/123/1 118/118/1
f 118/118/1 123/123/1 124/124/1 119/119/1
f 119/119/1 124/124/1 125/125/1 120/120/1
f 121/121/1 126/126/2 127/127/1 122/122/1
f 122/122/1 127/127/1 128/128/1 123/123/1
f 123/123/1 128/128/1 129/129/1 124/124/1
f 124/124/1 129/129/1 130/130/3 125/125/1
usemtl track_rail
f 5/1/4 10/2/4 132/9/4 131/10/4
f 10/2/4 15/11/4 133/15/4 132/9/4
f 15/11/4 20/16/4 134/20/4 133/15/4
f 20/16/4 25/21/4 135/25/4 134/20/4
f 25/21/4 30/26/4 136/30/4 135/25/4
f 30/26/4 35/31/4 137/35/4 136/30/4
f 35/31/4 40/36/4 138/40/4 137/35/4
f 40/36/4 45/41/4 139/45/4 138/40/4
f 45/41/4 50/46/4 140/50/4 139/45/4
f 50/46/4 55/51/4 141/55/4 140/50/4
f 55/51/4 60/56/4 142/60/4 141/55/4
f 60/56/4 65/61/4 143/65/4 142/60/4
f 65/61/4 70/66/4 144/70/4 143/65/4
f 70/66/4 75/71/4 145/75/4 144/70/4
f 75/71/4 80/76/4 146/80/4 145/75/4
f 80/76/4 85/81/4 147/85/4 146/80/4
f 85/81/4 90/86/4 148/90/4 147/85/4
f 90/86/4 95/91/4 149/95/4 148/90/4
f 95/91/4 100/96/4 150/100/4 149/95/4
f 100/96/4 105/101/4 151/105/4 150/100/4
f 105/101/4 110/106/4 152/110/4 151/105/4
f 110/106/4 115/111/4 153/115/4 152/110/4
f 115/111/4 120/116/4 154/120/4 153/115/4
f 120/116/4 125/121/4 155/125/4 154/120/4
f 125/121/4 130/126/4 156/130/4 155/125/4
f 157/1/5 158/2/5 6/9/5 1/10/5
f 158/2/5 159/11/5 11/15/5 6/9/5
f 159/11/5 160/16/5 16/20/5 11/15/5
f 160/16/5 161/21/5 21/25/5 16/20/5
f 161/21/5 162/26/5 26/30/5 21/25/5
f 162/26/5 163/31/5 31/35/5 26/30/5
f 163/31/5 164/36/5 36/40/5 31/35/5
f 164/36/5 165/41/5 41/45/5 36/40/5
f 165/41/5 166/46/5 46/50/5 41/45/5
f 166/46/5 167/51/5 51/55/5 46/50/5
f 167/51/5 168/56/5 56/60/5 51/55/5
f 168/56/5 169/61/5 61/65/5 56/60/5
f 169/61/5 170/66/5 66/70/5 61/65/5
f 170/66/5 171/71/5 71/75/5 66/70/5
f 171/71/5 172/76/5 76/80/5 71/75/5
f 172/76/5 173/81/5 81/85/5 76/80/5
f 173/81/5 174/86/5 86/90/5 81/85/5
f 174/86/5 175/91/5 91/95/5 86/90/5
f 175/91/5 176/96/5 96/100/5 91/95/5
f 176/96/5 177/101/5 101/105/5 96/100/5
f 177/101/5 178/106/5 106/110/5 101/105/5
f 178/106/5 179/111/5 111/115/5 106/110/5
f 179/111/5 180/116/5 116/120/5 111/115/5
f 180/116/5 181/121/5 121/125/5 116/120/5
f 181/121/5 182/126/5 126/130/5 121/125/5
