# Blender 4.4.3
# www.blender.org
mtllib mesh.mtl
o Plane.003
v -0.060296 -0.014176 0.169902
v -0.044567 -0.013981 -0.021931
v -0.052322 -0.042924 -0.021931
v -0.073510 -0.052578 -0.021931
v -0.102453 -0.054393 -0.021931
v -0.131396 -0.052578 -0.021931
v -0.152584 -0.042924 -0.021931
v -0.160339 -0.013981 -0.021931
v -0.152584 0.014962 -0.021931
v -0.131396 0.036150 -0.021931
v -0.102453 0.043905 -0.021931
v -0.073510 0.036150 -0.021931
v -0.052322 0.014962 -0.021931
v -0.140664 -0.014176 0.109371
v -0.060703 0.011854 0.169596
v -0.140257 -0.040206 0.109678
v -0.100480 0.012120 0.139637
v -0.100480 -0.040472 0.139637
v -0.140257 0.011854 0.109678
v -0.060703 -0.040206 0.169596
v -0.055191 -0.040683 0.051662
v -0.074630 -0.051647 0.051647
v -0.101192 -0.053315 0.051710
v -0.127758 -0.051651 0.051836
v -0.147210 -0.040715 0.051990
v -0.154337 -0.014154 0.052132
v -0.147229 0.012412 0.052222
v -0.127789 0.031865 0.052238
v -0.101228 0.038992 0.052174
v -0.074662 0.031883 0.052049
v -0.055209 0.012444 0.051894
v -0.048082 -0.014117 0.051753
v -0.027289 -0.032964 0.388174
v -0.043605 -0.035241 0.364154
v -0.056121 -0.035343 0.286322
v -0.060622 -0.035677 0.171326
v -0.068131 -0.035343 0.051109
v -0.064004 -0.035343 -0.021931
v -0.065655 -0.035343 -0.092495
v -0.070607 -0.035343 -0.161822
v -0.053840 -0.021363 -0.203684
v -0.035907 -0.028522 -0.219369
v -0.016123 -0.028522 -0.223125
v 0.000000 -0.028522 -0.225597
v -0.045464 -0.013981 -0.092827
v -0.052988 -0.042061 -0.092827
v -0.073544 -0.052228 -0.092827
v -0.101624 -0.053989 -0.092827
v -0.129704 -0.052228 -0.092827
v -0.150260 -0.042061 -0.092827
v -0.157784 -0.013981 -0.092827
v -0.150260 0.014099 -0.092827
v -0.129704 0.034655 -0.092827
v -0.101624 0.042179 -0.092827
v -0.073544 0.034655 -0.092827
v -0.052988 0.014099 -0.092827
v -0.050218 -0.013981 -0.162478
v -0.056994 -0.039269 -0.162478
v -0.075507 -0.051096 -0.162478
v -0.100795 -0.052682 -0.162478
v -0.126083 -0.051096 -0.162478
v -0.144595 -0.039269 -0.162478
v -0.151371 -0.013981 -0.162478
v -0.144595 0.011307 -0.162478
v -0.126083 0.029819 -0.162478
v -0.100795 0.036595 -0.162478
v -0.075507 0.029819 -0.162478
v -0.056994 0.011307 -0.162478
v -0.055194 -0.013981 -0.204352
v -0.061044 -0.035814 -0.204352
v -0.077027 -0.049695 -0.204352
v -0.098860 -0.051064 -0.204352
v -0.120693 -0.049695 -0.204352
v -0.136676 -0.035814 -0.204352
v -0.142526 -0.013981 -0.204352
v -0.136676 0.007852 -0.204352
v -0.120693 0.023835 -0.204352
v -0.098860 0.029685 -0.204352
v -0.077027 0.023835 -0.204352
v -0.061044 0.007852 -0.204352
v -0.063017 -0.013981 -0.247470
v -0.067486 -0.030659 -0.247470
v -0.079695 -0.042868 -0.247470
v -0.096372 -0.047337 -0.247470
v -0.113050 -0.042868 -0.247470
v -0.125259 -0.030659 -0.247470
v -0.129728 -0.013981 -0.247470
v -0.125259 0.002697 -0.247470
v -0.113050 0.014906 -0.247470
v -0.096372 0.019375 -0.247470
v -0.079695 0.014906 -0.247470
v -0.067486 0.002697 -0.247470
v -0.068327 -0.013981 -0.239178
v -0.072084 -0.028004 -0.239178
v -0.082350 -0.038269 -0.239178
v -0.096372 -0.042027 -0.239178
v -0.110395 -0.038269 -0.239178
v -0.120661 -0.028004 -0.239178
v -0.124418 -0.013981 -0.239178
v -0.120661 0.000042 -0.239178
v -0.110395 0.010307 -0.239178
v -0.096372 0.014064 -0.239178
v -0.082350 0.010307 -0.239178
v -0.072084 0.000042 -0.239178
v -0.073469 -0.013981 -0.266817
v -0.076538 -0.025433 -0.266817
v -0.084921 -0.033816 -0.266817
v -0.096372 -0.036884 -0.266817
v -0.107824 -0.033816 -0.266817
v -0.116207 -0.025433 -0.266817
v -0.119275 -0.013981 -0.266817
v -0.116207 -0.002530 -0.266817
v -0.107824 0.005854 -0.266817
v -0.096372 0.008922 -0.266817
v -0.084921 0.005854 -0.266817
v -0.076538 -0.002530 -0.266817
v -0.078934 -0.013981 -0.271654
v -0.081270 -0.022700 -0.271654
v -0.087653 -0.029083 -0.271654
v -0.096372 -0.031419 -0.271654
v -0.105092 -0.029083 -0.271654
v -0.111475 -0.022700 -0.271654
v -0.113811 -0.013981 -0.271654
v -0.111475 -0.005262 -0.271654
v -0.105092 0.001121 -0.271654
v -0.096372 0.003457 -0.271654
v -0.087653 0.001121 -0.271654
v -0.081270 -0.005262 -0.271654
v -0.078934 -0.013981 -0.216375
v -0.081270 -0.022700 -0.216375
v -0.087653 -0.029083 -0.216375
v -0.096372 -0.031419 -0.216375
v -0.105092 -0.029083 -0.216375
v -0.111475 -0.022700 -0.216375
v -0.113811 -0.013981 -0.216375
v -0.111475 -0.005262 -0.216375
v -0.105092 0.001121 -0.216375
v -0.096372 0.003457 -0.216375
v -0.087653 0.001121 -0.216375
v -0.081270 -0.005262 -0.216375
v -0.060296 -0.014176 0.169902
v -0.136106 -0.014596 0.104655
v -0.060703 0.011854 0.169596
v -0.135725 -0.038951 0.104942
v -0.100480 0.012120 0.139637
v -0.098507 -0.039201 0.132974
v -0.140257 0.011854 0.109678
v -0.061289 -0.038951 0.161006
v -0.100480 -0.014176 0.139637
v -0.140460 -0.027191 0.109524
v -0.061099 -0.002419 0.161149
v -0.140460 -0.001161 0.109524
v -0.061099 -0.026774 0.161149
v -0.098507 -0.026898 0.132974
v -0.098507 -0.002294 0.132974
v -0.098507 -0.014596 0.132974
v -0.140664 -0.014176 0.109371
v -0.060908 -0.014596 0.161293
v -0.100480 -0.001028 0.139637
v -0.135915 -0.002419 0.104799
v -0.060499 -0.001161 0.169749
v -0.100480 -0.027324 0.139637
v -0.135915 -0.026774 0.104799
v -0.060499 -0.027191 0.169749
v -0.068084 -0.014176 0.156044
v -0.130870 -0.014176 0.108755
v -0.068402 0.006159 0.155805
v -0.130552 -0.034511 0.108995
v -0.099477 0.006368 0.132400
v -0.099477 -0.034720 0.132400
v -0.130552 0.006159 0.108995
v -0.068402 -0.034511 0.155805
v -0.044368 -0.017102 0.367121
v -0.055895 0.011745 0.270964
v -0.060397 0.023431 0.161919
v -0.060046 0.008533 0.043645
v -0.055919 0.013822 -0.027509
v -0.057570 0.018931 -0.096251
v -0.062522 0.023950 -0.163787
v -0.046123 0.018276 -0.204430
v -0.034785 0.035196 -0.219284
v -0.015901 0.037119 -0.223214
v 0.000000 0.037119 -0.225600
v -0.034726 0.013231 -0.213564
v -0.072044 -0.004796 0.047313
v -0.067917 -0.002107 -0.024768
v -0.069568 0.000491 -0.094405
v -0.043865 -0.023582 0.366410
v -0.074520 0.003044 -0.162821
v -0.056262 0.003140 -0.214021
v 0.000000 -0.008533 -0.206117
v -0.056006 -0.013456 0.279438
v -0.016221 -0.008533 -0.216716
v -0.060508 -0.009554 0.165925
v -0.000250 -0.006216 0.392958
v 0.000000 0.030598 0.289664
v 0.000000 0.046063 0.194303
v 0.000000 0.054718 0.014387
v 0.000000 0.039562 -0.021336
v 0.000000 0.044442 -0.091519
v 0.000000 0.049236 -0.160471
v -0.012081 -0.032425 0.393441
v -0.021919 0.038180 0.193420
v -0.010353 0.046063 0.194086
v -0.015617 0.054714 0.014387
v -0.029150 0.052396 0.012725
v -0.022452 -0.012578 0.390387
v -0.016113 0.030598 0.289664
v -0.035000 0.023186 0.281835
v -0.034211 0.041259 -0.092110
v -0.015494 0.044442 -0.090654
v -0.017145 0.049236 -0.159174
v -0.037718 0.046081 -0.160885
v -0.015216 0.045696 -0.006875
v -0.031717 0.042846 -0.008757
v -0.101642 0.012739 -0.247786
v -0.103153 0.026126 -0.245922
v -0.103251 0.026990 -0.215476
v -0.113246 0.115521 -0.196835
v -0.113344 0.116385 -0.231009
v -0.113344 0.125581 -0.231631
v -0.113441 0.126445 -0.129730
v -0.104275 0.036059 -0.055168
v -0.098032 0.013188 -0.247786
v -0.099543 0.026576 -0.245922
v -0.099641 0.027439 -0.215476
v -0.109636 0.115970 -0.196835
v -0.109733 0.116834 -0.231009
v -0.111781 0.125776 -0.231631
v -0.111879 0.126639 -0.129730
v -0.100664 0.036508 -0.055168
v -0.100659 0.026437 -0.245922
v -0.100756 0.027301 -0.215476
v -0.110751 0.115832 -0.196835
v -0.110849 0.116695 -0.231009
v -0.101875 0.026285 -0.245922
v -0.101972 0.027149 -0.215476
v -0.111968 0.115680 -0.196835
v -0.112065 0.116544 -0.231009
v -0.116019 0.115176 -0.196835
v -0.116117 0.116040 -0.231009
v -0.114544 0.125432 -0.231631
v -0.114641 0.126296 -0.129730
v -0.106863 0.116315 -0.196835
v -0.106960 0.117179 -0.231009
v -0.110581 0.125925 -0.231631
v -0.110679 0.126789 -0.129730
v -0.158088 -0.013488 -0.087430
v -0.165370 -0.020441 -0.087430
v -0.191585 -0.020441 -0.206123
v -0.174108 -0.020441 -0.255639
v -0.138185 -0.020441 -0.260008
v -0.127019 -0.013488 -0.242532
v -0.158088 -0.015044 -0.087430
v -0.165370 -0.021996 -0.087430
v -0.191585 -0.021996 -0.206123
v -0.174108 -0.021996 -0.255639
v -0.138185 -0.021996 -0.260008
v -0.127019 -0.015044 -0.242532
v -0.064377 -0.035510 0.111217
v -0.060221 0.015982 0.102782
v -0.066276 -0.007175 0.106619
v 0.000000 0.040287 0.128030
v -0.013525 0.040287 0.125338
v 0.060296 -0.014176 0.169902
v 0.044567 -0.013981 -0.021931
v 0.052322 -0.042924 -0.021931
v 0.073510 -0.052578 -0.021931
v 0.102453 -0.054393 -0.021931
v 0.131396 -0.052578 -0.021931
v 0.152584 -0.042924 -0.021931
v 0.160339 -0.013981 -0.021931
v 0.152584 0.014962 -0.021931
v 0.131396 0.036150 -0.021931
v 0.102453 0.043905 -0.021931
v 0.073510 0.036150 -0.021931
v 0.052322 0.014962 -0.021931
v 0.140664 -0.014176 0.109371
v 0.060703 0.011854 0.169596
v 0.140257 -0.040206 0.109678
v 0.100480 0.012120 0.139637
v 0.100480 -0.040472 0.139637
v 0.140257 0.011854 0.109678
v 0.060703 -0.040206 0.169596
v 0.055191 -0.040683 0.051662
v 0.074630 -0.051647 0.051647
v 0.101192 -0.053315 0.051710
v 0.127758 -0.051651 0.051836
v 0.147210 -0.040715 0.051990
v 0.154337 -0.014154 0.052132
v 0.147229 0.012412 0.052222
v 0.127789 0.031865 0.052238
v 0.101228 0.038992 0.052174
v 0.074662 0.031883 0.052049
v 0.055209 0.012444 0.051894
v 0.048082 -0.014117 0.051753
v 0.027289 -0.032964 0.388174
v 0.043605 -0.035241 0.364154
v 0.056121 -0.035343 0.286322
v 0.060622 -0.035677 0.171326
v 0.068131 -0.035343 0.051109
v 0.064004 -0.035343 -0.021931
v 0.065655 -0.035343 -0.092495
v 0.070607 -0.035343 -0.161822
v 0.053840 -0.021363 -0.203684
v 0.035907 -0.028522 -0.219369
v 0.016123 -0.028522 -0.223125
v 0.045464 -0.013981 -0.092827
v 0.052988 -0.042061 -0.092827
v 0.073544 -0.052228 -0.092827
v 0.101624 -0.053989 -0.092827
v 0.129704 -0.052228 -0.092827
v 0.150260 -0.042061 -0.092827
v 0.157784 -0.013981 -0.092827
v 0.150260 0.014099 -0.092827
v 0.129704 0.034655 -0.092827
v 0.101624 0.042179 -0.092827
v 0.073544 0.034655 -0.092827
v 0.052988 0.014099 -0.092827
v 0.050218 -0.013981 -0.162478
v 0.056994 -0.039269 -0.162478
v 0.075507 -0.051096 -0.162478
v 0.100795 -0.052682 -0.162478
v 0.126083 -0.051096 -0.162478
v 0.144595 -0.039269 -0.162478
v 0.151371 -0.013981 -0.162478
v 0.144595 0.011307 -0.162478
v 0.126083 0.029819 -0.162478
v 0.100795 0.036595 -0.162478
v 0.075507 0.029819 -0.162478
v 0.056994 0.011307 -0.162478
v 0.055194 -0.013981 -0.204352
v 0.061044 -0.035814 -0.204352
v 0.077027 -0.049695 -0.204352
v 0.098860 -0.051064 -0.204352
v 0.120693 -0.049695 -0.204352
v 0.136676 -0.035814 -0.204352
v 0.142526 -0.013981 -0.204352
v 0.136676 0.007852 -0.204352
v 0.120693 0.023835 -0.204352
v 0.098860 0.029685 -0.204352
v 0.077027 0.023835 -0.204352
v 0.061044 0.007852 -0.204352
v 0.063017 -0.013981 -0.247470
v 0.067486 -0.030659 -0.247470
v 0.079695 -0.042868 -0.247470
v 0.096372 -0.047337 -0.247470
v 0.113050 -0.042868 -0.247470
v 0.125259 -0.030659 -0.247470
v 0.129728 -0.013981 -0.247470
v 0.125259 0.002697 -0.247470
v 0.113050 0.014906 -0.247470
v 0.096372 0.019375 -0.247470
v 0.079695 0.014906 -0.247470
v 0.067486 0.002697 -0.247470
v 0.068327 -0.013981 -0.239178
v 0.072084 -0.028004 -0.239178
v 0.082350 -0.038269 -0.239178
v 0.096372 -0.042027 -0.239178
v 0.110395 -0.038269 -0.239178
v 0.120661 -0.028004 -0.239178
v 0.124418 -0.013981 -0.239178
v 0.120661 0.000042 -0.239178
v 0.110395 0.010307 -0.239178
v 0.096372 0.014064 -0.239178
v 0.082350 0.010307 -0.239178
v 0.072084 0.000042 -0.239178
v 0.073469 -0.013981 -0.266817
v 0.076538 -0.025433 -0.266817
v 0.084921 -0.033816 -0.266817
v 0.096372 -0.036884 -0.266817
v 0.107824 -0.033816 -0.266817
v 0.116207 -0.025433 -0.266817
v 0.119275 -0.013981 -0.266817
v 0.116207 -0.002530 -0.266817
v 0.107824 0.005854 -0.266817
v 0.096372 0.008922 -0.266817
v 0.084921 0.005854 -0.266817
v 0.076538 -0.002530 -0.266817
v 0.078934 -0.013981 -0.271654
v 0.081270 -0.022700 -0.271654
v 0.087653 -0.029083 -0.271654
v 0.096372 -0.031419 -0.271654
v 0.105092 -0.029083 -0.271654
v 0.111475 -0.022700 -0.271654
v 0.113811 -0.013981 -0.271654
v 0.111475 -0.005262 -0.271654
v 0.105092 0.001121 -0.271654
v 0.096372 0.003457 -0.271654
v 0.087653 0.001121 -0.271654
v 0.081270 -0.005262 -0.271654
v 0.078934 -0.013981 -0.216375
v 0.081270 -0.022700 -0.216375
v 0.087653 -0.029083 -0.216375
v 0.096372 -0.031419 -0.216375
v 0.105092 -0.029083 -0.216375
v 0.111475 -0.022700 -0.216375
v 0.113811 -0.013981 -0.216375
v 0.111475 -0.005262 -0.216375
v 0.105092 0.001121 -0.216375
v 0.096372 0.003457 -0.216375
v 0.087653 0.001121 -0.216375
v 0.081270 -0.005262 -0.216375
v 0.060296 -0.014176 0.169902
v 0.136106 -0.014596 0.104655
v 0.060703 0.011854 0.169596
v 0.135725 -0.038951 0.104942
v 0.100480 0.012120 0.139637
v 0.098507 -0.039201 0.132974
v 0.140257 0.011854 0.109678
v 0.061289 -0.038951 0.161006
v 0.100480 -0.014176 0.139637
v 0.140460 -0.027191 0.109524
v 0.061099 -0.002419 0.161149
v 0.140460 -0.001161 0.109524
v 0.061099 -0.026774 0.161149
v 0.098507 -0.026898 0.132974
v 0.098507 -0.002294 0.132974
v 0.098507 -0.014596 0.132974
v 0.140664 -0.014176 0.109371
v 0.060908 -0.014596 0.161293
v 0.100480 -0.001028 0.139637
v 0.135915 -0.002419 0.104799
v 0.060499 -0.001161 0.169749
v 0.100480 -0.027324 0.139637
v 0.135915 -0.026774 0.104799
v 0.060499 -0.027191 0.169749
v 0.068084 -0.014176 0.156044
v 0.130870 -0.014176 0.108755
v 0.068402 0.006159 0.155805
v 0.130552 -0.034511 0.108995
v 0.099477 0.006368 0.132400
v 0.099477 -0.034720 0.132400
v 0.130552 0.006159 0.108995
v 0.068402 -0.034511 0.155805
v 0.044368 -0.017102 0.367121
v 0.055895 0.011745 0.270964
v 0.060397 0.023431 0.161919
v 0.060046 0.008533 0.043645
v 0.055919 0.013822 -0.027509
v 0.057570 0.018931 -0.096251
v 0.062522 0.023950 -0.163787
v 0.046123 0.018276 -0.204430
v 0.034785 0.035196 -0.219284
v 0.015901 0.037119 -0.223214
v 0.072044 -0.004796 0.047313
v 0.067917 -0.002107 -0.024768
v 0.069568 0.000491 -0.094405
v 0.043865 -0.023582 0.366410
v 0.074520 0.003044 -0.162821
v 0.056262 0.003140 -0.214021
v -0.036396 -0.008533 -0.213240
v 0.056006 -0.013456 0.279438
v 0.000000 0.013993 -0.206115
v 0.060508 -0.009554 0.165925
v 0.012081 -0.032425 0.393441
v 0.000000 -0.032888 0.396932
v 0.021919 0.038180 0.193420
v 0.010353 0.046063 0.194086
v 0.015617 0.054714 0.014387
v 0.029150 0.052396 0.012725
v 0.022452 -0.012578 0.390387
v 0.016113 0.030598 0.289664
v 0.035000 0.023186 0.281835
v 0.034211 0.041259 -0.092110
v 0.015494 0.044442 -0.090654
v 0.017145 0.049236 -0.159174
v 0.037718 0.046081 -0.160885
v 0.015216 0.045696 -0.006875
v 0.031717 0.042846 -0.008757
v 0.101642 0.012739 -0.247786
v 0.103153 0.026126 -0.245922
v 0.103251 0.026990 -0.215476
v 0.113246 0.115521 -0.196835
v 0.113344 0.116385 -0.231009
v 0.113344 0.125581 -0.231631
v 0.113441 0.126445 -0.129730
v 0.104275 0.036059 -0.055168
v 0.098032 0.013188 -0.247786
v 0.099543 0.026576 -0.245922
v 0.099641 0.027439 -0.215476
v 0.109636 0.115970 -0.196835
v 0.109733 0.116834 -0.231009
v 0.111781 0.125776 -0.231631
v 0.111879 0.126639 -0.129730
v 0.100664 0.036508 -0.055168
v 0.100659 0.026437 -0.245922
v 0.100756 0.027301 -0.215476
v 0.110751 0.115832 -0.196835
v 0.110849 0.116695 -0.231009
v 0.101875 0.026285 -0.245922
v 0.101972 0.027149 -0.215476
v 0.111968 0.115680 -0.196835
v 0.112065 0.116544 -0.231009
v 0.116019 0.115176 -0.196835
v 0.116117 0.116040 -0.231009
v 0.114544 0.125432 -0.231631
v 0.114641 0.126296 -0.129730
v 0.106863 0.116315 -0.196835
v 0.106960 0.117179 -0.231009
v 0.110581 0.125925 -0.231631
v 0.110679 0.126789 -0.129730
v 0.158088 -0.013488 -0.087430
v 0.165370 -0.020441 -0.087430
v 0.191585 -0.020441 -0.206123
v 0.174108 -0.020441 -0.255639
v 0.138185 -0.020441 -0.260008
v 0.127019 -0.013488 -0.242532
v 0.158088 -0.015044 -0.087430
v 0.165370 -0.021996 -0.087430
v 0.191585 -0.021996 -0.206123
v 0.174108 -0.021996 -0.255639
v 0.138185 -0.021996 -0.260008
v 0.127019 -0.015044 -0.242532
v 0.064377 -0.035510 0.111217
v 0.060221 0.015982 0.102782
v 0.066276 -0.007175 0.106619
v 0.029234 0.037255 0.115846
v 0.000000 0.045697 -0.006875
v -0.014944 0.039562 -0.021336
v -0.033462 0.036351 -0.023368
v -0.034612 0.034197 0.007216
v -0.029234 0.037255 0.115846
v 0.014944 0.039562 -0.021336
v 0.033462 0.036351 -0.023368
v 0.034612 0.034197 0.007216
v 0.013525 0.040287 0.125338
v -0.068561 -0.035343 -0.205150
v -0.035910 -0.035343 -0.212578
v -0.016123 -0.035343 -0.216292
v 0.000000 -0.035343 -0.218769
v -0.056684 0.027087 -0.205997
v -0.036781 0.041838 -0.211760
v -0.016168 0.043940 -0.216296
v 0.000000 0.043940 -0.218772
v -0.062100 0.004639 -0.205581
v 0.068561 -0.035343 -0.205150
v 0.035910 -0.035343 -0.212578
v 0.016123 -0.035343 -0.216292
v 0.056684 0.027087 -0.205997
v 0.036781 0.041838 -0.211760
v 0.016168 0.043940 -0.216296
v 0.062100 0.004639 -0.205581
v -0.061379 -0.028522 -0.213677
v -0.035906 -0.025026 -0.219355
v -0.016124 -0.025026 -0.223130
v 0.000000 -0.025026 -0.225597
v -0.051531 0.022788 -0.214470
v -0.033761 0.031791 -0.219631
v -0.015764 0.033623 -0.223250
v 0.000000 0.033623 -0.225597
v -0.053270 0.002372 -0.214844
v 0.061379 -0.028522 -0.213677
v 0.035906 -0.025026 -0.219355
v 0.016124 -0.025026 -0.223130
v 0.051531 0.022788 -0.214470
v 0.033761 0.031791 -0.219631
v 0.015764 0.033623 -0.223250
v 0.053270 0.002372 -0.214844
v -0.057696 -0.025025 -0.214545
v -0.035905 -0.021364 -0.207575
v -0.016124 -0.021364 -0.211367
v 0.000000 -0.021364 -0.213828
v -0.048890 0.020584 -0.215314
v -0.032688 0.028225 -0.208223
v -0.015620 0.029961 -0.211517
v 0.000000 0.029961 -0.213824
v -0.050135 0.001568 -0.203936
v 0.057696 -0.025025 -0.214545
v 0.035905 -0.021364 -0.207575
v 0.016124 -0.021364 -0.211367
v 0.048890 0.020584 -0.215314
v 0.032688 0.028225 -0.208223
v 0.015620 0.029961 -0.211517
v 0.050135 0.001568 -0.203936
v -0.053840 -0.018519 -0.196184
v -0.047870 0.016276 -0.209808
v 0.000000 0.001453 -0.218784
v -0.034230 0.001453 -0.200649
v -0.015134 0.001453 -0.203808
v 0.053840 -0.018519 -0.196184
v 0.047870 0.016276 -0.209808
v 0.034230 0.001453 -0.200649
v 0.015134 0.001453 -0.203808
v -0.035905 -0.018520 -0.200075
v -0.016124 -0.018520 -0.203867
v 0.000000 -0.018520 -0.206328
v -0.033926 0.025009 -0.213601
v -0.016211 0.026533 -0.216895
v 0.000000 0.026533 -0.219202
v -0.050135 0.001610 -0.196436
v 0.035905 -0.018520 -0.200075
v 0.016124 -0.018520 -0.203867
v 0.033926 0.025009 -0.213601
v 0.016211 0.026533 -0.216895
v 0.050135 0.001610 -0.196436
v -0.015959 0.013993 -0.216790
v 0.035068 -0.008533 -0.200362
v 0.015629 -0.008533 -0.203837
v 0.034726 0.013231 -0.213564
v 0.015959 0.013993 -0.216790
v -0.053957 -0.008455 -0.209188
v -0.049952 0.008943 -0.209561
v 0.051988 -0.008455 -0.196310
v 0.049952 0.008943 -0.209561
v 0.016221 -0.008533 -0.216716
v 0.036396 -0.008533 -0.213240
v 0.053957 -0.008455 -0.209188
v 0.000000 -0.008533 -0.218995
v -0.051988 -0.008455 -0.196310
v -0.035068 -0.008533 -0.200362
v -0.015629 -0.008533 -0.203837
v -0.015707 0.001453 -0.216686
v 0.000000 0.001453 -0.205905
v -0.035527 0.001453 -0.213527
v -0.052034 0.001610 -0.209315
v 0.015707 0.001453 -0.216686
v 0.035527 0.001453 -0.213527
v 0.052034 0.001610 -0.209315
v 0.000000 0.013993 -0.218993
v 0.015377 0.013993 -0.203912
v 0.033459 0.013231 -0.200686
v 0.048129 0.008943 -0.196683
v -0.015377 0.013993 -0.203912
v -0.033459 0.013231 -0.200686
v -0.048129 0.008943 -0.196683
v -0.053840 -0.021363 -0.190138
v -0.046123 0.018276 -0.190884
v 0.053840 -0.021363 -0.190138
v 0.046123 0.018276 -0.190884
v -0.035905 -0.021364 -0.194029
v -0.016124 -0.021364 -0.197821
v 0.000000 -0.021364 -0.200283
v -0.032688 0.028225 -0.194678
v -0.015620 0.029961 -0.197971
v 0.000000 0.029961 -0.200279
v -0.050135 0.001568 -0.190391
v 0.035905 -0.021364 -0.194029
v 0.016124 -0.021364 -0.197821
v 0.032688 0.028225 -0.194678
v 0.015620 0.029961 -0.197971
v 0.050135 0.001568 -0.190391
v -0.000076 -0.016136 0.409993
v -0.000027 -0.025110 0.402994
v -0.012009 -0.024431 0.399706
v 0.012009 -0.024431 0.399706
v -0.011871 -0.017437 0.405079
v 0.011871 -0.017437 0.405079
v -0.010624 -0.009263 0.391883
v 0.010624 -0.009263 0.391883
v -0.024887 -0.025405 0.394842
v 0.024887 -0.025405 0.394842
v -0.022774 -0.018757 0.400737
v 0.022774 -0.018757 0.400737
vt 0.747188 0.536501
vt 0.766601 0.635940
vt 0.747414 0.635057
vt 0.783576 0.560805
vt 0.789329 0.636704
vt 0.819592 0.585575
vt 0.811732 0.636994
vt 0.830432 0.636069
vt 0.576166 0.567233
vt 0.597511 0.572986
vt 0.582095 0.622217
vt 0.559962 0.616638
vt 0.620740 0.577027
vt 0.605031 0.625293
vt 0.628077 0.627821
vt 0.662009 0.554938
vt 0.651421 0.629569
vt 0.701336 0.534941
vt 0.675308 0.630446
vt 0.699399 0.631844
vt 0.724414 0.535468
vt 0.723399 0.633608
vt 0.768531 0.698455
vt 0.748292 0.695496
vt 0.792710 0.702239
vt 0.816681 0.705134
vt 0.836020 0.706203
vt 0.568830 0.689212
vt 0.543534 0.687148
vt 0.593414 0.689361
vt 0.618271 0.688736
vt 0.643662 0.688055
vt 0.669657 0.687989
vt 0.696034 0.689191
vt 0.722586 0.691785
vt 0.744955 0.751846
vt 0.719615 0.744286
vt 0.614998 0.747873
vt 0.590997 0.753782
vt 0.828489 0.781521
vt 0.809970 0.777073
vt 0.692894 0.740222
vt 0.764435 0.759633
vt 0.640018 0.742812
vt 0.567528 0.759459
vt 0.543534 0.764640
vt 0.788019 0.769179
vt 0.666124 0.739889
vt 0.605606 0.821482
vt 0.589576 0.837342
vt 0.778297 0.861247
vt 0.763942 0.842237
vt 0.689841 0.785099
vt 0.666398 0.786411
vt 0.734974 0.803097
vt 0.713051 0.790557
vt 0.623699 0.806095
vt 0.791674 0.872967
vt 0.750799 0.820171
vt 0.644076 0.793785
vt 0.574170 0.857394
vt 0.636173 0.849095
vt 0.639960 0.873476
vt 0.716089 0.880222
vt 0.727383 0.858799
vt 0.687744 0.808759
vt 0.670047 0.810660
vt 0.720522 0.824641
vt 0.705271 0.813416
vt 0.642280 0.831390
vt 0.680103 0.907744
vt 0.714929 0.881138
vt 0.726328 0.839553
vt 0.654279 0.818515
vt 0.726483 0.840171
vt 0.677123 0.832892
vt 0.669515 0.838282
vt 0.664330 0.858370
vt 0.668336 0.870600
vt 0.693669 0.869047
vt 0.701446 0.858656
vt 0.685905 0.831583
vt 0.700486 0.839559
vt 0.693966 0.834468
vt 0.664820 0.847125
vt 0.681837 0.876113
vt 0.692808 0.869317
vt 0.702932 0.848350
vt 0.703091 0.848783
vt 0.978189 0.496426
vt 0.970339 0.510850
vt 0.964299 0.504859
vt 0.970326 0.494380
vt 0.440521 0.927161
vt 0.457397 0.917448
vt 0.462527 0.937433
vt 0.454351 0.941190
vt 0.955620 0.457675
vt 0.969964 0.466017
vt 0.964020 0.471821
vt 0.953490 0.465928
vt 0.925329 0.511017
vt 0.917083 0.496874
vt 0.925108 0.494794
vt 0.931276 0.505222
vt 0.917083 0.480635
vt 0.924931 0.466422
vt 0.930948 0.472125
vt 0.924946 0.482661
vt 0.955973 0.519093
vt 0.953927 0.511037
vt 0.978209 0.480173
vt 0.970182 0.482244
vt 0.939004 0.458026
vt 0.941390 0.465982
vt 0.939564 0.519161
vt 0.941824 0.511168
vt 0.654675 0.943029
vt 0.649286 0.952379
vt 0.644894 0.947945
vt 0.648731 0.941446
vt 0.474884 0.990527
vt 0.455306 0.990826
vt 0.461267 0.970335
vt 0.470037 0.971210
vt 0.502810 0.945836
vt 0.502681 0.964912
vt 0.482810 0.959233
vt 0.483660 0.950363
vt 0.429593 0.943507
vt 0.450373 0.949132
vt 0.477617 0.917506
vt 0.471371 0.938103
vt 0.439227 0.979950
vt 0.453285 0.966030
vt 0.492660 0.982046
vt 0.477791 0.966636
vt 0.494342 0.928696
vt 0.479072 0.942547
vt 0.429593 0.963339
vt 0.449529 0.957943
vt 0.985653 0.639401
vt 0.994842 0.658309
vt 0.968661 0.666465
vt 0.964827 0.662066
vt 0.639868 0.957590
vt 0.629122 0.957628
vt 0.630779 0.951617
vt 0.638332 0.951708
vt 0.640120 0.917538
vt 0.649478 0.922936
vt 0.645044 0.927332
vt 0.638548 0.923490
vt 0.614584 0.932028
vt 0.620134 0.922825
vt 0.624404 0.927150
vt 0.620604 0.933673
vt 0.619914 0.952088
vt 0.624241 0.947820
vt 0.654677 0.932345
vt 0.648796 0.933882
vt 0.629387 0.917491
vt 0.630988 0.923427
vt 0.614584 0.942823
vt 0.620525 0.941229
vt 0.682474 0.917491
vt 0.689081 0.921306
vt 0.692895 0.927912
vt 0.692895 0.935541
vt 0.689081 0.942148
vt 0.682474 0.945963
vt 0.674845 0.945962
vt 0.668238 0.942148
vt 0.664424 0.935541
vt 0.664424 0.927912
vt 0.668238 0.921306
vt 0.674845 0.917491
vt 0.916677 0.677671
vt 0.916880 0.657029
vt 0.945569 0.663309
vt 0.944372 0.669211
vt 0.927514 0.639166
vt 0.945863 0.628860
vt 0.955000 0.656881
vt 0.949449 0.658795
vt 0.965834 0.707317
vt 0.944628 0.707317
vt 0.951796 0.677367
vt 0.957532 0.678711
vt 0.995126 0.679394
vt 0.967194 0.672395
vt 0.967110 0.629015
vt 0.960674 0.658086
vt 0.927468 0.695545
vt 0.946101 0.675018
vt 0.984290 0.697227
vt 0.963146 0.676860
vt 0.897944 0.186275
vt 0.898043 0.143974
vt 0.909488 0.141918
vt 0.909304 0.181296
vt 0.490733 0.867241
vt 0.502810 0.865185
vt 0.502810 0.907701
vt 0.490827 0.906820
vt 0.424623 0.865294
vt 0.437343 0.863251
vt 0.437305 0.903032
vt 0.424684 0.907595
vt 0.893577 0.910374
vt 0.893667 0.870794
vt 0.907033 0.868737
vt 0.906834 0.910822
vt 0.437381 0.823470
vt 0.424765 0.822994
vt 0.893565 0.831215
vt 0.906821 0.826651
vt 0.897944 0.101673
vt 0.909304 0.102540
vt 0.502810 0.822669
vt 0.490826 0.827661
vt 0.845767 0.633233
vt 0.867785 0.632828
vt 0.867786 0.641119
vt 0.850606 0.641439
vt 0.876588 0.910755
vt 0.876437 0.868670
vt 0.883700 0.871672
vt 0.883818 0.904551
vt 0.476974 0.865079
vt 0.476823 0.907165
vt 0.469593 0.900960
vt 0.469711 0.868082
vt 0.889802 0.633226
vt 0.884966 0.641434
vt 0.889802 0.720551
vt 0.867799 0.720967
vt 0.867796 0.707534
vt 0.884980 0.707205
vt 0.476823 0.822994
vt 0.469593 0.835203
vt 0.845795 0.720558
vt 0.850613 0.707211
vt 0.876588 0.826584
vt 0.883818 0.838793
vt 0.885156 0.674322
vt 0.850426 0.674327
vt 0.448096 0.356873
vt 0.519362 0.412533
vt 0.514168 0.419862
vt 0.439849 0.367871
vt 0.351944 0.269702
vt 0.383760 0.311101
vt 0.376937 0.320549
vt 0.341336 0.292533
vt 0.874883 0.482606
vt 0.894401 0.482267
vt 0.894403 0.495465
vt 0.874884 0.495465
vt 0.232651 0.116017
vt 0.288558 0.141016
vt 0.280173 0.152578
vt 0.221927 0.129130
vt 0.184316 0.083827
vt 0.172721 0.097985
vt 0.138766 0.049995
vt 0.126656 0.064961
vt 0.106419 0.032746
vt 0.095041 0.048906
vt 0.851172 0.115339
vt 0.848534 0.101673
vt 0.861223 0.102202
vt 0.865943 0.115136
vt 0.470976 0.105802
vt 0.530545 0.062054
vt 0.533787 0.066410
vt 0.474445 0.127568
vt 0.852936 0.131641
vt 0.868194 0.131044
vt 0.386387 0.147368
vt 0.391484 0.174574
vt 0.854157 0.144545
vt 0.869499 0.144545
vt 0.336367 0.157619
vt 0.331168 0.178136
vt 0.342040 0.133998
vt 0.383465 0.125254
vt 0.496493 0.766769
vt 0.494992 0.752963
vt 0.508741 0.753102
vt 0.510165 0.766769
vt 0.467418 0.087187
vt 0.492855 0.736003
vt 0.506817 0.735988
vt 0.523933 0.054671
vt 0.490733 0.720616
vt 0.504616 0.720948
vt 0.126411 0.004873
vt 0.157581 0.024844
vt 0.202948 0.060683
vt 0.248736 0.093221
vt 0.300589 0.119259
vt 0.105197 0.102509
vt 0.152177 0.135813
vt 0.144031 0.146012
vt 0.096360 0.113050
vt 0.201033 0.169124
vt 0.192562 0.179676
vt 0.210058 0.154406
vt 0.160128 0.122077
vt 0.387430 0.243171
vt 0.463608 0.319083
vt 0.455210 0.339775
vt 0.393456 0.298618
vt 0.113502 0.088076
vt 0.236771 0.163221
vt 0.872477 0.468570
vt 0.892343 0.470761
vt 0.322303 0.210485
vt 0.523808 0.377242
vt 0.525117 0.404042
vt 0.079173 0.063545
vt 0.066008 0.075579
vt 0.056521 0.085515
vt 0.400684 0.546873
vt 0.484522 0.600140
vt 0.409413 0.682294
vt 0.681353 0.242141
vt 0.754193 0.266879
vt 0.756442 0.324292
vt 0.897534 0.730740
vt 0.897401 0.816864
vt 0.895281 0.816895
vt 0.895283 0.730754
vt 0.864403 0.428430
vt 0.864399 0.457330
vt 0.861326 0.457331
vt 0.861326 0.428430
vt 0.747680 0.496383
vt 0.747680 0.522125
vt 0.744605 0.522126
vt 0.744605 0.496384
vt 0.744605 0.486636
vt 0.744605 0.387308
vt 0.747680 0.387362
vt 0.746702 0.485548
vt 0.736219 0.155112
vt 0.751031 0.156951
vt 0.751031 0.159500
vt 0.736219 0.161003
vt 0.920157 0.370967
vt 0.920157 0.447893
vt 0.917083 0.447928
vt 0.917083 0.371001
vt 0.723713 0.499831
vt 0.723713 0.511326
vt 0.720639 0.511361
vt 0.720639 0.499866
vt 0.494269 0.710865
vt 0.494269 0.546873
vt 0.497343 0.546878
vt 0.497343 0.710869
vt 0.340708 0.913878
vt 0.340708 0.836085
vt 0.365981 0.840978
vt 0.369328 0.917832
vt 0.908864 0.734668
vt 0.937483 0.730714
vt 0.934136 0.807567
vt 0.908864 0.812461
vt 0.391666 0.827840
vt 0.391666 0.905633
vt 0.389966 0.906552
vt 0.389960 0.828799
vt 0.842349 0.907515
vt 0.842349 0.829564
vt 0.847753 0.830795
vt 0.847707 0.906497
vt 0.379075 0.864976
vt 0.379075 0.836085
vt 0.380111 0.836085
vt 0.380111 0.864976
vt 0.930940 0.370967
vt 0.930940 0.396709
vt 0.929904 0.396708
vt 0.929904 0.370967
vt 0.672623 0.213569
vt 0.683736 0.216510
vt 0.893565 0.816904
vt 0.893700 0.730780
vt 0.672623 0.377561
vt 0.736219 0.150587
vt 0.751031 0.154993
vt 0.411796 0.707925
vt 0.400684 0.710866
vt 0.861050 0.370970
vt 0.858965 0.428463
vt 0.860028 0.370992
vt 0.751031 0.161458
vt 0.736219 0.165528
vt 0.482253 0.657555
vt 0.879246 0.131007
vt 0.880193 0.102132
vt 0.888197 0.101673
vt 0.888197 0.187797
vt 0.876512 0.457090
vt 0.876512 0.370967
vt 0.885511 0.400300
vt 0.884564 0.371425
vt 0.858965 0.457332
vt 0.864435 0.370967
vt 0.865457 0.370987
vt 0.866765 0.428461
vt 0.899117 0.730714
vt 0.899117 0.816855
vt 0.866759 0.457330
vt 0.658671 0.359480
vt 0.659373 0.419129
vt 0.602649 0.525194
vt 0.766189 0.213569
vt 0.803683 0.309211
vt 0.795604 0.352848
vt 0.766189 0.361220
vt 0.801292 0.152524
vt 0.801293 0.004873
vt 0.830708 0.013245
vt 0.838787 0.056882
vt 0.704959 0.184918
vt 0.708974 0.185336
vt 0.708974 0.203822
vt 0.704959 0.203404
vt 0.904032 0.309681
vt 0.905347 0.309681
vt 0.905347 0.354059
vt 0.904032 0.354059
vt 0.697495 0.516240
vt 0.701546 0.515332
vt 0.701546 0.523841
vt 0.697495 0.524749
vt 0.685059 0.387308
vt 0.687748 0.387348
vt 0.687748 0.521055
vt 0.685081 0.521015
vt 0.904150 0.467079
vt 0.905465 0.467079
vt 0.905465 0.497663
vt 0.904150 0.497663
vt 0.732622 0.387308
vt 0.734832 0.387339
vt 0.734858 0.490084
vt 0.732622 0.490053
vt 0.840759 0.371887
vt 0.849218 0.370967
vt 0.849218 0.518618
vt 0.836197 0.505496
vt 0.524474 0.693604
vt 0.519912 0.559995
vt 0.532932 0.546873
vt 0.532932 0.694524
vt 0.317492 0.261832
vt 0.321769 0.261873
vt 0.313528 0.270872
vt 0.208502 0.918013
vt 0.208741 0.819478
vt 0.227926 0.818595
vt 0.250651 0.817833
vt 0.244887 0.893717
vt 0.273051 0.817544
vt 0.280900 0.868956
vt 0.291746 0.818472
vt 0.037503 0.887275
vt 0.021303 0.837877
vt 0.043431 0.832300
vt 0.058844 0.881524
vt 0.066364 0.829228
vt 0.082070 0.877487
vt 0.089407 0.826705
vt 0.112750 0.824960
vt 0.123335 0.899575
vt 0.136636 0.824086
vt 0.162657 0.919569
vt 0.160727 0.822690
vt 0.184728 0.820927
vt 0.185731 0.919044
vt 0.209638 0.759049
vt 0.229876 0.756087
vt 0.254051 0.752300
vt 0.278017 0.749407
vt 0.297352 0.748342
vt 0.004873 0.767369
vt 0.030164 0.765306
vt 0.054743 0.765164
vt 0.079596 0.765798
vt 0.104985 0.766491
vt 0.130983 0.766567
vt 0.157368 0.765367
vt 0.183931 0.762767
vt 0.180994 0.710295
vt 0.206338 0.702692
vt 0.052322 0.700730
vt 0.076313 0.706654
vt 0.271321 0.677455
vt 0.289835 0.673005
vt 0.154230 0.714380
vt 0.225816 0.694881
vt 0.101324 0.711741
vt 0.004874 0.689856
vt 0.028861 0.695043
vt 0.249382 0.685338
vt 0.127432 0.714696
vt 0.050946 0.617108
vt 0.066960 0.632983
vt 0.225271 0.612129
vt 0.239565 0.593360
vt 0.127662 0.668197
vt 0.151158 0.669595
vt 0.174485 0.664086
vt 0.196415 0.651375
vt 0.085029 0.648389
vt 0.252937 0.581639
vt 0.212199 0.634116
vt 0.105372 0.660738
vt 0.035562 0.597023
vt 0.101402 0.581034
vt 0.097593 0.605356
vt 0.188231 0.595504
vt 0.176437 0.573529
vt 0.131249 0.643940
vt 0.149026 0.646052
vt 0.166788 0.641361
vt 0.182065 0.629741
vt 0.103663 0.623051
vt 0.141608 0.546873
vt 0.187604 0.614023
vt 0.115609 0.635957
vt 0.130964 0.615997
vt 0.138525 0.621875
vt 0.129813 0.583890
vt 0.125812 0.596040
vt 0.161432 0.595251
vt 0.154414 0.585408
vt 0.147375 0.623485
vt 0.155501 0.620700
vt 0.161849 0.615321
vt 0.126286 0.607218
vt 0.143349 0.578573
vt 0.164069 0.606229
vt 0.551727 0.925523
vt 0.557723 0.931574
vt 0.551592 0.941993
vt 0.543534 0.939969
vt 0.961093 0.914862
vt 0.957028 0.935082
vt 0.948014 0.935075
vt 0.941959 0.916205
vt 0.596807 0.925805
vt 0.590727 0.931753
vt 0.580341 0.925578
vt 0.582499 0.917746
vt 0.565751 0.978895
vt 0.567961 0.970686
vt 0.580062 0.970799
vt 0.582295 0.978787
vt 0.596330 0.970612
vt 0.590623 0.964835
vt 0.596703 0.954351
vt 0.604660 0.956681
vt 0.551514 0.954098
vt 0.543534 0.956347
vt 0.568208 0.925549
vt 0.566239 0.917491
vt 0.596758 0.942240
vt 0.604837 0.940306
vt 0.557494 0.964651
vt 0.551726 0.970373
vt 0.955175 0.335062
vt 0.949297 0.333523
vt 0.949232 0.325959
vt 0.955175 0.324382
vt 0.963197 0.988340
vt 0.958682 0.968072
vt 0.965796 0.963006
vt 0.980833 0.978398
vt 0.916780 0.961997
vt 0.936817 0.957222
vt 0.941843 0.964704
vt 0.926488 0.978599
vt 0.979164 0.923673
vt 0.964492 0.939577
vt 0.940736 0.940311
vt 0.925178 0.925743
vt 0.970679 0.955555
vt 0.989656 0.960646
vt 0.949849 0.968678
vt 0.943392 0.988340
vt 0.936018 0.948160
vt 0.916847 0.943040
vt 0.969745 0.946710
vt 0.989562 0.941069
vt 0.965042 0.872108
vt 0.986379 0.893776
vt 0.967710 0.904657
vt 0.960572 0.875929
vt 0.949781 0.315106
vt 0.945407 0.319438
vt 0.938835 0.315715
vt 0.940437 0.309681
vt 0.929917 0.349846
vt 0.931458 0.343965
vt 0.939005 0.343885
vt 0.940672 0.349900
vt 0.915094 0.324506
vt 0.921029 0.326133
vt 0.921077 0.333694
vt 0.915120 0.335251
vt 0.931289 0.315729
vt 0.929688 0.309866
vt 0.945536 0.340087
vt 0.949944 0.344376
vt 0.924902 0.340198
vt 0.920500 0.344625
vt 0.924765 0.319563
vt 0.920432 0.315201
vt 0.731114 0.935541
vt 0.727299 0.942148
vt 0.720692 0.945963
vt 0.713063 0.945962
vt 0.706457 0.942148
vt 0.702642 0.935541
vt 0.702642 0.927912
vt 0.706457 0.921306
vt 0.713064 0.917491
vt 0.720692 0.917491
vt 0.727299 0.921306
vt 0.731114 0.927912
vt 0.951000 0.855898
vt 0.945555 0.826789
vt 0.966200 0.826651
vt 0.956866 0.854810
vt 0.962538 0.856716
vt 0.984154 0.836568
vt 0.994816 0.854060
vt 0.966606 0.861096
vt 0.945521 0.871049
vt 0.916780 0.876333
vt 0.916877 0.855208
vt 0.944448 0.865275
vt 0.946232 0.905115
vt 0.954902 0.877160
vt 0.994816 0.874851
vt 0.968135 0.866830
vt 0.927499 0.837130
vt 0.946457 0.859722
vt 0.927506 0.894712
vt 0.949376 0.875430
vt 0.908460 0.298170
vt 0.897100 0.293192
vt 0.896915 0.253814
vt 0.908361 0.255869
vt 0.895258 0.411427
vt 0.895352 0.371848
vt 0.907336 0.370967
vt 0.907336 0.413483
vt 0.447128 0.865294
vt 0.447229 0.822994
vt 0.459846 0.827569
vt 0.459846 0.867350
vt 0.414876 0.911560
vt 0.401618 0.912011
vt 0.401413 0.869925
vt 0.414780 0.871981
vt 0.459846 0.907131
vt 0.447229 0.907595
vt 0.401618 0.827840
vt 0.414876 0.832402
vt 0.897100 0.214436
vt 0.908460 0.213569
vt 0.907336 0.455999
vt 0.895352 0.451006
vt 0.889802 0.535339
vt 0.884966 0.543548
vt 0.867786 0.543233
vt 0.867785 0.534941
vt 0.906779 0.619113
vt 0.899549 0.612908
vt 0.899667 0.580029
vt 0.906930 0.577027
vt 0.899549 0.670945
vt 0.906812 0.673948
vt 0.906930 0.706826
vt 0.899700 0.713031
vt 0.850606 0.543553
vt 0.845767 0.535347
vt 0.845795 0.622672
vt 0.850613 0.609325
vt 0.867796 0.609648
vt 0.867798 0.623081
vt 0.899700 0.628860
vt 0.906930 0.641069
vt 0.884980 0.609319
vt 0.889802 0.622665
vt 0.899549 0.547151
vt 0.906779 0.534941
vt 0.850426 0.576441
vt 0.885156 0.576436
vt 0.431868 0.379049
vt 0.508862 0.427604
vt 0.317542 0.304949
vt 0.369357 0.329444
vt 0.874883 0.508325
vt 0.894401 0.508664
vt 0.143697 0.238494
vt 0.152301 0.223827
vt 0.192825 0.269598
vt 0.185046 0.281722
vt 0.098316 0.204779
vt 0.107720 0.189008
vt 0.051321 0.174494
vt 0.061143 0.157906
vt 0.023712 0.150627
vt 0.035057 0.134178
vt 0.851172 0.173750
vt 0.865943 0.173953
vt 0.861223 0.186887
vt 0.848534 0.187416
vt 0.230725 0.463281
vt 0.251671 0.456417
vt 0.224549 0.537126
vt 0.219191 0.536249
vt 0.852936 0.157448
vt 0.868194 0.158045
vt 0.229358 0.369083
vt 0.255980 0.361505
vt 0.216965 0.319960
vt 0.233278 0.307103
vt 0.197771 0.334589
vt 0.208298 0.376356
vt 0.508741 0.780436
vt 0.494992 0.780575
vt 0.212544 0.468639
vt 0.506817 0.797550
vt 0.492855 0.797535
vt 0.209598 0.533773
vt 0.504616 0.812590
vt 0.490733 0.812922
vt 0.004873 0.179484
vt 0.034618 0.201116
vt 0.083141 0.230384
vt 0.127926 0.261599
vt 0.169066 0.300946
vt 0.089365 0.124872
vt 0.136933 0.156950
vt 0.184136 0.190605
vt 0.126367 0.168980
vt 0.172310 0.203797
vt 0.304978 0.347267
vt 0.359708 0.341603
vt 0.417665 0.391096
vt 0.400334 0.405487
vt 0.078494 0.137586
vt 0.188003 0.225086
vt 0.872477 0.522361
vt 0.892343 0.520170
vt 0.259676 0.290201
vt 0.502889 0.435937
vt 0.477148 0.443749
vt 0.043516 0.114230
vt 0.050400 0.097787
vt 0.307099 0.710866
vt 0.315828 0.575445
vt 0.390937 0.657599
vt 0.716457 0.140294
vt 0.791546 0.058142
vt 0.789297 0.115555
vt 0.890963 0.004873
vt 0.892677 0.004878
vt 0.893384 0.091030
vt 0.891437 0.091056
vt 0.863033 0.271031
vt 0.866109 0.271032
vt 0.866109 0.299933
vt 0.863036 0.299932
vt 0.517428 0.906358
vt 0.524653 0.906359
vt 0.524653 0.932100
vt 0.517428 0.932099
vt 0.372349 0.720613
vt 0.374445 0.721701
vt 0.375423 0.819887
vt 0.372349 0.819941
vt 0.769708 0.161003
vt 0.769708 0.155112
vt 0.784520 0.156615
vt 0.784520 0.159164
vt 0.918207 0.213569
vt 0.921281 0.213603
vt 0.921281 0.290529
vt 0.918207 0.290495
vt 0.726946 0.184918
vt 0.732789 0.184953
vt 0.732789 0.196448
vt 0.726946 0.196413
vt 0.507090 0.546878
vt 0.510165 0.546873
vt 0.510165 0.710865
vt 0.507090 0.710869
vt 0.905044 0.008828
vt 0.933664 0.004874
vt 0.930317 0.081727
vt 0.905044 0.086621
vt 0.945296 0.538896
vt 0.945296 0.616688
vt 0.920024 0.611795
vt 0.916677 0.534941
vt 0.477758 0.721720
vt 0.479525 0.720613
vt 0.479525 0.798406
vt 0.477778 0.799515
vt 0.857012 0.829564
vt 0.862370 0.830582
vt 0.862416 0.906283
vt 0.857012 0.907515
vt 0.379075 0.874723
vt 0.380111 0.874723
vt 0.380111 0.903614
vt 0.379075 0.903614
vt 0.929904 0.406456
vt 0.930940 0.406456
vt 0.930940 0.432197
vt 0.929904 0.432198
vt 0.707727 0.168866
vt 0.718840 0.165925
vt 0.895197 0.004917
vt 0.895298 0.091041
vt 0.707727 0.004874
vt 0.784520 0.161122
vt 0.769708 0.165528
vt 0.307099 0.546873
vt 0.318211 0.549814
vt 0.866385 0.213572
vt 0.867407 0.213594
vt 0.868470 0.271065
vt 0.769708 0.150587
vt 0.784520 0.154656
vt 0.388668 0.600184
vt 0.887168 0.242903
vt 0.878218 0.213569
vt 0.886221 0.214027
vt 0.878218 0.299692
vt 0.883818 0.816837
vt 0.874818 0.760047
vt 0.883818 0.730714
vt 0.875766 0.731172
vt 0.868470 0.299934
vt 0.860671 0.271063
vt 0.861978 0.213589
vt 0.863000 0.213569
vt 0.888938 0.091000
vt 0.888938 0.004876
vt 0.860676 0.299932
vt 0.548394 0.417844
vt 0.550476 0.358228
vt 0.813430 0.361220
vt 0.813430 0.213569
vt 0.842845 0.221940
vt 0.850924 0.265577
vt 0.766189 0.370967
vt 0.803683 0.466609
vt 0.795604 0.510246
vt 0.766189 0.518618
vt 0.715953 0.203822
vt 0.715953 0.185336
vt 0.719968 0.184918
vt 0.719968 0.203404
vt 0.892970 0.354059
vt 0.892970 0.309681
vt 0.894285 0.309681
vt 0.894285 0.354059
vt 0.712244 0.516240
vt 0.712244 0.524749
vt 0.708193 0.523841
vt 0.708193 0.515332
vt 0.672624 0.521055
vt 0.672646 0.387348
vt 0.675312 0.387308
vt 0.675312 0.521015
vt 0.832135 0.192855
vt 0.832135 0.162271
vt 0.837112 0.162271
vt 0.837112 0.192855
vt 0.720639 0.490084
vt 0.720639 0.387339
vt 0.722875 0.387308
vt 0.722849 0.490053
vt 0.817992 0.517697
vt 0.813430 0.384088
vt 0.826450 0.370967
vt 0.826450 0.518618
vt 0.524474 0.705192
vt 0.532932 0.704271
vt 0.532932 0.851922
vt 0.519912 0.838801
vt 0.298235 0.271542
vt 0.303587 0.275328
vt 0.861608 0.495465
vt 0.861608 0.482836
vt 0.858965 0.467079
vt 0.219711 0.164693
vt 0.233410 0.179010
vt 0.311236 0.209456
vt 0.861608 0.508095
vt 0.858965 0.523852
vt 0.184390 0.208939
vt 0.200785 0.216034
vt 0.255648 0.280220
vt 0.706236 0.394076
vt 0.708190 0.416000
vt 0.700075 0.415520
vt 0.697495 0.387308
vt 0.709629 0.432854
vt 0.701478 0.432576
vt 0.710892 0.446447
vt 0.702703 0.446447
vt 0.686895 0.074141
vt 0.688926 0.055803
vt 0.697981 0.054322
vt 0.695467 0.075128
vt 0.681590 0.090278
vt 0.689729 0.091437
vt 0.678991 0.104348
vt 0.686991 0.104348
vt 0.682592 0.039615
vt 0.672624 0.014286
vt 0.678355 0.004873
vt 0.690784 0.036628
vt 0.708190 0.476894
vt 0.706236 0.498817
vt 0.697495 0.505585
vt 0.700075 0.477373
vt 0.709629 0.460039
vt 0.701478 0.460317
vt 0.688927 0.152892
vt 0.686895 0.134554
vt 0.695467 0.133567
vt 0.697981 0.154374
vt 0.681590 0.118417
vt 0.689729 0.117259
vt 0.672624 0.194409
vt 0.682592 0.169080
vt 0.690784 0.172068
vt 0.678355 0.203822
vt 0.357255 0.817982
vt 0.357251 0.801082
vt 0.362597 0.804278
vt 0.362602 0.826338
vt 0.357232 0.785829
vt 0.362576 0.787259
vt 0.357232 0.773475
vt 0.362575 0.773475
vt 0.314203 0.799448
vt 0.322699 0.811357
vt 0.319221 0.818089
vt 0.308726 0.803370
vt 0.312814 0.785545
vt 0.307099 0.787064
vt 0.312813 0.773475
vt 0.307099 0.773475
vt 0.336499 0.814666
vt 0.335833 0.822062
vt 0.357251 0.745869
vt 0.357255 0.728969
vt 0.362602 0.720612
vt 0.362597 0.742673
vt 0.357232 0.761122
vt 0.362576 0.759691
vt 0.322699 0.735593
vt 0.314203 0.747502
vt 0.308726 0.743581
vt 0.319221 0.728861
vt 0.312814 0.761405
vt 0.307099 0.759886
vt 0.336499 0.732284
vt 0.335833 0.724888
vt 0.403435 0.723757
vt 0.400491 0.738979
vt 0.390068 0.739082
vt 0.393714 0.720612
vt 0.397569 0.755739
vt 0.387153 0.755776
vt 0.395588 0.769353
vt 0.385170 0.769353
vt 0.863614 0.076352
vt 0.867794 0.090376
vt 0.858375 0.091926
vt 0.853438 0.076669
vt 0.860820 0.061655
vt 0.850416 0.061621
vt 0.858956 0.048400
vt 0.848534 0.048400
vt 0.810932 0.178401
vt 0.810905 0.198050
vt 0.801293 0.201521
vt 0.801317 0.178087
vt 0.810849 0.163851
vt 0.801293 0.162271
vt 0.400491 0.799726
vt 0.403436 0.814948
vt 0.393714 0.818093
vt 0.390068 0.799623
vt 0.397569 0.782967
vt 0.387153 0.782930
vt 0.867794 0.006424
vt 0.863614 0.020447
vt 0.853438 0.020130
vt 0.858375 0.004873
vt 0.860820 0.035145
vt 0.850416 0.035178
vt 0.928848 0.105144
vt 0.928874 0.124793
vt 0.919260 0.125108
vt 0.919235 0.101673
vt 0.928792 0.139344
vt 0.919235 0.140923
vt 0.325935 0.905673
vt 0.330961 0.918060
vt 0.318262 0.918155
vt 0.311166 0.905815
vt 0.323716 0.890247
vt 0.308457 0.890827
vt 0.322446 0.877120
vt 0.307099 0.877120
vt 0.859435 0.775265
vt 0.860832 0.788633
vt 0.847083 0.788501
vt 0.845767 0.775265
vt 0.862805 0.805269
vt 0.848843 0.805300
vt 0.865071 0.819817
vt 0.851188 0.819477
vt 0.325935 0.848567
vt 0.311166 0.848424
vt 0.318262 0.836085
vt 0.330961 0.836180
vt 0.323716 0.863992
vt 0.308457 0.863413
vt 0.847083 0.762030
vt 0.860832 0.761898
vt 0.848843 0.745231
vt 0.862805 0.745261
vt 0.851188 0.731054
vt 0.865071 0.730714
vt 0.409015 0.783109
vt 0.411932 0.799955
vt 0.409015 0.755597
vt 0.407051 0.769353
vt 0.875147 0.075935
vt 0.879192 0.089784
vt 0.879192 0.007016
vt 0.875147 0.020865
vt 0.872220 0.061634
vt 0.872220 0.035165
vt 0.870361 0.048400
vt 0.822388 0.178590
vt 0.822349 0.198207
vt 0.940292 0.104988
vt 0.940331 0.124605
vt 0.822274 0.164086
vt 0.414876 0.723500
vt 0.411932 0.738750
vt 0.940217 0.139108
vt 0.414876 0.815206
vt 0.426090 0.738895
vt 0.448625 0.723719
vt 0.467999 0.753145
vt 0.533787 0.409042
vt 0.510726 0.442341
vt 0.530743 0.418624
vt 0.527369 0.429064
vt 0.518684 0.436042
vt 0.526985 0.891690
vt 0.520224 0.886126
vt 0.517428 0.861669
vt 0.527407 0.862762
vt 0.872347 0.323001
vt 0.863764 0.322936
vt 0.860671 0.309681
vt 0.869172 0.311778
vt 0.873605 0.333486
vt 0.865270 0.333466
vt 0.863769 0.343996
vt 0.872352 0.343927
vt 0.860683 0.357253
vt 0.869183 0.355151
vt 0.922031 0.161155
vt 0.928792 0.155590
vt 0.929214 0.184518
vt 0.919235 0.185611
vt 0.934740 0.184466
vt 0.934740 0.150670
vt 0.876676 0.353299
vt 0.879806 0.343824
vt 0.883223 0.333523
vt 0.879801 0.323100
vt 0.876666 0.313626
vt 0.532932 0.862815
vt 0.532932 0.896611
vt 0.618858 0.007923
vt 0.631676 0.012497
vt 0.645306 0.032995
vt 0.655050 0.098902
vt 0.657728 0.196127
vt 0.608669 0.004873
vt 0.660293 0.246962
vt 0.662877 0.297796
vt 0.616298 0.523260
vt 0.660722 0.514359
vt 0.633057 0.520316
vt 0.662877 0.477763
vt 0.571392 0.032140
vt 0.585493 0.011963
vt 0.598413 0.007686
vt 0.560125 0.097804
vt 0.551457 0.245703
vt 0.555199 0.194941
vt 0.589047 0.522945
vt 0.572362 0.519614
vt 0.543534 0.476382
vt 0.544842 0.513019
vt 0.547699 0.296463
vt 0.468011 0.797737
vt 0.468009 0.813247
vt 0.448625 0.810140
vt 0.434494 0.806767
vt 0.426090 0.794965
vt 0.424623 0.780274
vt 0.467999 0.780714
vt 0.424623 0.766930
vt 0.467999 0.766930
vt 0.424623 0.753586
vt 0.434494 0.727092
vt 0.468009 0.720612
vt 0.468011 0.736122
s 1
usemtl Material.001
f 20/1 22/2 21/3
f 20/1 18/4 23/5 22/2
f 18/4 16/6 24/7 23/5
f 16/6 25/8 24/7
f 16/9 14/10 26/11 25/12
f 14/10 19/13 27/14 26/11
f 19/13 28/15 27/14
f 19/13 17/16 29/17 28/15
f 17/16 15/18 30/19 29/17
f 15/18 31/20 30/19
f 15/18 1/21 32/22 31/20
f 1/21 20/1 21/3 32/22
f 21/3 22/2 4/23 3/24
f 22/2 23/5 5/25 4/23
f 23/5 24/7 6/26 5/25
f 24/7 25/8 7/27 6/26
f 25/12 26/11 8/28 7/29
f 26/11 27/14 9/30 8/28
f 27/14 28/15 10/31 9/30
f 28/15 29/17 11/32 10/31
f 29/17 30/19 12/33 11/32
f 30/19 31/20 13/34 12/33
f 31/20 32/22 2/35 13/34
f 32/22 21/3 3/24 2/35
f 2/35 3/24 46/36 45/37
f 9/30 10/31 53/38 52/39
f 6/26 7/27 50/40 49/41
f 13/34 2/35 45/37 56/42
f 3/24 4/23 47/43 46/36
f 10/31 11/32 54/44 53/38
f 7/29 8/28 51/45 50/46
f 4/23 5/25 48/47 47/43
f 11/32 12/33 55/48 54/44
f 8/28 9/30 52/39 51/45
f 5/25 6/26 49/41 48/47
f 12/33 13/34 56/42 55/48
f 51/45 52/39 64/49 63/50
f 48/47 49/41 61/51 60/52
f 55/48 56/42 68/53 67/54
f 45/37 46/36 58/55 57/56
f 52/39 53/38 65/57 64/49
f 49/41 50/40 62/58 61/51
f 56/42 45/37 57/56 68/53
f 46/36 47/43 59/59 58/55
f 53/38 54/44 66/60 65/57
f 50/46 51/45 63/50 62/61
f 47/43 48/47 60/52 59/59
f 54/44 55/48 67/54 66/60
f 63/50 64/49 76/62 75/63
f 60/52 61/51 73/64 72/65
f 67/54 68/53 80/66 79/67
f 57/56 58/55 70/68 69/69
f 64/49 65/57 77/70 76/62
f 61/51 62/58 74/71 73/72
f 68/53 57/56 69/69 80/66
f 58/55 59/59 71/73 70/68
f 65/57 66/60 78/74 77/70
f 62/61 63/50 75/63 74/71
f 59/59 60/52 72/65 71/75
f 66/60 67/54 79/67 78/74
f 78/74 79/67 91/76 90/77
f 75/63 76/62 88/78 87/79
f 72/65 73/64 85/80 84/81
f 79/67 80/66 92/82 91/76
f 69/69 70/68 82/83 81/84
f 76/62 77/70 89/85 88/78
f 73/72 74/71 86/86 85/87
f 80/66 69/69 81/84 92/82
f 70/68 71/73 83/88 82/83
f 77/70 78/74 90/77 89/85
f 74/71 75/63 87/79 86/86
f 71/75 72/65 84/81 83/89
f 88/90 89/91 101/92 100/93
f 93/94 94/95 106/96 105/97
f 85/98 86/99 98/100 97/101
f 92/102 81/103 93/104 104/105
f 82/106 83/107 95/108 94/109
f 89/91 90/110 102/111 101/92
f 86/99 87/112 99/113 98/100
f 83/107 84/114 96/115 95/108
f 90/110 91/116 103/117 102/111
f 87/112 88/90 100/93 99/113
f 84/114 85/98 97/101 96/115
f 91/116 92/102 104/105 103/117
f 81/103 82/106 94/109 93/104
f 115/118 116/119 128/120 127/121
f 100/122 101/123 113/124 112/125
f 97/126 98/127 110/128 109/129
f 104/130 93/94 105/97 116/131
f 94/95 95/132 107/133 106/96
f 101/123 102/134 114/135 113/124
f 98/127 99/136 111/137 110/128
f 95/132 96/138 108/139 107/133
f 102/134 103/140 115/141 114/135
f 99/136 100/122 112/125 111/137
f 96/138 97/126 109/129 108/139
f 103/140 104/130 116/131 115/141
f 120/142 121/143 133/144 132/145
f 105/146 106/147 118/148 117/149
f 112/150 113/151 125/152 124/153
f 109/154 110/155 122/156 121/157
f 116/119 105/146 117/149 128/120
f 106/147 107/158 119/159 118/148
f 113/151 114/160 126/161 125/152
f 110/155 111/162 123/163 122/156
f 107/158 108/164 120/165 119/159
f 114/160 115/118 127/121 126/161
f 111/162 112/150 124/153 123/163
f 108/164 109/154 121/157 120/165
f 129/166 130/167 131/168 132/169 133/170 134/171 135/172 136/173 137/174 138/175 139/176 140/177
f 127/178 128/179 140/180 139/181
f 117/182 118/183 130/184 129/185
f 124/186 125/187 137/188 136/189
f 121/143 122/190 134/191 133/144
f 128/179 117/182 129/185 140/180
f 118/183 119/192 131/193 130/184
f 125/187 126/194 138/195 137/188
f 122/190 123/196 135/197 134/191
f 119/192 120/142 132/145 131/193
f 126/194 127/178 139/181 138/195
f 123/196 124/186 136/189 135/197
f 164/198 162/199 146/200 148/201
f 154/202 149/203 157/204 163/205
f 159/206 156/207 158/208 161/209
f 160/210 155/211 145/212 147/213
f 142/214 156/207 159/206 152/215
f 145/212 155/211 151/216 143/217
f 146/200 162/199 150/218 144/219
f 141/220 149/203 154/202 153/221
f 19/222 14/223 166/224 171/225
f 16/226 18/227 170/228 168/229
f 17/230 19/231 171/232 169/233
f 14/223 16/234 168/235 166/224
f 20/236 1/237 165/238 172/239
f 15/240 17/230 169/233 167/241
f 1/237 15/242 167/243 165/238
f 18/227 20/244 172/245 170/228
f 170/246 172/239 165/238 167/243 169/247 171/225 166/224 168/235
f 208/248 649/249 195/250 196/251
f 264/252 204/253 197/254 263/255
f 214/256 205/257 198/258 519/259
f 186/260 185/261 176/262 177/263
f 187/264 186/260 177/263 178/265
f 189/266 187/264 178/265 179/267
f 536/268 189/266 179/267 532/269
f 579/270 591/271 603/272 184/273
f 192/274 188/275 173/276 174/277
f 580/278 579/270 184/273 597/279
f 194/280 192/274 174/277 175/281
f 614/282 580/278 597/279 620/283
f 262/284 194/280 175/281 261/285
f 260/286 36/287 194/280 262/284
f 587/288 586/289 193/290 609/291
f 36/287 35/292 192/274 194/280
f 586/289 585/293 452/294 193/290
f 35/292 34/295 188/275 192/274
f 585/293 576/296 602/297 452/294
f 528/298 40/299 189/266 536/268
f 40/299 39/300 187/264 189/266
f 39/300 38/301 186/260 187/264
f 38/301 37/302 185/261 186/260
f 212/303 211/304 200/305 201/306
f 204/253 208/248 196/251 197/254
f 211/304 520/307 199/308 200/305
f 178/265 177/263 521/309 210/310
f 210/310 521/309 520/307 211/304
f 175/311 174/312 209/313 203/314
f 203/314 209/313 208/248 204/253
f 179/267 178/265 210/310 213/315
f 213/315 210/310 211/304 212/303
f 177/263 176/262 522/316 521/309
f 215/317 206/318 205/257 214/256
f 261/285 175/311 203/314 523/319
f 523/319 203/314 204/253 264/252
f 174/312 173/320 207/321 209/313
f 209/313 207/321 649/249 208/248
f 533/322 213/315 212/303 534/323
f 179/267 213/315 533/322 532/269
f 201/306 535/324 534/323 212/303
f 223/325 222/326 218/327
f 226/328 227/329 230/330
f 221/331 222/332 230/333 229/334
f 219/335 220/336 228/337 227/338
f 217/339 218/340 226/341 225/342
f 222/343 223/344 231/345 230/346
f 220/347 221/348 229/349 228/350
f 218/351 219/352 227/353 226/354
f 216/355 217/356 225/357 224/358
f 223/359 216/360 224/361 231/362
f 239/363 236/364 237/365 238/366
f 235/367 234/368 233/369 232/370
f 235/371 232/372 236/373 239/374
f 233/375 234/376 238/377 237/378
f 234/379 235/380 239/381 238/382
f 232/383 233/384 237/385 236/386
f 224/387 225/388 226/328
f 229/334 230/333 247/389 246/390
f 231/391 224/387 226/328
f 221/348 220/347 241/392 242/393
f 231/391 226/328 230/330
f 218/327 217/394 216/395
f 230/396 227/338 244/397 247/398
f 228/350 229/349 246/399 245/400
f 218/327 216/395 223/325
f 222/326 219/401 218/327
f 244/402 245/403 246/404
f 244/402 246/404 247/405
f 243/406 242/407 240/408
f 242/407 241/409 240/408
f 227/338 228/337 245/410 244/397
f 219/335 222/411 243/412 240/413
f 222/332 221/331 242/414 243/415
f 220/336 219/335 240/413 241/416
f 38/417 39/418 531/419
f 255/420 256/421 257/422 258/423
f 249/424 252/425 251/426 250/427
f 253/428 259/429 258/430 252/431
f 251/432 257/433 256/434 250/435
f 249/436 255/437 254/438 248/439
f 248/440 254/441 259/442 253/443
f 252/444 258/445 257/446 251/447
f 250/448 256/449 255/450 249/451
f 254/452 255/453 258/454 259/455
f 248/456 253/457 252/458 249/459
f 206/460 523/319 264/252 205/461
f 176/262 261/285 523/319 522/316
f 37/302 260/286 262/284 185/261
f 185/261 262/284 261/285 176/262
f 205/461 264/252 263/255 198/462
f 284/463 285/464 286/465
f 284/463 286/465 287/466 282/467
f 282/467 287/466 288/468 280/469
f 280/469 288/468 289/470
f 280/471 289/472 290/473 278/474
f 278/474 290/473 291/475 283/476
f 283/476 291/475 292/477
f 283/476 292/477 293/478 281/479
f 281/479 293/478 294/480 279/481
f 279/481 294/480 295/482
f 279/481 295/482 296/483 265/484
f 265/484 296/483 285/464 284/463
f 285/464 267/485 268/486 286/465
f 286/465 268/486 269/487 287/466
f 287/466 269/487 270/488 288/468
f 288/468 270/488 271/489 289/470
f 289/472 271/490 272/491 290/473
f 290/473 272/491 273/492 291/475
f 291/475 273/492 274/493 292/477
f 292/477 274/493 275/494 293/478
f 293/478 275/494 276/495 294/480
f 294/480 276/495 277/496 295/482
f 295/482 277/496 266/497 296/483
f 296/483 266/497 267/485 285/464
f 266/497 308/498 309/499 267/485
f 273/492 315/500 316/501 274/493
f 270/488 312/502 313/503 271/489
f 277/496 319/504 308/498 266/497
f 267/485 309/499 310/505 268/486
f 274/493 316/501 317/506 275/494
f 271/490 313/507 314/508 272/491
f 268/486 310/505 311/509 269/487
f 275/494 317/506 318/510 276/495
f 272/491 314/508 315/500 273/492
f 269/487 311/509 312/502 270/488
f 276/495 318/510 319/504 277/496
f 314/508 326/511 327/512 315/500
f 311/509 323/513 324/514 312/502
f 318/510 330/515 331/516 319/504
f 308/498 320/517 321/518 309/499
f 315/500 327/512 328/519 316/501
f 312/502 324/514 325/520 313/503
f 319/504 331/516 320/517 308/498
f 309/499 321/518 322/521 310/505
f 316/501 328/519 329/522 317/506
f 313/507 325/523 326/511 314/508
f 310/505 322/521 323/513 311/509
f 317/506 329/522 330/515 318/510
f 326/511 338/524 339/525 327/512
f 323/513 335/526 336/527 324/514
f 330/515 342/528 343/529 331/516
f 320/517 332/530 333/531 321/518
f 327/512 339/525 340/532 328/519
f 324/514 336/527 337/533 325/520
f 331/516 343/529 332/530 320/517
f 321/518 333/531 334/534 322/521
f 328/519 340/532 341/535 329/522
f 325/523 337/533 338/524 326/511
f 322/521 334/534 335/526 323/513
f 329/522 341/535 342/528 330/515
f 341/535 353/536 354/537 342/528
f 338/524 350/538 351/539 339/525
f 335/526 347/540 348/541 336/527
f 342/528 354/537 355/542 343/529
f 332/530 344/543 345/544 333/531
f 339/525 351/539 352/545 340/532
f 336/527 348/541 349/546 337/533
f 343/529 355/542 344/543 332/530
f 333/531 345/544 346/547 334/534
f 340/532 352/545 353/536 341/535
f 337/533 349/546 350/538 338/524
f 334/534 346/547 347/540 335/526
f 351/548 363/549 364/550 352/551
f 356/552 368/553 369/554 357/555
f 348/556 360/557 361/558 349/559
f 355/560 367/561 356/562 344/563
f 345/564 357/565 358/566 346/567
f 352/551 364/550 365/568 353/569
f 349/559 361/558 362/570 350/571
f 346/567 358/566 359/572 347/573
f 353/569 365/568 366/574 354/575
f 350/571 362/570 363/549 351/548
f 347/573 359/572 360/557 348/556
f 354/575 366/574 367/561 355/560
f 344/563 356/562 357/565 345/564
f 378/576 390/577 391/578 379/579
f 363/580 375/581 376/582 364/583
f 360/584 372/585 373/586 361/587
f 367/588 379/589 368/553 356/552
f 357/555 369/554 370/590 358/591
f 364/583 376/582 377/592 365/593
f 361/587 373/586 374/594 362/595
f 358/591 370/590 371/596 359/597
f 365/593 377/592 378/598 366/599
f 362/595 374/594 375/581 363/580
f 359/597 371/596 372/585 360/584
f 366/599 378/598 379/589 367/588
f 383/600 395/601 396/602 384/603
f 368/604 380/605 381/606 369/607
f 375/608 387/609 388/610 376/611
f 372/612 384/613 385/614 373/615
f 379/579 391/578 380/605 368/604
f 369/607 381/606 382/616 370/617
f 376/611 388/610 389/618 377/619
f 373/615 385/614 386/620 374/621
f 370/617 382/616 383/622 371/623
f 377/619 389/618 390/577 378/576
f 374/621 386/620 387/609 375/608
f 371/623 383/622 384/613 372/612
f 392/624 403/625 402/626 401/627 400/628 399/629 398/630 397/631 396/632 395/633 394/634 393/635
f 390/636 402/637 403/638 391/639
f 380/640 392/641 393/642 381/643
f 387/644 399/645 400/646 388/647
f 384/603 396/602 397/648 385/649
f 391/639 403/638 392/641 380/640
f 381/643 393/642 394/650 382/651
f 388/647 400/646 401/652 389/653
f 385/649 397/648 398/654 386/655
f 382/651 394/650 395/601 383/600
f 389/653 401/652 402/637 390/636
f 386/655 398/654 399/645 387/644
f 427/656 411/657 409/658 425/659
f 417/660 426/661 420/662 412/663
f 422/664 424/665 421/666 419/667
f 423/668 410/669 408/670 418/671
f 405/672 415/673 422/664 419/667
f 408/670 406/674 414/675 418/671
f 409/658 407/676 413/677 425/659
f 404/678 416/679 417/660 412/663
f 283/680 434/681 429/682 278/683
f 280/684 431/685 433/686 282/687
f 281/688 432/689 434/690 283/691
f 278/683 429/682 431/692 280/693
f 284/694 435/695 428/696 265/697
f 279/698 430/699 432/689 281/688
f 265/697 428/696 430/700 279/701
f 282/687 433/686 435/702 284/703
f 433/704 431/692 429/682 434/681 432/705 430/700 428/696 435/695
f 463/706 196/251 195/250 650/707
f 527/708 263/255 197/254 459/709
f 469/710 519/259 198/258 460/711
f 447/712 440/713 439/714 446/715
f 448/716 441/717 440/713 447/712
f 450/718 442/719 441/717 448/716
f 543/720 540/721 442/719 450/718
f 583/722 600/723 605/724 596/725
f 453/726 437/727 436/728 449/729
f 584/730 601/731 600/723 583/722
f 455/732 438/733 437/727 453/726
f 614/282 620/283 601/731 584/730
f 517/734 516/735 438/733 455/732
f 515/736 517/734 455/732 300/737
f 587/288 609/291 606/738 593/739
f 300/737 455/732 453/726 299/740
f 593/739 606/738 607/741 592/742
f 299/740 453/726 449/729 298/743
f 592/742 607/741 608/744 581/745
f 537/746 543/720 450/718 304/747
f 304/747 450/718 448/716 303/748
f 303/748 448/716 447/712 302/749
f 302/749 447/712 446/715 301/750
f 467/751 201/306 200/305 466/752
f 459/709 197/254 196/251 463/706
f 466/752 200/305 199/308 524/753
f 441/717 465/754 525/755 440/713
f 465/754 466/752 524/753 525/755
f 438/756 458/757 464/758 437/759
f 458/757 459/709 463/706 464/758
f 442/719 468/760 465/754 441/717
f 468/760 467/751 466/752 465/754
f 440/713 525/755 526/761 439/714
f 470/762 469/710 460/711 461/763
f 516/735 518/764 458/757 438/756
f 518/764 527/708 459/709 458/757
f 437/759 464/758 462/765 436/766
f 464/758 463/706 650/707 462/765
f 541/767 542/768 467/751 468/760
f 442/719 540/721 541/767 468/760
f 201/306 467/751 542/768 535/324
f 478/769 473/770 477/771
f 481/772 485/773 482/774
f 476/775 484/776 485/777 477/778
f 474/779 482/780 483/781 475/782
f 472/783 480/784 481/785 473/786
f 477/787 485/788 486/789 478/790
f 475/791 483/792 484/793 476/794
f 473/795 481/796 482/797 474/798
f 471/799 479/800 480/801 472/802
f 478/803 486/804 479/805 471/806
f 494/807 493/808 492/809 491/810
f 490/811 487/812 488/813 489/814
f 490/815 494/816 491/817 487/818
f 488/819 492/820 493/821 489/822
f 489/823 493/824 494/825 490/826
f 487/827 491/828 492/829 488/830
f 479/831 481/772 480/832
f 484/776 501/833 502/834 485/777
f 486/835 481/772 479/831
f 476/794 497/836 496/837 475/791
f 486/835 485/773 481/772
f 473/770 471/838 472/839
f 485/840 502/841 499/842 482/780
f 483/792 500/843 501/844 484/793
f 473/770 478/769 471/838
f 477/771 473/770 474/845
f 499/846 501/847 500/848
f 499/846 502/849 501/847
f 498/850 495/851 497/852
f 497/852 495/851 496/853
f 482/780 499/842 500/854 483/781
f 474/779 495/855 498/856 477/857
f 477/778 498/858 497/859 476/775
f 475/782 496/860 495/855 474/779
f 531/419 303/861 302/862
f 510/863 513/864 512/865 511/866
f 504/867 505/868 506/869 507/870
f 508/871 507/872 513/873 514/874
f 506/875 505/876 511/877 512/878
f 504/879 503/880 509/881 510/882
f 503/883 508/884 514/885 509/886
f 507/887 506/888 512/889 513/890
f 505/891 504/892 510/893 511/894
f 509/895 514/896 513/897 510/898
f 503/899 504/900 507/901 508/902
f 461/903 460/904 527/708 518/764
f 439/714 526/761 518/764 516/735
f 301/750 446/715 517/734 515/736
f 446/715 439/714 516/735 517/734
f 460/904 198/462 263/255 527/708
f 214/256 519/259 199/905 520/906
f 215/317 214/256 520/906 521/907
f 215/908 522/316 206/909
f 523/910 206/909 522/316
f 519/259 469/710 524/911 199/905
f 469/710 470/762 525/912 524/911
f 470/913 526/761 525/755
f 461/914 518/915 526/761
f 215/908 521/309 522/316
f 470/913 461/914 526/761
f 544/916 42/917 529/918 528/919
f 42/917 43/920 530/921 529/918
f 43/920 44/922 531/923 530/921
f 181/924 548/925 532/926 533/927
f 182/928 181/924 533/927 534/929
f 183/930 182/928 534/929 535/931
f 190/932 544/933 528/934 536/935
f 548/925 190/932 536/935 532/926
f 306/936 553/937 537/938 538/939
f 307/940 306/936 538/939 539/941
f 44/922 307/940 539/941 531/923
f 556/942 444/943 541/944 540/945
f 444/943 445/946 542/947 541/944
f 445/946 183/930 535/931 542/947
f 553/948 451/949 543/950 537/951
f 451/949 556/942 540/945 543/950
f 560/952 545/953 42/954 544/955
f 545/953 546/956 43/957 42/954
f 546/956 547/958 44/959 43/957
f 549/960 564/961 548/962 181/963
f 550/964 549/960 181/963 182/965
f 551/966 550/964 182/965 183/967
f 552/968 560/952 544/955 190/969
f 564/961 552/968 190/969 548/962
f 554/970 569/971 553/972 306/973
f 555/974 554/970 306/973 307/975
f 547/958 555/974 307/975 44/959
f 572/976 557/977 444/978 556/979
f 557/977 558/980 445/981 444/978
f 558/980 551/966 183/967 445/981
f 569/971 559/982 451/983 553/972
f 559/982 572/976 556/979 451/983
f 41/984 561/985 545/986 560/987
f 561/985 562/988 546/989 545/986
f 562/988 563/990 547/991 546/989
f 565/992 180/993 564/994 549/995
f 566/996 565/992 549/995 550/997
f 567/998 566/996 550/997 551/999
f 568/1000 41/1001 560/1002 552/1003
f 180/1004 568/1000 552/1003 564/1005
f 570/1006 305/1007 569/1008 554/1009
f 571/1010 570/1006 554/1009 555/1011
f 563/990 571/1010 555/1011 547/991
f 443/1012 573/1013 557/1014 572/1015
f 573/1013 574/1016 558/1017 557/1014
f 574/1016 567/998 551/999 558/1017
f 305/1018 575/1019 559/1020 569/1021
f 575/1019 443/1022 572/1023 559/1020
f 625/1024 626/1025 577/1026 588/1027
f 624/1028 625/1024 588/1027 589/1029
f 454/1030 624/1028 589/1029 590/1031
f 191/1032 612/1033 613/1034 578/1035
f 612/1033 611/1036 615/1037 613/1034
f 611/1036 610/1038 616/1039 615/1037
f 622/1040 594/1041 582/1042 623/1043
f 621/1044 595/1045 594/1041 622/1040
f 454/1030 590/1031 595/1045 621/1044
f 191/1032 578/1035 617/1046 599/1047
f 599/1047 617/1046 618/1048 598/1049
f 598/1049 618/1048 619/1050 604/1051
f 570/1006 571/1010 639/1052 638/1053
f 563/990 562/988 632/1054 633/1055
f 571/1010 563/990 633/1055 639/1052
f 180/993 565/992 634/1056 628/1057
f 573/1013 443/1012 630/1058 640/1059
f 565/992 566/996 635/1060 634/1056
f 574/1016 573/1013 640/1059 641/1061
f 566/996 567/998 636/1062 635/1060
f 567/998 574/1016 641/1061 636/1062
f 41/1001 568/1000 637/1063 627/1064
f 575/1019 305/1018 629/1065 642/1066
f 568/1000 180/1004 628/1067 637/1063
f 561/985 41/984 627/1068 631/1069
f 443/1022 575/1019 642/1066 630/1070
f 305/1007 570/1006 638/1053 629/1071
f 562/988 561/985 631/1069 632/1054
f 640/1072 642/1073 639/1074
f 207/321 173/320 653/1075
f 462/765 654/1076 436/766
f 647/1077 649/249 207/321 653/1075
f 643/1078 195/250 649/249 647/1077
f 643/1078 648/1079 650/707 195/250
f 648/1079 654/1076 462/765 650/707
f 652/1080 297/1081 298/1082 449/1083
f 646/1084 456/1085 297/1086 652/1087
f 456/1085 646/1084 644/1088 457/1089
f 202/1090 457/1089 644/1088 645/1091
f 33/1092 202/1090 645/1091 651/1093
f 33/1094 651/1095 188/1096 34/1097
f 173/1098 188/1096 651/1095 653/1099
f 653/1100 651/1093 645/1091 647/1101
f 647/1101 645/1091 644/1088 643/1102
f 648/1103 643/1102 644/1088 646/1084
f 652/1087 654/1104 648/1103 646/1084
f 652/1080 449/1083 436/1105 654/1106
f 202/1107 33/1108 34/1109
f 34/1109 35/1110 202/1107
f 35/1110 36/1111 457/1112
f 260/1113 37/1114 38/417
f 35/1110 457/1112 202/1107
f 36/1111 260/1113 457/1112
f 530/1115 531/419 39/418
f 531/419 457/1112 260/1113
f 38/417 531/419 260/1113
f 528/1116 529/1117 40/1118
f 529/1117 530/1115 40/1118
f 39/418 40/1118 530/1115
f 298/1119 297/1120 456/1121
f 456/1121 457/1112 299/1122
f 457/1112 531/419 515/1123
f 300/1124 457/1112 515/1123
f 531/419 539/1125 303/861
f 539/1125 538/1126 304/1127
f 303/861 539/1125 304/1127
f 538/1126 537/1128 304/1127
f 457/1112 300/1124 299/1122
f 299/1122 298/1119 456/1121
f 301/1129 515/1123 302/862
f 302/862 515/1123 531/419
f 631/1130 627/1131 637/1132
f 637/1132 628/1133 634/1134
f 634/1134 635/1135 632/1136
f 635/1135 636/1137 633/1138
f 636/1137 641/1139 633/1138
f 641/1139 640/1072 639/1074
f 633/1138 641/1139 639/1074
f 640/1072 630/1140 642/1073
f 642/1073 629/1141 638/1142
f 638/1142 639/1074 642/1073
f 633/1138 632/1136 635/1135
f 632/1136 631/1130 637/1132
f 634/1134 632/1136 637/1132
